<mxfile host="65bd71144e">
    <diagram id="HIP3nbAZw_EuaXWnEj3U" name="Page-1">
        <mxGraphModel dx="1090" dy="498" grid="1" gridSize="10" guides="1" tooltips="1" connect="1" arrows="1" fold="1" page="1" pageScale="1" pageWidth="850" pageHeight="1100" math="0" shadow="0">
            <root>
                <mxCell id="0"/>
                <mxCell id="1" parent="0"/>
                <mxCell id="7" value="http://ics2o.mths.ca" style="swimlane;whiteSpace=wrap;html=1;" parent="1" vertex="1">
                    <mxGeometry x="30" y="20" width="820" height="480" as="geometry"/>
                </mxCell>
                <mxCell id="8" value="Sum of n natural numbers with JS" style="rounded=0;whiteSpace=wrap;html=1;" parent="7" vertex="1">
                    <mxGeometry y="20" width="765" height="50" as="geometry"/>
                </mxCell>
                <mxCell id="9" value="&lt;span style=&quot;font-size: 15px;&quot;&gt;Enter integer&lt;/span&gt;" style="text;html=1;strokeColor=none;fillColor=none;align=center;verticalAlign=middle;whiteSpace=wrap;rounded=0;" parent="7" vertex="1">
                    <mxGeometry x="30" y="140" width="120" height="30" as="geometry"/>
                </mxCell>
                <mxCell id="13" value="&lt;span style=&quot;font-size: 16px;&quot;&gt;Calculate&amp;nbsp;&lt;/span&gt;" style="rounded=1;whiteSpace=wrap;html=1;" parent="7" vertex="1">
                    <mxGeometry x="50" y="280" width="120" height="40" as="geometry"/>
                </mxCell>
                <mxCell id="17" value="" style="shape=image;verticalLabelPosition=bottom;labelBackgroundColor=default;verticalAlign=top;aspect=fixed;imageAspect=0;image=data:image/png,iVBORw0KGgoAAAANSUhEUgAAAggAAAEQCAYAAADVkYwIAAAAAXNSR0IArs4c6QAAIABJREFUeF7snQWUVtUWx//fdA81dJeEhJQICAKKqKCI3d3tM57x1Gc849mtz+7CRBFMBEEMQkC6u6c73vrtjzt+DJMwMwxw9losYObec8/d95y9/zuP765j4wvkyHHAccBxwHHAccBxwHEggAM+BxDcenAccBxwHHAccBxwHCjKAQcQ3JpwHHAccBxwHHAccBzYiQMOILhF4TjgOOA44DjgOOA44ACCWwOOA44DjgOOA44DjgNlc8B5EMrmkbvCccBxwHHAccBxYL/jgAMI+90ndy/sOOA44DjgOOA4UDYHHEAom0fuCscBxwHHAccBx4H9jgMOIOx3n9y9sOOA44DjgOOA40DZHHAAoWweuSscBxwHHAccBxwH9jsOOICw331y98KOA44DjgOOA44DZXPAAYSyeeSucBxwHHAccBxwHNjvOOAAwn73yd0LOw44DjgOOA44DpTNAQcQyuaRu8JxwHHAccBxwHFgv+OAAwj73Sd3L+w44DjgOOA44DhQNgccQCibR+4KxwHHAccBxwHHgf2OAw4g7Hef3L1wVXEgOCRMPl+QcnOzpIKCqnqMG9dxwHHAcaBaOOAAQrWwuZwP8fnUsFUXdep3nIKCgvXHhNe1bf2yct5c9DKf6jVtpwMPPUGhYZGa+f072rRq/i6O5W4riwO16jdX76MvVN0m7TTti+e17M+JZd3ifl9FHACkte8zXG26D1HK1vX6Y/yrSk/eUkVPc8M6Duy7HNhnAEJIaISGnXev2hw0uMSvlbxlndYvm62Fv32tVfOnKTc7s0Z92di6jTX49FtNqft8Pi2bPUnv3H3STnMMj4pXZEwtJW5cUeL8o+LqauApN6nHEWeZVbvyr1/05p2jatT77kuT6XzoaI284kmFRURr0R8T9O49p1T49foee7m6Dz1Dm1Yt0JRPntS6JTPLHKNOo9Y65rLHlLJ1nSZ/9Jg2r15Q5j176wXsicjYupIKSlX4Tdr11DGXPaL6LTopJytTv3/9ir5746696rVr1W+hI8+/T3l5Ofrpg/9q44q/qmT+vqBgRcXWUX5erjJSt1XJM9ygey8H9hmA0LHvSI267nkT0GURm2H+tC/1zWt3KHFDyUq2rHEq+/eeUOhwyAgbet3SP/XidQN3eAzCb/QNL6tOw5Ya//Kt+uXzZ4udRkztBjrinLvVdbBfUW1Y/peev6ZfZU/ZjbedAwcdfqaOvepp+9+q+b/qlZuHVYg3KPqrnp9eeM/i6d/p6//drC1rF5c6zok3vabO/UcpLydbkz58RBPff7BCz92bLu4y6GTj8ZbVC/XVizdp5V9Tip1+yy6HGlir06iVKb6Z37+rL56+am96VR122q0adOpNNucf3r5PUz97WjlZGZX+Dj2Hn6ejLnrIwOhXL9xYLlBa6ZNwA9ZYDuwzAKH74Wfq6Iv/q9DwSOXn5SkrI9n+DiR+FxoeZdY5tPKvqRrz8AVK3rK2Rnwgwgqtuh2mvsddLp98mvj+Q1o175cd5jbo1JvV//hrFBoRpQ0r/tLzVxev9H1BQWrW4WD1H32NQsIi9PPHT2jpzB9qxHvui5PYXYDQqE03Xfzo32GJ/Pw8C1VM/ujRUq3ls+7+VK27HWYs5Rt/+/qd+yJ77Z3Ovudzteo6UPDm29fuNKVZHJEL0uuoC9Rt8CnasnapfnznP2UCrZrGtKMufkh9jrnYpsUawDuUlZFS6dM87/5xat7pEOPp509dqVnfv1vpz3AD7r0c2CcBQtKm1SY8Urdt3OHLEJNv1XWQGrftbkABmvrZM5rwym17zRc87PRb1W/UlTb/LWsW6enLe+81c9+XJ1rZAAFeZaWnmPX4+/hXlZeTVSz79ieAcO5/vlSLzv2NDwAhANG+StUFEM5/cIKadehjbAQgzPj2rX2Vpe69doED+yRAwLL+4P6ztHXdkh1YQiyeJDLi/B36HqOg4BClJW3RM1f0UkbKzvE3fl+/RUfVa9pBMbUSFBIWrsy0ZKVsWaeNK+ZqWxnhieDQcCU066D6zTsIlz+UlrRZyZvXWEwxPXmzCopku3NPnYatlJOdqaSNK1VQkG/3BYeEKj6huQaceJ26DDzJ5gIQ+vjRi+z3OVnp2rJmsbIz0wrfGUuqVoMWKsjPU+LGleZuheAD84mOr6et65bucE9xa6he0/bcZQmTebnZO1wSFBwsQiMNW3VVXL3GCgmFR0nGm3VLZtk77ioRH62V0Ex1GrdWTO2GioiKVUhYpL1respWbVu3zHJKis7J/zyf5WnEJzRV0ubV9n3hR+O2BymheUdFxda29966bpnWLPy9zPhreFScmrTroVoNWiosIsq+T8qWtVq94Dez8KsCIPAWeLe+ev4GLfj1q90CCHiR6jfvqHrNDlBs7YYWx2ctbl690NZi4Lop7kGsmQatDlSDFp0UFV/P1lB60mZtXDVf65fOMm8doJX1lpmaqNRtGwrXrjceXq3YOo1Ut3EbxdZprIjoWIWGRys3J9O+j62ZxTPt/4HEuOyjkVc+YUm80O/jXtbsnz6yf2emJlkCrrdX+FlYRIwSmndQ0qZVNheP2NP1mrQTc9m4Yt5Ocwx8Lt+c5FP4lJa4cef38fkUX7+5GrXuprh6TWxPZmekKXHDcq1l7Sdt2ml/l3cvlAUQ2Bvx9ZpYSHXL2iW2ByKi49WkfU/VbdzWPIwZKYn2fdcs+M1yGQKJ+8jRIBSDjIPwUpA/A7GmMUCKyid+F1OrgZq076G4hKYKj4ixtcM6XbtoetneWJ9PsXUaGs/gLfPIzkzXtg3LTV6kJbJuChRXt7Gi4xO0ec3CEkMr7GfetX7LTraugkNClJ681fixYdlsk0PFEWugdoOWJv8tcZs51W6oll0GKDKmtoUIkSvITb8o8SmmVn01bN3V7guPilFWRqoZoIS7kKG5JQD48n7vmnrdfgUQ/N/ap079R1lCI5saevWWo3eKZ9Zt0la9jjxfTTv0toUcGVvbFAwCIC15s7ks508dq7mTP1FmWuJO3xfl223waep4yLGq3bClouLq2DUZqUkmbDatXqgF077SvKmfm8KDCDG0732U+oy4WAX5+Zrw6m3asHyu/a7pAb116In/UON2Bym6VoK/nC4nywQAlJudpVk/vKcZ37xhwgIB2KrLIPUbfbWN+/1b92r1gl/tWuLd/UdfawKUOUz74rkSFzjPPfzsu2zM38a9bLkbXgkfyrr70NPV8ZCRJnTZ0MGh8ChVyVvXac3CPzTz27e04q+pf2+2cu4EwkG4idscNETx9ZoZ/xAmACiSS7PSk00YLZ/zsymLotUe3D/kzDtMYBJamfPTRyKRsMPBx6hWw5aKiIozwcMYK+dO0fdv36fUbeuLnV2jNt1FAiFhgLi6jSxkk5uTbQpg3ZI/LUs+vn4zHXvlU3b/ruQgBIYYyCdAoHv5NKyVzx6/TGsW/bHT/Mr2IPhUu2ELdR96ptp0H2wKnARWAEJGaqKB0OWzJ+vXL19U4sZV9vOixPWEtZp3PsTAa0RMLROaKGYE+9JZP2rGN2+aJdrzyHOVmrjJvHIoZ4/4biTfdup3rAlZQAbvBy9ZW1kA763rtXbJTMur2bRyXuG9fY+9QgceerwBO48nXJuWtMmuYU/++O79hZUj7NMBJ16v9r2OtPmRq0MSJ9Sh7wirNqGyZ8qnT2n+L2OL/eZhkTHqNuQ0A+OJG1baXgwEGuGRserY71irOELRsid5LmsqdSvJ0HMsOXJXq1nKAggAcsKHgPI/xr+mpTN/1OAzblXzzv0UX6+pQsMilJmeYt93wW9f6+cxjys7M7XwXQeefJM69D1a9Zq0NzABJW1eo4yUrfZvQNFP7z9kYViPkCnIs66HnWJgEyMjNDzCEkH5FgDN2RM/1F9TPld+EUDCGBgPrbsPVvchp6th6y4G+tmnOdkZZnQBEKZPeN3W4VEXPygAGvL1t6/+V2jceHMx+Tr0DPvGAE7WKAofUMB7EJr94+tXTX4GAkfuJyR38IhLFR4dp58/flwbls3V4efcpVbdBonvCkj67InLDfggO5t26GOyCOMCIGIGQlaGGSnwd82i6Zo+/nVtWVs8oCqnyKuRl+13AIGv0LxTPx198UNmEUEfPHiO5k35rPADtejcT4PPuN2UC4u6WCrwW2CzfnzfFhnWlEcIPbLRh5z5L7NiiyMWbVriZr1zz8mFiUFYAOQYHDzyMgMyKPVJHz5stx848ERTQGyokmjOT2P0+TNXKScz3QTpIaOuskQnwMSkDx/V92/dbbeidE+66TXbgKmJG/XyjUeUWBFx5l2fWGUIgOWXL57Td2/8u9BiH3b+feo2+NTt4Mef1xFIebk5JjS+feMuLZs1sVRrrei9oPVR1zynBi07l7px2KiALJ6BkPEoMraOrntpjgk/EP629SsMXBX3PVDI834ZqzEPn7/Ts1oeeKhGXPGYajdsZcKiKPEdEUIIpQN6D7df7y5AwJKm6qRll/4m7KGV837RRw+eq5QiIKYsgBCf0ExHnHeP2vU4XCi94giAunzOFH32xGWFSte7DsF79CUP64A+R5kyL46wALEefcFBatGpn8WzP3jgbC0ATG4nQOlRF//X1p6XA1TcWHi5Vsydoi+euVrb1i+3S067/X2163WEreOS6NvX77J9CPHOp9zylgE6hPxnT16pv37+xH537FXPWG4CyoTnvH33ScoJ8Lp54wOeT7zxNfP+sY5JOl27eIb9GiXS48hzdMhxV5iSLG5e7BcA0pfP36DF078pdQ0X98uyAAJKGnkAIF+14DdlpyeL5ExASlHC6zn106esGsKjwNBCcc8HhH/z6r/061f/K/x13+OusPCmeaC253EF3ovlT2XVlE+e1vQJr+2g1OF3+97DLXG6VsMWxe4lvj0evbWLpxsIwRBZNvsnffLYpYUAj+fhURp+0YMGNpGZxc4/J8sMFBIv/RUgfwNfPMgASOY0b8rntqd6HnmeeWmhlfOm6Z27T7QQH+sWL0vzTn3t+pJ4RSLshFdurZJE0govnkq8Yb8ECG17HqGjLnrQPj705h2jzAqC+NmIyx8TigHEjHDAjbx4+rfKTE9Wg+addOCgE80ChRBAP33wsN8K3142iXvslFveNoWENT3po0f154/vy+cLVosD+5uAIjEoNytDr9xyVKG1hJcCYNL7qAts7MCkMyw/UC8VDvF1m9jcUI6eVclzpn76jFb89bMpc4QY4Qg2AoSFOO5Ff1Z043Y9TLh4yhelP3nMYzstKyy2y56YLNyZWJskezEOdNDhZ2nE5Y8qKDjUvA+LfpugGd+9Zd4RLG5KLLG2ERrL/vxJY5+9plDgl2f94uo7/voX1fagoVox52ct/XPi9pCRz4AbAgQrAsLqwQOAJ8EjFNuNb/pDTOYmLSiwbzVv6hdKT9mihi27qFmnvmZpQSi1V24+0sINhWPEJ+jMu8aoUeuu9iOselzgcyd/rMSNq41/3YecZm5mgIIHIHYXIGxes8iEM0mmfUZcYhYLwhNr6ounrzaLy6PSAAIKfcgZt+vgYy+zuSHwsGrnT/3ChB3WNMm9gCbWzMzv3tbnAdn+rLGhZ92lPsdctB2YFihp0xrN+uFds5osqbbLQHUdcqrCAR8FBbZWoDGPXGheG49Yj4efe7cOGnqGVecsmfGdhcRYO4DBAweeYJ4FwAPrmgTN7978t91O3lC/468yS87bd4AHQkcQ7vCvX7rFQj5QnUZtdPItb1o4hLG+evFG82RB/UZfo0En32hgKS1xkz576kot+n38DksS3nQdfKqOvfJJU/7M8627RluYDp6063mk/Q6vAcT6xhuBkcDaJ7nQc9unp2yzSqRAb0p51n9ZACEwpMW3k09K2bJeC38fb2sZIyeh6QEiBAjhMv/wwXMLw67IQDwQuPrDo2LtGtad5yXBikcueF61dj2HaeQVTyi2biMbf+2iGfp17Avasm6JufkPPekfSmh2gCniTSsX6OuX/lkoUxmb0NwZd3xgvVmYLO77+b+O09xJY8wDRMUJRhD8Yw14yhgPxiePXWK89wjv55Azb7drAKesM8JN2ekpan3QEPUdeal9G/bkvKljDfgGhtAOP+ff9u4Q4d6Y2vVNjrGv8GJMfO9B+6bMA0NvxGWP2XdfPmeyfnrvIa1bOkv1m3cywNNl0EnmxYEX37x+Z40rnS/PWivtmv0MIPgUER2nfsdfo37HX2loGwDw+IUH2sbg/yz0fsdfbQIRhc8mmfblizu4yLEaTrv9vcLFzMYiwWfVPFz4BarTuI0ufeJnUz5LZnyvL5+73lydHvEcf412hrauXWwbDioNIHj3ljdJsTSAgEAYeMrNOuTYy23hg9qfuaL3jm48n09Hnv8f9T32Mns0fSN4x82rF5mb7aJHf1Rs7QbGIxo6/fD2vaaAPGKjn3zz6+bShj5/6ipTLF4eRHkWLsoGL0dmMfXZ5D1c8N9vLDYIzfzuHXNre7XcgQCB32Plk6/h1ZPj8u457BwddvotFneEcMPiifCTT/1PuFYDT/qHKROEx/QJb1jSIOENj/BUHHv10+bqrEyAMO6Fm8xiRSijyBH0AFT6I0z95KnCkFBpAIFvcMFDE2xdo0QBiH9N+azwGxTy4LRbbO1BL1x7qCkTCAsc64m/IUDBJ49fanHXQKrbpL1O/ufr5nb2qChAMI4GBSksIlbZGck7xbZZU6fc+o6atDvIhlg+e5LGPHLRDmGf8iYplgYQCBfCMwwBQhsk5WFlFsab8RBExRrAp2ICJfPT+/81vqNk2Pt4tvCEoJinf/OGxr98yw6WI8Du6Ev+a2501hGg7Kvn/1GhfISKAAT4hUL74IGzCuPuvAP9MTr3P97WDvJtwqv/0uyJH+zw7cqTpFgI1nsc7u/PMmuiVX8RavUoKq6ezrn3i0JgNG3sC2ZQeHkAALMjzvEDPowN9ipGU6A8YK8PPuM29Rh2toWAoKIAgTysK5/7zTy77MOf3n/YQhAeaGYPtus9XMdc+ojlOkBv/muUlv7pNwChQIDA/1kHi2d8b3t74/I5hd8JgH3EufcYQIZY0xgHBsi2E+uBtbRx+Vzbn/sa7ZMAAYU99tnrdkCdLOyo2LoWg+59zIV+11RBgeb+/Kk++u959l2xmKkJbtX1UPt/aWVjhojv/NBi7xAuzmljnzeFyYK59PHJ5t5O3rxWP7xzn8Ui2aQAkpKougACz2/f5ygNv/AB1d6uwN+555QdLCkSkc6+93OzCjyL7vu37jGBSTxu2Pn32ibesGKuPn7kb8XrvRu/6zPyEg098w5TDDSnQqiUlQxXkQ12yHFX2jygRb9PMKuFcAIUCBDgOQIagBLIf0AG3iKEPTR70hh9/LDfe4OwGv2Pl9SuJ65tn7mj3733NGWl75z4RALdqGuft+oYqDI8CACEpbN+MLB5wj9esvgnBJgjVDT/ly9NsJUGEHDDHjziEvtmM755S9+/fY9ZzYGEt+uYyx5Vu15H2ntO+/w5ff3yLXbJQUecpaFn3WG5JQjy1249xoBiUcLKJn574o2vFoZwigMIZX1b8iSOu9pfuoglR5iBvz2qDIDAWEdeAPC93IYF9Hz+5BXaGJDzALA6/8HxpoTok/LpE5fZ94eaHNBL59w71sA/noUPHzpXG5bP2enVBp36T/XH0CDEtXaJXvnn8J3CN6XxoyIAAZnz7FWH7JSH06RdL51198e2llHKWMZ4OgOpPACBPTD8wgctWZh18Pq/jrW8naLUvveRBvJQ0vB17DPXFILNc+8fpxadDrG1OPXTp61nR3FJhDSBO/2O99W8Y18bvihAGHTKzQbq8Qrihfry+X/s1MsG0E4YoddR55sH6M8fP9Anj/lLRqGiAAFwhfEQmGPCdQAE8q8OHnmp3cc48G/r+mWWiLs/0D4JEKgXXrt45g6xRVxIdRu1tviXFzPEqvz08UsLFzFCcsTlj5trHJf9k5f2MJd5cUTsr9+oq83VBSGwcaOTlwCqPP66F9W62yD7HVYtiWCr5k0zC5bM79St63eKyVcnQGCOAAQSrdjQC38br/f/c4by8/2VDoQQiF3jfsb78eED55hrDcKCommNLwjFOVXfvn7HTj0nuI4Ex6Fn32nuZ5IBn7u6X4U2FsACJY5gio6rZ7FHLD1ABgKPEMPx171gc0KAYyF7wjoQIOBG/PjRi7Vi7s87fEpclDTeIY8CIpeB2DnUoOWBOvaqpwoVM2N74ZWi64F8D1zgKAWoMgEC4xGOGnXNs5YH4Y2PBUZ46cy7Pi6xD8JlT/1iMXQUyLSxL+qvKZ/uYP1479F35GWWwEkMFsH+0g1+wHTYaf/UgBP/YT8nMxwvU6D1FMgHwgNUGRAOgIr1IPiCLDu9TpO2iolPMM8MCoOcmYy0RAPtgCFo86oFFhpAeHtUWQAB7935D4w3TwGJZj++c7+Fp7xkNizvXsPP2+4heNO8Y15CZO+jLzLvALToj28sFFJcG2fCYFjDdClE8QCOcVGXlyoCEJAp7K2iBMC57tV5NgeUMaFQchECqTwAATDFWgBoADDfve+0Yj2B/B6vIXKMagJyerzQ7c3vrDTvLft27LPX6q+fyfkq/rySgSffaLyDigKEc+77Ui0P7G9AH28YCa3FrUnyEwitYaiQ0/PkxX4vGFQUILxz98mF1RuBvMHz0nnACRp5xeN+2bM93whZzt4jQZxkddbvvkr7JEAo62MR90RZ//LZM1o847vCxe6POz5lAhFF8/w1A0ocCmurzUFDdcad/jgr7mAULIoQly5oevDpt/njctsTelhgxE4BL2TKLvrta9swHlUnQGBOxDE9CxEh98Ydo6w8iI2Oa9sDD7jvv3jmmsLMZGtY0+VQ294IThIAiyOAAbFFkDheiMcu6FyYJV3WN+JeYpLE+bDQiSmiiAnHAN4QQIQeyKcwQTJvmsa9eKPWL/3T/h8IECh3/fTxy0xxFyUAAnyAAgFCywMHWHIeyWoQuSKrAjK6dxiHWOWQM0xBArYqGyDwLLLph1/0gL0XPACQ0mlx1LXPlQgQbv1wvVm6CFOyrdOS/RnqRQlXLHFU5k6s94mL/DkXZHZTvcBaQbm9fpu/w2dxREUQVmbH7V1AiwIEQnZ8y479jjPwRXgKBY1wB/ChqPmeWO8QXkDPi+I9r7IAAgYC350KHPYkmffkfJCwS6jjkscnGfik8uGbV+/QnMljCpUQLmfAIEQlBfu9aEM2fkd2PzkAGBIYDeyfwKTNEhm5/RcVAQilrTfycFgzuwMQSLYm3GZ5LBmpVh5aHKFQkXfsU6p8PnjgTPPsQXd8utUMM5J5AQiL/yg5cbPX8AusVTZUFCBc9/Jcqz5jD5CUTPv84oiqJ8JJyHLW1/2n+CvW/Ov67xwEPAGPXtC52ERVriXngq6WBx46eocuvYQTAGbMj9wg/l2R8GlZ37+m/H6/AQjEqHD30+eehMMVcyZvr+v/2+XfbcjpZjWyEXBtvni93xoqiVocOEDn3ucvk0IxvXvvqYV1wCBO6uY7DxhtMWT6KAQCBayK6d+8aYjei91XK0Bg8ddprJNuflVND+hjyn/Kp0/r+zfvNisQK4n+B1jsL988XGsW/lbIhnPuGysUaHkJBUWVwBdPXVmuEAObuvdRF6nf6KssYxp3Ikjdeg6kbDOPBBYrVSheomJlA4RAHvCeL914+A4JjEXfnWQm1g5CsCoAApZQ72MuNkvO8mNysjRjwhuq27RdiQDh9jGbCjOzy/Ot6O2ARcYagAaccJ0lm/I8lOeTF3cvLMktOh79RUZf96Il5kKBACEoKMTAJlYhZZJ4hgAiVGowLuMjzEn6xMMAVSVAYHzyJS58+Dt/w7G1SyxPiDAgmfqcgYB1u+j3b8yFHZhgSOUO1QsVIc5UIX+nIm3daxJAwIgAIJRWRRLID5Q33xbA7uX8XPfKPL9nNjPdcj7+/PG9Ekufj7zg/sLcp6IA4fpX5xfmFpTnG7BP6A4JKPEoECCsWvCrXrmp5LbovDNn5FChhMGCZ8irdmA8DB88qxNe+ZfWLvqjQpVa5Zn/nr5mnwQICBeaywRmvmIp5OfmWBMWUDClbUWpwyEjNfLyJ6xsj2seOad9iQIR9zR10l7tO4j40ycv3yHG60/KijElBljoNOB4y/r2soZBtu/dd3phrXR1AwS8IP1PuM5KK0NCw6wsiJLPHkecbQIBFyXJO+/ec/IO6Pj46/9niJr7qb9GiJZKBQWWwIOFWFzjlaL3YmHSNpvSIkAVJ1GS8ASQQvgE+YLMMqvbuJ3Oe2Cc3V7ZAAFLFi+Kl6BHtruXCV90vigZlIbnFq0KgMAzCQsRxuh55Dn+PhjZmfZdvPLFojkzVzz7u+o1aWtCjHa9XmOhkr4VeyQjeWthS18ytClLw4riu/Gd//j6lZ1uZy94rc494RkIEGrVb6Yjzr3XQAJrZsGv48z7wZpg/rwL9wH6UNrVARDYmyfd+JrNiTX1w1v3Wj+Bcx8Yp/rNOhRa3HgZA+voKUEefuH9Nkfc5FM+fdK8WaURZZR4EYrW45d2T00CCIeMutLWHcAcr8mrtxxVht6iYijdvIWeVX36HR9aPg/Ai8oC8oUI/RUljJJTb3vHKiNsXxepYjjvgfFq3vFgy7+Z9f17xVZf7TBmAf0+tu2Q7xAIEAiBUMVWFiELCYER5mvb43Az+rxKFbxg83/9Sp8+dkm5DKCynlWTfr9PAoSSOimWxXhi5riVPaXAYU6UL3mNgQLvR8mfcMMr2xe9rMbY34zE38kQQbizMvQfwUw9uJefQLIOyX9QdQMEv9JpqEtxqdZKsFgpWdmN2/ZQ2x5D7b1f/udwrS6SmAaowJJl0xCKee8/Z5RoHXk17+UBBh5/2XxHXni/dVGEHjqzdbGhCRJEr3jW79mobIBAYt4JN7xUGFOnGoWeFcW5Ecmax3tAaRlUVQDOarbtAAAgAElEQVSBsS2R9sIH1Kobh3jt2HuiKEAgD6brYSfbnH4d+6J+sKzy4pOrUNL+b/R3XJjyzeOvfb7wveh2OP6V26yszKu84fv2HH6+ZagH9ugIBAgcMEalh1flQHtwuvQVJQDC1S/6T7Csag8Cz2jZZaDO+vfHVi5H1cT8aV9ZThEucvKTqArwkl69ubbojNfwCwOuNEP6+JELSzxG3b/2kQN/Z72XJYO839ckgEAzKJKB6S8BPXd1f+skWxyV9M6dDz3B8ks8eUBTN6o/6NHAmuPsmUZtuwvvQdMDehV6K4oChEDvAkATz0DR5EJvXramWc9FutVWBCCUJL8Im5KnNeSsf1npLQYloTmv0VR5v3NNv84BhIAvROwdAdFr+Pn+GtusdI357wVaMXeyxb0RoIQfImJrq9eR5xVajMQqyXT2NwMqsBgrYIOww6bVCyy+5SlI7kegeolOuPW/edWf6FgugHDaLRYDxWqle+BLNw4t1oIprcyx6KIcdsF/rOQRoU/zJqw5vCglKTpQPnkIxK6pYSbBa/LHj1kCYuF7BoeYQGnTfYhtnoW/fbVDGWRpGwOrbvgF9xd2uiwOIOByP/TkG6wstSoAAmMSeyVBC8VHDPfHdx/QrO/fsfdA6CM8sOpx/Q8Yfa25zqsaIDA+ybTDzrvH2oYHNh0qChA4+Ov029+3FsBYaxNevd2s98BjzumGSSIjde6ArGUB5WA8i86I5NJ4Nf943kiyJVcFAdykfS/zUmQBjAvyLX8FCgQICPzjrn7WQlZQcQABsEkCoFeVUhxACAxtAawB5cUd2V5amWPguqNEdtR1L1iHSa91tr81eb51DR3/kj/pNJBY8yfd9LqadTzYfkyPEyo/vCRGfsYej67dQB37jlBIeKTtD+RHRai6AIJnkTM31geJuEW9q8T8ydmgA6F5gKZ9pbHPXa+0pI2FuRlWJRZfz7q3slZoQJS85W8PAT/D24r17fU4wPNCbgtKlRCTNaYLi7D9VRg6LOJBoGcGCabsSfKmSLzEs4eM8cCteRcbtbFnbVm31KqzAoF9eQECQJG8GeTi6vm/WofQwA6RJLsefckjatH5EPNoPHpuB8ul2ZfIAYQiX5NGRsPOu0+N2nQ1AWjdEr9/1+LfdJzDsmThdR5wvCkENj7CZMrHTxQujtP/9YF5FsienTPpY2v7SbcuFhGd8ThilXJLFi1NQOZMGlNugODPKL7FwhRUa/zx9WuWnc9YWD3Waa+goNRGSUUXMAL1oke+36ErGXkDgJ7AZjeB99GPwU6KDA23jco7UAkBSPAFB1upZ5eBJ9rplIQW3v73SeU+ShaFctTFDxeWDf7y+XPWxId4tQnfWgkWqhl85u2FjY4q24PAuyIAjr/2he317P72s3MnfWxNm6jBppwK64pzPbCAEEzVARAQsCRy0SXT3zbZT0UBAiV2Iy9/Up36H2egjxLJ38a9pLUL/7C1GBoRbUmBJOuRXEZznMBsb8bk+9KYptvQ0ywEUByR17Ng2jg1aNW50KMWCBAo1aQxGfsGIukVRWSNjVAscXXVrGNfkb1OnBoqDiB4R1vze3o1EBJI3rRaeXm55or2WpaXFyCQTEyYkHJQr2EWY1O59OZdo7Vh2c7li/SO6DroJKvOQRaQjMfapPlUZnqSrU88L10HnWwKlTXx3n2nGTCrCFUXQDj1tnetSyZEiBGe8v4AJlqze0dMU4I69Kx/GSAmrk/Z8uwfP1RqIu3J/UC5Q9+RJhc5WAywQdtkj5ClrDVkFwq1uK6eAIWFv0+wMMaAE/w5A8U1SkIp9zjiLOMtSaIzv33bPEBZmam2Xtm3NFIDcOBdKFo9VV6A0LTDwTr//nH2vstn/2QtpPEoMU+ADB4ojDWA5qr5v+ntf48utxFUkbWwJ6/dZwACG3LE9nKUstzepTEc4dup3yhLzkpo5rd4QKb0Gyd/AcvcQ8CAg7k/f2KCmZpoj0hkogmPv4yrwDqs0YKUzcYBJ6BlL9v9k0cvLmyiRI97rDWvMQfomBKrQKIJy4k3vVqYzEUSYU52lgl86osJibBBeTaCfeDJN9jtZZ1aGZjNb8Ji0XRzsRYXJ+T3ABS67CFg6fSH1QU4wSpAGfGO/qO3/a1zKQFFQZWH6JFOvTNeGpQcYIVWviSTBYWEqE7D1mrQspO2bVhp1i+0U5ljbB1d/9p8qyjBi/PZE1cUm2RIH4Qew/wxfUAO5Wh/CzWfOvcfrSPOu7vQmwH4ykhLMmCIxRQaGm5WCkqyfa9hhe7q128fWZ5XLbymfovOuuxJfxnmppXz9eULN1gibUmEdcMaRUAxd6ycn8c8Zu25A+dPSGLoWXealYxA5XsAXFGmuEbJL/A3DMs2MEvZb1Hie7btOcyaQVHV4Vl3AEOS0OhOSXUOXjF67UP0jFj4m18p4u0CFA886QbzkuF9IQmY9wQgWIJii05KS95iffWNB5Q5vnCjCWaPUFL+RFB/aIU5Y+0iwD994vLCPh6cfUKjI5Ieec+xz15vSXHFEddQ1uidaMg1VDUA3EsKDfD+dEvE08gagPAgpGyl2VqorRXrLMl7rF6oTx69aId+DuVZGOR+cI4KNPG9hzTlkyd2iG97+U9eeKSk9XbdK3+ZrLA+CO8/aN6OQOoz4lLLqfB4CuCBr4ST6NpJLw7vG9I0DZli1Sfsg5Stfvc+h1ZxcFMkP8+3bzfhldutT0Eg+Q/La2tntyDHOBMFhU6ZIKXUlLTieeDdvPJxf8OsC3cIIxAWxYPGOChq1j5AES8foJe5MC5yg2oxZGxg/xXGJkzqL+/+2pLLS1obhJHxfFmHz+2J7shE9h8ePEo3Gfv7N+/R71+/XGqfm/J895p2zT4DEPhY1Ipz2hud/eiA6FkUFWU6ApPacywrXEzF9fvGuvhz4gdWi2vJkAFxLhYojYg42ITkRO+AGW8eAAV666PQEYBe8x6Ey4EDT9KQM26zn9F9cPmcSTtMnw1B/wWSCFHMHrFJOI1tEm7XnCxTVFgGlGWxEagpZzOURORdkEgEGvYW/B8TXiu1dWh0rfpWftd96GlWirhDr/KCAqUmbTJ3JN3qOPGvtCZRReeF1dn7qAtNWBQ9P4FabBLu5k8ba5Ypli0VIbidvdMj4fmxVz9ruR58Iw6eKQ7s0M+BxisIt3H/u9lavwYSGficRdHnmEvUsuuhO53NATABfOE5ISSBAORMAL5tRcgaM13/PztRDiH5bUCb25LGwYLFIuty2MlWoUNr4qKldHwTvAOUYXYaMMrK+ALDEgA7KkTgJ56y0loCA2DpS+HfDwXmRQEYEEdmnZ/0z9fNQ8b6e+mGoTs0EEJJ0XiJBFirVAjo5Y/yomyTPg2HnfpPq05h3VB66LVThgd4jiilJEeFpFqPWFc0O/MOXuLbDznrTvUcdrblCXDwDqcCFkcA0L4jL7e25NwH6HnrrhPK9Hb5LeYRViJLu2IvvOQ9A1cz1VLTx79me72k/hElfVtKqEdc9qgpP5Stucm90wWtx0gfHXnhf1S7fgtNGvOYpn3+bLFDYS0DZPDIcGgV3sxA4nvSOKpdr2E7ZOfzTWgeFFiOyBpFphB2IrQUmM3PmMg1zp2gKRdezZKaoqG8AVExdRoqhAOusjOtLwzeANbVSTe/Yc/xWiV//MgFO8gO1i+hoK6HnWqtjr3KGO+9uI+TbkkiJcGZnhqBYI+xh559lx06NuHl2zRn0t8twQN5w/txvDieEc4CYW3v8J0LCqxsk32DZ66kXIiKyIGadu0+AxBoy0tXQBYxrkvc0btFxJfjE8xdiPAjexU3ZEriBm1aMc/vzt+61rJ1iyMUOcqW+7C62MgIIwQe9wIw6HNeVGmCzondI1BwZxV3lDGWX4NWXdW0Qy/F1W1ioQbGwx3HmF4eAAKPUwZxf29dv1y5AT38i86ZzdC6+xDrb0A7ZY4XxqVeUjMT7368BLQ/xaJv0KKzuYtREFjt6xbPMvCUkbq1wgIStyVHMtdu1Mrcz/AvvyDfPDWADQQeFgMWZ1h4tHkvAA6eILDypDoNbT5Yd8QPA9vpevPH0wKgAwjQL8Fzqe7AHyykek1N0RIDjY6rq/TUbdq4Yr61ZuWbAsIoh4LnKNmSjpotbU0iNLFOeQ/yWsqT2El3UOZvx4NvXlVs0xYEakR0LVsLJAySIR4WGW0WIGuRuvbETSuLjZNTZkopJb07sjP+bqUd+B7wkNNRcfuyD7n2/f+cvtPRvwALOpA269DbKlA43IkjuzmbASGOUmUPY5VxDDsx7EDFyntQmovrmPMxwqPjbb2vWTjd3OGBCom9x/cwELNhRamniQKaUPb07Fj0x7da/ufEHZRxSd+Mtc+9uLTxRPA81g9rlBwNcoR2VQ6FhEaodqOWZngkbtr5u3pKFu8Meyyw/XfgfAmD2frISrfriuYXeMdGo/AxrviW/mPMf9eaxX/stJ68EAoJwhgVACW+0baNKyxEgaeU9Vs0mRf5wlHjBXn5tneLO+2RPUs4DBDI+Qh8T7yzgPudyOczLw2yh7XA3iQ3jFNBOQkUYOjnS9JO+wiewROvAVhxeSze8wAE7B36hOBJwBAF4HLuAx5NPGHIDWuzXCQZcrf0Tw25eZ8BCFXJT6wwqwHGs1lQYI1RypuZjFBjE3r3F+QXmLAq7/0lvhcHmnjjqsAEWkWtlKJjM0felfkFWivl4S0byc4iwDIkcXgXxijpOYX8h/02LlnhxXdhK89cd/WawG+J8q6U77irk9nF+2zN2HfavpZLWTdYWCOvfErtegw1IDzzu7csnIALmRALbXFR9hwIhovev3byRfUPFlVJgpeGOhxcxhy43s/H8n9P/zrlECJ/hUBF7y+Odd4aQ3FVZC6MxXzIu7E9vn1d7Kk1uovLwixj/1ki5eOpfy+EWDdVf6FA/vaGUcV/RyzxU257x7xXNKnD6sazAhiB9+SN4LGlq6mdr+LzmXcKbw4KuDRiPQeRILyd/35Z6D/fpjIJHrFuzYuwl37nivLDAYSKcsxd7ziwn3DAMs+vetpO1CzpqNtAVuDtIlGV1tvlzTfZT1i5378mCaon//MNUTUTGOIqnjGEr1LthE5AqaM9xwEHEPYc792THQdqPAcI73AugYVW4hMsQQ33tkfW+jo9xVzpJJlxNgE5DY4cBwI5QOiCZOAOBx9tYQHyiiyRs7ANfYF5nGhqlLhhpXX0pPW5oz3LAQcQ9iz/3dMdB2o8B/AeEGOnTI3kMFzAliWel2OxbwQ6VSZrl8wqNc+lxr+om2CVcsDrG0IjNuL55MSQHAyRI0GS36ZV87VizhSlJm6o0rm4wcvHAQcQyscnd5XjgOPAdg5Q5UPzpbzc3O15BuXPH3BMdBwo6lkgHYYk233xsKO9/Ws7gLC3f0E3f8cBxwHHAccBx4Eq4IADCFXAVDek44DjgOOA44DjwN7OAQcQ9vYv6ObvOOA44DjgOOA4UAUccAChCpjqhnQccBxwHHAccBzY2zngAMLe/gXd/B0HHAccBxwHHAeqgAMOIFQBU92QjgOOA44DjgOOA3s7BxxA2Nu/oJu/44DjgOOA44DjQBVwwAGEKmCqG9JxwHHAccBxwHFgb+eAAwh7+xd083cccBxwHHAccByoAg44gFAFTHVDOg44DjgOOA44DuztHPA9dFoT1yd1b/+Kbv6OA44DjgOOA44DlcwB3/gHRzqAUMlMdcM5DjgOOA44DjgO7O0c8M164xIHEPb2r+jm7zjgOOA44DjgOFDJHHAAoZIZ6oZzHHAccBxwHHAc2Bc4sM8DhJw8KTNXysj1iX/n5AcpL9+nrNw8Feyi7yTI51NUeLCkAuXn5yksWArlv5KiQwvE8aVhIVJI0L6wRNw7OA44DjgOOA7sjxzYqwEC+t2v5H0GArZkBCkxM0jJmT5lFEQoJLqOomJrKTY2TrVr11ZYWLhiYmIUGhqqqKgoBQXtmgbPzc1TSkqyrZeCggKlp6cpKytLBfkFSkxKVH5+vtJSU5WVlaG8nEzlZaYoPztNYcEFAldEhxUoIkSKDC1QTGi+/R1qU/kbsQAyQBr2tyPHAccBxwHHAceBaubAXgcQ8AJk5Ul5ClVyXqSS86KUHVJbsXUaqVHjJqpfv77q1UswULCrAKCqvkFqaqoyMzOVnJyktLQ0AxaJiYlKSU5SRlqK8jITFZyXqfDgXEUE5ypc2fZ3iHKk/DwFBxUoOEgK8cn+duQ44DjgOOA44DhQVRzYKwBCXoGUli2l54YpJ6yOssPqKrxWUzVq0lxNmjRVnTp1FRISUlU8qrZx8UZkZGQYgMBDkZSUpKTERKWnJiovM0nBeekK4k9umkLyM5Sfna5wvBIhMo+EAw3V9qncgxwHHAccB/Z5DtRogJBfIG1O9yklL1phdVootkEbJTRqoSZNmikuLm6f/ziBL5ibm6Pk5BQDDslJeCBSlJW6VTnp25STts3+zs3YpghfjqLDpJiwgsK8iP2KUe5lHQccBxwHHAcqhQM1EiAADNan+LQhK0qN2xykRq06qX7DJvuMp6BSvpzkz3VIS1NaWqo/5yEjRamJm5S4ea2SNq9TdsomxYRkqk5kgWLDpSCX0FBZrHfjOA44DjgO7PMcqHEAYWuGtGhbhBq06aHuvQeobr36iozc9YTCff4LFnnBnJxsZWZmKTsrUxnpqdq0YbVWr1iidauWKCRrixrEFKhedIEi9/6IzP72ad37Og44DjgOVCsHagxAyM6TFm0JUV6djjrs8BFq2KjJPpFXUK1fs5iHFRTkKz+/QAX5+dq4cb0WLJinZUsWKmnjCsX40pQQXaDaUQWqHVHyTK1CJN2nBjGUbu5ibeieZoR7vuOA44DjgONAhTiwxwFCXr60LTNYK3MaqH2PIerZs7fCw8Mr9BLu4opzICcnRxs2rNe6tWu0bv1abdq4UdlpW+XLSVVoUIGFIwj1pOUEaXNimjrWzVbH+vkuTFFxVrs7HAccBxwH9koO7FGAkJIlbcyOVV6dLuo/6HA1atR4r2TivjRpkiEpxaSiwufzadu2bRr39iPq3SjLVUnsSx/avcsucYCKqlxruCZh3NB0LV9SUHCo5AuSL2h7x7SSRi/IF149Grjk5+Va7xMqlgHkQT72HNVIJAsVKNh+5q9OcvlDu/S53E27yYE9AhDYZJtSfUoOb6HGHfqrZ68+zmuwmx+yqm7/6KP3VHfLRNWNcqGFquKxG7fmcoDQZ2q2T+k5Up4vXMERsfKFxcgXGi1fSKR8IRHyBYcqJDxaCg5RcEhYqS+Tn5engvxcFeTnWRM15fHvXImf5WULuMHf9rPcLCk/RwW5NGHj72zl52RadRJ//B1c/c3XXIlzzV1De/PMqh0g0OhoTWqYfAlddWDvw9Sqddu9mX/7/NyfevxBHVpnmbNg9vkv7V7Q4wA5N1ZenRuuiLgGiqrdUDG1GiospraiomIVHROtyEj+RCoiImK3c6Vyc3PFHxKMqUzCg8ff2dlZ9nO6tObm5CgPgJCdoeysNGVnpiknI1XZGSnKzkhVTmaK8rKSFRlSoKhQf5lzZKjzPLhVvXscqFaAABpfkRql2Fb91PPgQapTt565sR3VXA48+tC/dXijdTV3gm5mjgOVwAFatm/J8Gllok+htVuqRdtOatC4lWLiAQXR1pqdFu01gQAS5BDlZOcom39nZxuAyM1OV9K2zUpK3KykLRuVvG2jspI3Kj48X7WjpPhwf1M1R44D5eVAtQEE4nULk6JVr+NQHdL/MNtwjmo+B5555nH1j5mvXTy2oua/oJvhfs0BEnE3pfm0JClS9Vt1Vc8+A1Q3oaHCw8MUEhK61xkweXm5ysvLE+fFEM7Izs7UxvVrtXLFEq1ZtVxpW1YrPiRTDWPzlRDtPAz79eIvx8tXC0BgE/6xPkLNDxquoUOH1bgzEuCTl5RXDp6VeQlj4SLkLIjK8JBU9nhlvkDABV988akiVo+3/gmOHAf2FQ7gMUjO8mlhUozimnXXoMFHKCEhoVL2a03mEeGKlSuXa/78eVq6eL7CMtapaVyeGkRzKq3/JFrn1K3JX7B651blACErV5qXGKPWvY/VgAEDq/ztUKbr1q3T+vXrC5/FOQ316tVT48bFV0ls2LBBa9asUZcuXSrFjbh161Z99tlnOvLII0t8ZkUYsWrVKn333Xc66qij1KBBg4rcutvXrl27Rl+9+ZB6NcpyeQi7zU03wJ7mAMZKeg5dWmOUHtNO/QcerhYtWu3zwKAkvm/evFkLF87XiiXzlZ+6TrWDUxQTlKbwoDwLR7jqiT29Yvfs86sUIGTkSMvT49Ss+9HqN+CwanlTEnxuv/12vfHGG2rTpo09k3bE/PvZZ59Vo0aNdprHhx9+qLFjx+qxxx5TnTp1dnueCxYs0HHHHaennnpKRxxxxG6P9/PPP+uqq66y8fr377/b41V0gI/efUVx235Tw1jnRago79z1NYcD5EBtyghVSkRrtezUVwf16KnQ0NKrDmrO7Kt2Jng8t23bqqVLl2jN8kUKyliv0KyNCstLUVx4gcJC3NHzVfsFauboVQYQOJJ5RWqMGhw4TH37D64Uy7w8LExPTzdlihV/11132S0o7FNOOUXvvPOOjj76aP3000+WfbxkyRIdeuih5nFACf/rX//SlClT7Ahmxpk/f75atGihY445xjwQ9ATAkufnDRs2VMeOHbV69WoNHjzYjpn2iOeNHDlSV1xxhYUZOOa5R48eBhbISp4xY4YmTZpkz2jSpIlOPPFExcfH2+/mzp2riRMnKiUlRR06dDCvAdd7AKFPnz76/PPP7bCqygAf5eHp2jWrNHnc22qQv0K1Ix1IKA/P3DU1iwOcBrs+O15RTXuqe5+BatCgYc2aYA2aDWABD+ya1cuVuH650jYtUVDGRiVE+g+Cc7T/cKBKAAIJiatSIxTd5jD1PfQIRUdHVxtHPYDAA19++WXLBUDpAwTGjx+v1q1b68Ybb9SKFStUq1Yt/ec//9GECRNMYX/zzTcGEsaMGaMBAwZYuRHA4R//+IfOP/98s+DxNhxyyCF2L78jpvfII48IxR0IEHr37q1evXqpXbt2BiJWrlypBx98UAMHDrQxeB7hEOZ22mmn6c4779T06dP173//20AF48+ZM0cPP/ywgSsAwqOPPmrz5mdcD7CoDiLpaf5ff2rulC/UKGid4iMcSKgOvrtnVA4HUrJ8WpWdoFbdB6tz196KiYmpnIH38VGQT+npadZldf2apVq9aJayNi9Ry9oc/uZkwD7++e31Kh0gsGw2pgUprXZPDTrieNWuBJd9RT6EBxA+/fRTNW/e3JQwHgEs/q+//tqQMcqWGmZCEV27dtUdd9xhinry5Mm6+eabNXXqVD399NN2zwUXXGDX3n333br88svNM3DWWWdZzPKtt97S66+/vpPrHw8CoYCbbrpJ55xzjpUkXXjhhXbPl19+qaSkJGVnZxsQABAASBYvXmwAAG8Bng+eTXyQvAm8CpdddpmN+euvv+qMM87QJZdcUq3Ai3dYOH+OZkz6Qs1D1qmW8yRUZFm6a/cQB9JypIWpDdRryGi1a99RYWG7bwJPmzZNTz75pMmDfv362b5OTk7W9ddfb7KlW7du5XpbjAvCmsgkDJO6desW3ofX8bXXXrM9ft5552nmzJl6++239d///teu4R7kBgYHuVNVTez/1NQUbVi7StOn/ajszQvVtk6e4lxX/Kpm/R4dv9IBAnkHi3NaauDRp6tZs+bV/nIeQFi7dq15CiBCCLfeequOP/54XXrppbaJUfQoXaxzFHkgQMBKByAQVrjyyivNAwBw4N9sUEIKCAVCAdddd12xAIEcBITIsGHDbA4PPPCAAQDCGmx8BANzJdTB8wADzKtp06bmaQisfsBTMWjQIPsZORSAjOoQCkU/HmBr2bIl+mbs+2obttoOenLkOFBTOUBL5G9XRuu4Uy5S+/YHVFoiIiE+ZMmoUaP0+OOPq1mzZrZ/e/bsabLg2GOPLRdL8FBinCxatEgvvPDCDmHKLVu2mDxgbOTBq6++qquvvtpCjxCAgf/fcMMN5X5euSZVxkXIANqxL1u6RJN+GKeotCVqXzfPOjs62vc4UKkAgQzhRSnxatlntHr3PniPcMsDCCDe5557zuaAixyEjkJ/7733bOPh1idsABUFCIQD2OgABK6ligBlz4YkiRHPA8qa8MQff/xRLEAgpMF1eBAIc/A3VsFDDz2kiy66yMALIIUxAA9sfH43b9483XfffQYENm3aZEJj1qxZljuBF4KwA6Dm/fffr1YPQuDHJJnp808/UlzaX2oWk2ktXx05DtQkDtAaefqmWho66lwdcECHSp0aFUpnnnmmgoODzfBARpAITZ4RcgPjYOnSpbavx40bZ/uVcOA111xjOUce4UUkXDh79mz973//2yH04RkMeEHxYiI/8FxgQJx00kl2LcAB7+Zhhx2mTz75xJ51yy23mEFEtROeSMAKVVxVQRkZGZo1a4bm/PqjmoatV72IbCcLqoLRe3DMSgUIq5J8ymkyWCNGjq6yRVkWr1i05AwQLqDMEGLzkl9w6qmn6uyzzzbUfcIJJ9i/ITYSOQEkIKLU8T6wcQEDgIfly5frgw8+sNJFBABEUiGKHzCBt4G8BI+wCHA9Er7o1KmTKKMkdHD//fdb4qHnhsQVybgAF+aIAEDg8FwAAv8H2ABUmDMeCAiggNsRl+aeIgDYTxO/0+ZFU9UoZJPiwt1Jj3vqW7jn7sgBvJgLU+uo1+GnqWOnyne/IwdQ/gcddJB++OEH+zfhPw8goLBJUN64caPtdbwBL774ouVBsZ+9HAiSkvEmEjbk94EUCBAwGPA44m3AIMFowJAAcCAHRo8ebcADrwJyhn4Ob775ppYtW2ZyD1lVlZSUlKifJ/+klNUzVU8bVCvceRSqkt/VOXalAYTULOKLPuQAACAASURBVGl2WlOdeu6Vio+vVZ3vsMOz2HQkI5J46BFufBQzbkFcZPzugAMOUPfu3e0SXPgLFy60zfbtt99acuLhhx9u7n8EABsdQEESIcqf2CGb7pdffjGLHoDglVQyHgIBCx/34J9//mnxyYMPPtgsC+798ccfDZCQiMh9f/31l21+lC7PYH7cQxiB6guez0anogHgwNjMEatiT1J+PsmLczX/j+8Vk7FYCZG57tCYPflB3LNl7dzTYtWsxwjrioiVX9kEQCDUCOAn14n9SqgB+YEBgfVOKBNAP2TIEMs3eumll8zAeOKJJ0wWQXg2v/jiCzNmMEhKAgh4Cki4xoOJIQF5lU14IpErEF4LxsKLCljAq4BsCcxtqGxeBI63dMkizZ0xVfmb56heSLJiwl1pZFXyuzrGrhSAQGhh5oZwHTziYnXs2Lk65l3tz0Cx01vh+++/NyXvP0wl2xIWAQ+VkfxU7S9VCQ9EyK1ds1rTp4xX2LbZahSd45qrVAJf3RAV5wByaE1qqMJbDtIhg46qshCcBxC8MCRgAIsf1z4/I8GYJGJABKXIAH88BR999JGFKjFOIH9OzzJT7BgkuwsQzj33XCuVxnuJ4UI4FcMHD2R1EaHS+XNnaMWcyaqVu1r1opxnsbp4XxXPqRSAsDbZp5yG/XXM8acpqKzz0KviLaphTDYzljwdF6mKwDLBldeyZcv9/lwJeLNhw3pNnPCp4tPmqnEM59w7chyoXg4kZvq0NbKj+h5+oho0aFRpSYlF3yIQIBBmwEqnVwpgGYBAQjEVDoQqvcRCPAhUHNx2222F8sLzdpLjhDeQfAKPAkMMeBCoYAB0MA4l1XgSCF8Q1jj99NOtpBpZRBgVoEDIgrwGAAggAc8CuQx4IvGMDh8+3LwfyDTmWJkEIFqzeqV+nzxeEcnz1DwupzKHd2NVIwd2GyDk5Euzt9XWkSdfqUaN/07AqcZ3cI+qARwAJNBI6tMP3lALLXAVDjXgm+xPU0AOrcqso+a9jrcOiT5fUJW9PkqWqgJKlOlzwtrHs0iekNftlMqke++910IIsbGxFiqkCiqwkyueSEIT5BMQegjMFaAUmgRmwpAkHmKYMAbKnjwpQAD9VwAChB5feeUVG+uZZ56xJmrkPxFmIK+KOeDB4Bqew3zIrQKsME8AT2UTPElNSdH4rz9Txoqp6tYwv7If4carBg7sNkBYmRik+E5Hqc+AYQoPd0Wx1fDNavQjUlKS9fxTD+uQ+htdjXSN/lL71uQSM4O1Iaa3Rp14RrV1bd23OFh1bzN+/DitmjlOPRpmK6TqcFvVvcB+PPJuAQQ6Js5PjFaHAaeoc5fu+20cfj9eP8W++vr16/TFu8+oS/xmRYU67jgOVC0HOJlxdlKC+h1zrlq39p+/4qhmcWDK5B+1bPp4tY5OVHSY659Ss75OybPZPYBQIK1L9ik1tLGadDhYrdp2VoOGDaskc3hvYaibp58DM6f/qgU/f6g2sSmuNtotiirlwKY0n1ISDtNxo0+usryDKn2B/WBw8hJmzfhVS/8Yp2ZhWxxI2Eu++W4BBO8dqTtemxqsoFptVKdFV3Xo1FX16pX/bHWSdThcqXbt2oXuQWJmJOPQR6C8ROkf45R0rHN5x9nd64p7H2qd6W/Qtm3b3R2+2Ptp1cz7c4BUVZR2VXTSmZkZmvzdl8pc9qOaxeW6M+YrykB3fbk4gC06eVWkRp93oxo1Kv4493IN5C6qcg5k0lhp+i9aO/sbNQ3fasdJO6rZHKgUgMArslFTs3zamh2p7Dpd1G/QkeXesLQyJuGHJB6vjznJP7QxJhu4vETdLyc2chjSnqTi3odMYw5w4p2qgkg+osyKfgpRUVFV8YgKjUmSEuWPv333vhJylrjDXSrEPXdxeTmwOd2n9dF9dNoZ5zrvQXmZtgev4/CnXyZ/r9TFP6h5TLorid6D36I8j640gOA9bHN6sDbH9dGxx59i5TTlIbJryaglS5fuhmTgku1Lp0DOPaBUh0ZDrVq1MiGAAubIZixmrgVUUPYDwPC6HXI91rRHKE/KkWhMRIMjxqJEif4FKDPGpBSIDGC6opE9DNGZkcZGtEmmWyJdFTkCmiZIeCu4h4NTADT8nncu7n3INmZc7uMwJ+btnXJJvTKZyPyfjGaaoNBilRMli2uTSvdGGjrhcaF0ikYoNIeipSv/5x7mBo8Yk7prnklNNu/B+LRspYkTB0ZRgx1YYlWeb1aea/Ck/PrLJG2d/YWaRjthUB6euWsqxoFfVwfp6LNvVeMmTSt2o7t6j3EgLS1VX3zynhLSZighKm+PzcM9uGwOVDpA+G1zXR118mUV2rCU7NBEhA5jtCgFKKCEaSmK8kXReG1MDzzwQLuOXgQoQkqFsJ7pisgph5x8OGLECPs3DYw8uueee6x3ObXCjMl9eBuoXwY40LMc5e6BDhQ6z+fndFpkPihTXPkc8kR7Zjqp0fgEJYxC5kAnLPji3gdgQgtoaqSpZ8ZjwlkMv/32mzU2oY86tc+UNKH4ASx0fuQQl0CiqQpz5hq6LQIkKLnyzoeg1Il6bA6SAWx4LaEZDxBFmRRAhp9zPz+jA9yzzz5b9mrZhSs2btygSePeU4Ocea6qYRf4524pmQM5edKM1Ba68MpbHJv2Mg4kJm7TK88/qsMablJI5Te73Mu4UXOnW6kAYX2KlNVsuEaOHFWhN8a6pV0oNcRYuRBNiPACcFYBNcYoV/qRc2gRNcFYvLQ05hhmyiupGSZvge5lHHJUlFDoNBn5+OOPC1uhYvUDGgASKHlaJs+fP996nPM8cgZoLkIHRU5lxJPAOQj0PudgJZQr9co8HwDy1VdfmQIu6X1oi8ohUddee615NwAD//znP+39uBdFjQcAkIT1D9DgiGo8Dx7R3IS5jR071uYHoAG8ME8IHuJFAYDQjx3vCjXPAA28Id5R1AAZgApj4cEAnFQWcdobXSYBYcmJW/TTj98oIXOuGsXkyVdZD3Hj7Pcc4OyX2E4jNXDI0aXyAvAOAGefAI4rK0eHdunsI2QKgH136ffff9fzzz9vcqo0Qu5hCGEU4fGsKqKvCcfZ42312jlX5rPmzvlTv3z1kno2zHahhspkbCWOVWkAgVKjiasiddrFt5pyrwiVplBRboF9xwEQKEkUMSCBA428DmYoutIAAr8HAECBCpWDTrDiyRGghTLKmQ3h9VDn+RywgjIm5MGhK3gP8CxwLQKH+eAFodVoae8DOMDi58hmgAhhETwPgAAOeeEPwIV5IHg43AWPikd4AlDqnAlBiITcBkAF7V49gMDhMTRzAdAAXgBO3INgKTq3oj3eK/LdAq8lSzklOVnJyYnauHaZNqxaqi0bVigke5tqRxaoTlSBlTw6gLCrHHb3FeXArA2hGnzydWravHWJzGEfsddoiT506FAD9t65KQB89jSeSDyShBVRuIFHrTMwIUhAhtdBldbFyAOAON0MOUAJWcEeINxHIyIIgExo0+u66oVcmROAHFmBJw+gj3fy3XfftfH4HV5TFDRzInTI+OxfznngfQjJIhswXLw5YxjxTt78ApnCM3kec/EOi+L/jMucuY/xeQfADnMilMl8kE3IYbou8izeA5mLBxL54uU8MV94xPszRnmA2Ifvva64rb+oUawrfayJO7zSAEJSpk/Lwnrp7HP8lmxFCKWFu51QAbF4CJCBxV0UILD48CLg2icEQAtSFjmWMwAAAUCL06JnI+BBKAkg4KnAuuAYZoQF3cV4BmACIMGYffv2tWOX6ZbG0a2cuoirHyXNqZF0K2MubLTyvA8hAebIXDnshc1FOIPNyLgQz8dj4eVD8DM2KcKKsAjeBUIe5DzgwfAAAgIE4cEBMAhD+IoXhENcKhsgZGVlas2a1dqwepkS1y9R8sZlCs9PVr0oKSasYI9aBv6z6/OVD3rdTkE+n0Ld4fUV2Z418tpcerCkN9bRp12lWrVKtt7Zj3jkWPfsN0A54B/lxaFnU6ZMMYXK2QXIAPY3ciWQvBNbAecobuQFwJzKJBQoexlDhfweQqF4CZFfGAIcvsZz8eQB9DFqyBdij+J95DpCiRgdGBgeQABYsG/xKpJDRN4UrZPxcuJ5fOuttyxHCQODsCXP9w5xIwRLy+XAo6V5Fr9HlhB+ZE7IUN4HGUOCN10XkRGcJUEYFVkbCBCQxxw+hYxGDuGhpMUzz8f7wZzgAc9AnuOtKeuMmg0b1umrd59S11pb5bZlzdtqlQYQ5mwIUs+RV+/S2evE1UHCbCKqFtgsLO7iAALoFeVNG1OQMN4E/gYgkDDIYsdKJw8Br4BHpQEENg4bD+8EiHjJkiXiiFUEB9Y9i5/5EO9nEyMAAAhsFnIiAA9sLsIEuPHLeh+EFqERNjzvyIYHzdM6FbclHgE2KsmZgA4sCI/wKhBeoPyTeQIQEER33nlnIUBgfEIXCEXcg6B6whgeeAkM5+yOB2HliuWaPWOK8rYtU0jmRsWGZFu1QtAecBNYa9f0HG3elq4tielKTstWWnqOcnLzzAIMBAhhYcGKiQ5TXHS4asdFKKF2lKIiw1wpZs2TTyXOCIMktU4vDRx+iqKjY0q8jhwfZAJ7jL2FhYyHDQsZ5Ufo4eKLL7Z9i2sfz+CZZ565w3gAA7wFWMUYDxgaAAmsacYAMKA0seC5jhAkyhsQgfzAS8D4AAEAA4CCxGA8hQAU9jnyBi+kBxBKAvLsZfYsnlK8hoyJ/OP5yCNClyh7FDQhSs9rgXzB0GFc7mXuyC7AE8/E20huFp4MDAtkGmHKQIDgAQ9kKcYLv0MWYticfPLJlt+FbMarylgYLd7BVCV9IL7HpO/GKnPxBDWNd16EmrYFKw0gTF4bq4uu/88utTlFcaF46R3OYmNzkRvAou/Zs6dtPCx0Fi1Kmg0we/ZstW7d2ix+NghWN4uNXuRsBtA693oEwiYkQGUENGbMGHONAQpwM6JAp06dau5FUDFeAfIS2MAQLjpccB5oYfOxqTgOGhcdVRdsPjZPWe/DeAgKAAXJlChxlBibitAA1gwbG2ROSINN6xEeBzwHJCByDfOELwgm730YC+uGd+EPIINNS9UCvMSViRUBL/FEAJAQBhWl7775SmkLvlLD6Fyrad4DuMA8BEtXb9PC5Vu1fnOq0jNylJmdq+ycPOVgZhZDPp8UGhKssNBghYcFKzI8VHXiI9SySS21alpLdeL/PjSnojxx11cPB9am+BTX4Wj1GjBMYWElt3gnz2bDhg1m3bLfAAcAc2QDCg6A7ZVFE4LgD/lMgcR+Amiwv3Gtcz/7kpAkY7CfMEbY9xzxjGxC8aLA8Uog0zBY2G8Ad/YuSh4DBK8kBg2K1gMchBhK8/Qhx3iud+4DRgN5VCh+rH5kAZ4JZCjeAIh3QG7wbsgoZA1eAmQN88JLgiHE+yEbkXsYXOUBCDwDeQsIowcNMoU54KFAPpVGzGvl8qX65cv/6YC4xD1iXFTPit07n1IpAIEz2P/KOUBnX7TrNf4od0IFuKSwmFHa/I0rkEXE7/k3f3CLEd/z/s/vuRZlyH0scpRnYAyMnzGGh6h5ForXKyPk94zJWN69JEPiJkP584eFj/sRgcL/AQ08j+fyfObljV/a+7BUvPngsQiMeXr38TPGCgQH3hLjGubK77xrAt+HBCYAE8KJeSGQ8DBgKfF+XMvPuZ93YKxdKXOcPPFbJc8Zo6Zxewb5L1udqO+nLdPGLenmKcjjvN9iiLBCcEiwQnBt+HwqyC/Yfv3fAIJrQkKCFBEWrOaN4tXrwMZq1ihOIcGueXxNFG1LtvrU9tCz1Ll732L3CHPG8sdKZy/h9rak2eRk81Livkf5cZIiXkgIwwRFj6UdSChzPIxY/exbDBQsZq5lDJQpZcP8jmRggAhAgX1G+I9wApY9Ch0PBeFEvBUYIHgPCBNgqJBfUJYHARBSFCDgQTz//PNNQSM/eS5GA2MG7mvCAuQiwRPKpPEIMF/kBR5RZEn79u0t5Mm8yK0oD0DAMMFLw7XIM/jAzwANGHFlERUNUyd8oJikmYqP2DOypKw57q+/rxSAsDXDp/SEQ3X08afvc3wkFoiXgL/pgojlUJWZw5XBQEAArlDCHrg2Cdl07ty52J4Ku/O8X6ZM1NYZH6hpXPXWMmdm5eqHX5frl1lrSpw+SiEkONiUfnCAB8a7wUBnbq5ycvKsyVdR4v4WjeI0oGdz8ywAFPA8OKoZHJi/KUgHHXWp2nXsWuyE+L4oQyxZwpEeYRUDCADNJPqVByCcdNJJZpnjncTyRhnT5dUDCHg68UxgUOChJPxHnhLgG08FoQNACdY7YUEsfcbCA+GBCeZIbpEHEPBsIGv4P0dBE9IgtIFxACAhXwoPAaFZ3oH9DeggtIBix5AhhFCUKN8GHBEGhQeEBQhZEuJgXuRQ8CyMoKIAgVAK74QnAo8kcyNUiteF38Fv75hrwBlVFuWp7uCdpv/ynbbM+syFGWrG9iqcRaUAhHUpQYrueKwGDB5ew17PTacqOQBA2DbzIzWJrZ7z3kkl2JqUoW+nLNWC5Vt28higwM0rFBSsoCB/eMXIHAe+nUIg+fkFysrJUR6njpVCbZvXVt9uTdWkfqyiIt3pU1W5pso79uLkGHUbdqHatOtQ7C149gjR0XgNd79HhOhw56PIUNwoMq/XCF4BFD8KMpDwAqBYiafjJUS5EqJDweOZI0SIdxEwjsIlx4Dn48rHS4DngmRhAIJXEo1S5ncoXHIeCEdgiFA2iasfsMDYWPNY47juAQ2EHjzAQbgQrwE5D4Q98HQQ7mRMkrvxIBT1QFL9RJgUwEOSIUSYgefieSDsAdDBy0FYFwBAIjbeR/iAB4R3IIeD55D0CYCip4wX0uDd4SOAwQtxlPVdZ/85XUsnv6lWsRllXbrP/R65lpGZreycXOHJjIgIVVhozehDXSkAYX1qiGI6Hat+g4btcx/PvVDJHKgMgMDmyMrOFV4Br9oAZU5+QGR4iCl6j5JSMvX9tOWas2iTcstQ6h44ACPwb7wIeBQCx2Ncno0noSyKCAtRl/b11e2ABmqYEKNQd25tWSyr0t8vSa2lbkecr9Zt25f4nIkTJ5pF7JUdehdiGaPIUYgk/XkdV8nRQaEVrWJAEZIrgNudDqgQoUmUKcoaVz2l0IQvsNrplgrhdSSvinAengTPmgZkcD1gBa8kwIPxyJ3Cqke5QuQ88VzCI4Qw8D4Q8vRACl1d8RwAHljjKHpyCQgT4NovLjzJuzAnchS8eeJtARRwv/f+eCWYM55IAIEXQoF3gBfek0RqEjAJjUAAJ4ASIIXfF+V7aQtiwYL5Wjz5HTUJ3bhX5SHAu7SMbGVn56p2fFSF231nZuVo4bINWrhsvbYmpZunsknD2jqwXWP7e0+TAwh7+gvsxc/3A4QP1CS24iGG9Mwcrd2YovWb0rQtOUOpGTnCoofABOHhIVZlUK92pBrWixEKesb89fpl5hpLQtwVYvOFh/lzVTwidwHkHljpUNLYgIsGdaN1UMeGBhaiIpw3YVe+Q2Xcs3g7QGhTCkCojOe4MaqHA8uXL9P8n95VQv7KGl3uCBBYvX6b8vLzLdF57YZELVu9WekZ2TpmcFc1buBv0V8S5ebmad2mJG3ckqw68dGas3CNfp6+RCmpmYW3IGfaNK+vE4/qqaZ7GCRUEkAIUkT7ERo4tPSOZtWz1NxTqosDJCmmzBmjJhVIUgQELF65TbPmr9e6zalKTs0qsdoAdxsu/fjYcNuMlDCmpmeX+HqkE8aFBKleSLDiQ4IVExSkyCCfIoIJL/hBQX6QT9nyKSO/QClUpuTkal16lrJKSHAs7mHRUaE6oEVdHXZwS8XHlJxBX13fYX98zuKUOHUbdoHatD1gf3z9fe6dV61aqbkT31PdnKU16pRHjIdVa7cqNSNbcdERmjpziZav3mLhleDgICVh3KT7k9uPGnigRgztVuy3SUxOF3/mLFyrvxavVVJKhmKiwrVpa4p5MYujdi3r68qzh5jnc09RpQCEbRlSSr1DNWL0GXvqPcp8LiWJuAeJne1p8o6DpjyT+CL/J1FnVyoJ9uS7TBj3mYJXfK2E6PJnHv/0+0r9OnuN0gI8BrvzDtFBQeocFab2kWFqHh6quOAghQX5FEJYYbs3Iigg+4CZknHAnzwSFQsKlJmXrw05eVqGuy89SysJeZQBGBAOjepFa+TgA9SwXvTuvIK7dxc4sDAxSt2PvEht2/99INsuDONuqSEcWLZsieb/9J4aaJVqSvRu4+ZkjZkwXWvW+T0GISHBSk7NsNLq4qhPt1Y6Z/TfvXfIK8DDEBoaomkzl2rW/NVKz8gqERAUHRMD6drzDlebFjs27qrOT1YpACE/X5q8KUGXXXdXudprVucLes8ixkf2bmDCUlXPg65iJBFR10wSkdfilDppEqGuvvpqK0ekDSzJUiQpBRJ92UkeIvOauGJNo08+fFv1EicpvnyHduqn31fo+2kryuXOL+1dQ30+dY0O12FxUeoQGaZgEhL9uYi7TB7EISciJS9ff6ZnakpqppZk5ii3oKAw/FH0AXEx4TrhiA5W6eCo+jiwYJNPXY+8RAd07l59D3VPqjIOLJg/T4snv60mYZtrRA4CLv/7n//KLP3y0lmjDlHfg1pbyHLmX6v09U9zzEMAYVBQMVVRatKwltq3aqgWjeuqTfOEXcpzqOgzA6+vFIDAgEu3+pRb/2ANGTZCYeHhBhRIkvH/8f+7aI/z3Zl4Re/l2XQIozYXi93ru868SFYiI5i/seLxMlBPTNIQiUf8zOuzToYuSTqMgcLn2uKOZGZ+1BpTX0yiERnBlCRBgWdL0NWQBk0kA9EeNZBo7uL1ei9PPXFFebK717/6v6fUJXSuwsrhAVu8cqveH/eXNTAqjoomFaLsUdr0LMB9h0egbkiwuseEa1BclBqGhRQLCPxeAZlSzyuQKGIMaKRojyYFIZgyyO1/h8qn4BLQxcbcPP2anq0ZGdnalpundBow5fnbN3t5C3XjI3X0oLZq1bS2gRVHVc+BFdt8atLnZHXtdWill+9W/ezdE4py4M8Zv2nZlLfVKu7vWHx1cSk9M1skC2KxL1m5SWvWb9OKtVs0f8n6Ck2BkECjhHgtXrnJPAeVSbExETptRB917djM5B5ggzBHUHCQhV+riioNIDBBNu2m3DjVSmiimNhaCo+MVkRklKJj4hUeGaPg0DAFBYcqOCTUMntRrCEhoQoL4094lW50FBAdzWAqpT4oa+qgyeblnAL+UI5EZjJNP+gARlkPXgfqnQkFUBpFfTCWPtfSfhkFToOVohnDNDSh4QqZvTQoATBRfw3wKAoQ8BQABvAUBBL1xnRaJHs58DyGqloMFR336Uf+rYH115V5GxUKH034y3IPApW1lSX6ggxdwz/zBPh8pnz5TjQ+8uUXqEFIsLpEhal/XKQaFwEGgIiM/Hwl5uYrKTdPG3PytD4nVxuy85SUl2fegKLhgvAgn4Ui6oaFqn54iBqFhqhuSJBig/jjE2GLooAhJa9AMzKzNCsjR6tz8pSc4+/WiOsRalQvRof3a6VWTTikxoGEMhfFbl6wKc2nkJZDdPBhIwubk1V0SAAeRgBrriIZ9xV9Tk29nrJMvJzFHa6HAYTMqg6jDsNs+tTvtHX259XeB2FLYqq++mG2/lqyVpHhYWb9b0tKr3GfrEWTujrlmN5q3qSu1m7YpjkL1iotI0u146J0QOuGqls7xiopvOTJqKjw3fKoegyoVIDAoCiAzFwpK88nOixiMJKDkYXhGBymkLAo+xMcFml/QiOilBNSWz379FNCQtXFWljo9AmnrSmNRqjbpQUxXgA6pGHpc1ASQIFaY0IC1EdzPgJ1ytRT03EM0ACwoEvhs88+a+EDWooWrffFa0B4AY8FZVOEEWiJyjkLRQFC0XMivI/jtZ6mdKmmEZv6+Qdv1GEts8qc2vxlW/TVT4uUlPL3tdZ9ku6GIcGG3L21Yx0m8/zoGIXdPTrCgEG7yDAF9jRELa/LztXyzBytyMrR8qwcrc3KVVp+frGNj4qbpJU/gsCDgxUZHKSGoYCFIDUJDbY/jUP9iY6eugeMbMvL1+yMHM3KzNaizBxlZOcUlly2aByvYf1aq0mD2GoRrGUyfh++ID1HWhfSUUNHnbfLjcsA8cgBGp8FnphalWyj9JG27hgoeB8pC0QZ02uguokmTTQ8oslTUaKRE42OkInIPTyolFQGngvDPcgy2lAjH70ushV9D3ouTJ3wnuJS/lRcePnzmSr6nKLXUyr9+pgpmj53xe4OVeX3U/FAVUNkZJg+/2amVU5AVDy0bVFfrZrWU3JqpnJycoW3oXfXVgJU7C5VOkAoz4QoYSfPgz8p2UFa4TtAp55xfpWieJQBncKI/VMfjeX/3HPP2eInF4BmHzQuwVqnvpgT1wALHJXM+Qi0J+Ue2qbS4QzvB9cRcgAosHk8wrsAkMAzQBc0aohpTsIZD5x7QA4CY/EzQgwlAQSAAQ1ZOLehOignJ9sAXlknsDEXso6/eesB9WpaepMhNuGEn5fq97nrChsSoXABBjQD8SwUnmudDXPzDGW2DA/V4FpR6hkdoeiAdseEDpakZ+qPlAytyM3X2my/l2B3iE2GJ8OaK8mn0CCpLkmIIUFqGxGmblFhSghoXGLgJCdPszOyNTE1Uxszsg25A3QOaFVXRw9sK3ITHFUdB1gvs7bE6egz/6F6Cf46/IoS4J59yFkENPmpDqLXAk2HeB7dB2lEhPJFNlU3lSR3mAdyEjlHjhTNkTjPguuLejIBEoRuae5E/4NdoZUrlurnz19Qh/ikEkN9uzJuWffQf+CZN78vs6dKWeNUx++RLa2bJ1gohPBF4Am12FeBnlmMnh6dm+vE4b0UE717cmiPAIRAhs7dEKT2g89Tz569q5TPKCIsfQRCYC9zGoKwlWM2swAAIABJREFUYelC5jVIQUGC6EHWHMQCysfdRncyvA94ELwz0GkUAngAXHhEO1bP40ATE1A3YQaOXCUXgcYj5QEIWOm0S/aOwK5KBqWlpWr811+qdZt26t69R5mPmjr1Z2387S21ql064t+4NU1f/rhIy9cmFY7JYqcfAQvZI68fQZAK1C0qXEfXiTGQQO4BxFPWZ+Xo682J+iMpVRuyc5XvC1JkeHillgEVulS37zjAieU+RIdrQFzkDkAhm5bW2bn6KjFdM5PTbY70WujTtbGO7N+mTB66C3aPAws3B6nj0AvUuevfh7KVNiJeKfKCOLuAJkScV0BzIPYvCpv9ScdELHz2N50VCUuSg8T+RRFiMZMwzDHMNBLC+icMScdDwpN0aRw+fLjJGjwThBgB+LQ7pz0yxgPy5vHHH7dGSngnmRdeTA5yCjQ0aEpEWJLwBzKL8ejSSGMlvB+cCfHBBx9YsyK8lbR4hjB6eA9CqbRBxmuK/KIpFNd//vnn1kiJEAvGDyczFiVaNtMJkXcnsRs5yXMBBF26dCm8HF5yxgRyqjxtlYs+B/79MmmCEueO/T977wEmR3VmDZ/qrs55cg7KOQtJgBAIARKYYATYYHuNjY293t+7jpvtdVh/68/24n+Ds70GYxaTk0kCEYQkJCGhLI3SjCbnnumcu77n3O6e2DPTE4SE1Pd55lGYqlu33qq699z3Pe95UWGbHNAf7dm3d7nFt+mwmVBzplWQ/Ugi3Hv4wvcepO5rKBAY7X7zcyzC47BgVumkPrLzChCYSbalwYGv/O13M9q1TuZORwIIVPwiGODunh8uAQA/YiJofvjUP099QPyYuLCzchrDFSwVy4+bu4CBREW67vghE2AMdB1S+pS7BsqqZgIQSF5kiIMf+7lMz/R43HjkwV/BEW2ArngR1t94F6xW26jmfvTRP6Lavx1G7ehP5cipDryy/Qw8vn79Au7U9Vptn6ohJyqm/xAMXG7R46O5FqFjkHLtk2y4xxPA010uNHh8CAxQPiTY0Go00Ot0faGKybwnI53LzAkChWtsRqy1GWBM1ncQYYdoDC/1ePGWy4+okgAJ99y0ANMrzr8S2rmwxYXSpysIdFlX46MfuzejIbHcM2slUPmPizgXdS5sLJZEGWT+yX+z1gKVBQkmWK6Z5GGWbibw52LJY7ijJseICycrRnKXzd9zwWOVRHoOySkiKGCcnws9Nxb0JnLOYIiBHgwex/atb31LlLvnYp9qXMgJIMiH4uLPeYCghtUW+UMQQpllVm4lCOEunu569kVAwDmN4+J1yaviZoc1F9gfvzl6R7mBSQcQCEbYP6tQ0mb0lnJ+5PVSmyOOk/fFfh566KFBY8/ogQDwuN149Dc/xIo85zlLb9x9oA5PvboPRr0WxQU2IXSk08pw9voyTjnM9H4ulOMYvt24bj42XtUP5iYytvMKENo9gL/0Btx660cnMvZxncOFmgVR6DKjnCk/HL74jLORc0C0zA+MKJka6OQKsAQ1AUKq2hsvyMWf/VBileRFInfKnw5sqQppXNwHxuxS/dFVx+pwnHiuvvpqcY2h12F/BCAEKpyoWD1yqhvj/Q0NdXj+iT9gka0Tdr2CBr8FJcs3Y8XKVSPG0Tm5/MePv4P1xe2jDonhhXf2NuDt9+oH8QIIEIQHIbnIshYCvSUbGGfLs4CLMRsXX3c0hse6PNjpCYgQhC8YFBPs0Ma+CBK0cn/YYqrtxf44Mmou3JlrQZW+38NB4aVXe3x4rdcneBAUUPqre1aKctLZdu4s8Fa9Hvd/44cZxb+5oPP7JfeIBGOCAIbw1q9fL0A/vX6pqo30JhA0MP2Yu2nOFTyXEs0ME/AbJhCgN5CLL8OF5DGQi0QPJPslv4nkY4IJgg5uRgaGMihVzI0CGz2YQxsLTbEMO3ftnGPoYeBxnL+4AaHXkvMDx0q5aHoU6G34/ve/L4BN6hzOa5xLyLPimDh2AhGOkeAgHUBg3wQI9913n+iL4U56CuglGdjIYSA4+OlPfzpuLgjnka1b/gz/iZdQNYYncqJvEEN/u/bX4n+f3z3RLj6051135Tzcdt3kuC3nFSAcaFXhyju+kVFJ0A/tU7oAB84F1u1y4dihvTj5/huYZe2BOekJ6AlI8FgXYfWGO5CXl5929A0N9Xjjif/AsoLR2b497iBe2X4aNbXdg/qhN4cIPqUQponHcblBg825lj4vADMPTgRCeLTTjbZkamQoHBYAYbRGT46eGTJkYA8gGE71YzCqJNzoMONyqwGOpLcjHFfwussngIIrFsc1l1Vi3crKLGFxqo0/oL+zPRIMc27BdddvGvMq3ElzMSQ3iMx9pjZzh89NAYE6F3wKqhEEEDxzx86iStwsEOxzt50SM+NCy80BNwkMF5CATD7SvffeKzyE9Diw1gEX1ZG4DpkABHIT2Ac3OAQ4/DfJyymyNYFOqqw9wQfTspn5RE9Fquosa0UQNHz1q18VXgqOm+cQcHDzMxmAwPArwQdtN9CzMObDEOW4G/HcHx7AFWWBc6J9QIXCPQfr8Nr2o+ju9WUypIvmGM6v16yeg1VLqgU/Qa+jIq1h3Pd3XgHC9iYD7v/mj89peuO4LXKRn0B3Z33dadQe3YNo5zGUmYODpE0Z9ql1G1B52WYsXrY67bN5/fVXgDMvosA4ehXH+hYXnnm9BgQKA9tAgMCF9iqjFjdaDX3ggIvru24/Xu31oSepWibCECGqkCVCFaKgkywjyoyHAZoEqesQIDD0wD/pXThX6VpLTXpscpgwXa8R2grUYeC4X3B6YbIacPdN85HnMF7kb9X5uz2+Hjs68vDpL3xzzLAY4+UEB9ztc8Eln4B/J9eA7nNmGtGbwAWWrnru3Om5Y+lmegC426c3gamR5DDQ7U/9EvIBSN6jq53eBV6DHodMAAIXegKVBx54QAAQeiRSjR6EdACBvAbyIfgnx0+PBbOmOE7yFiiuxr8zlMDFnyCCPwQYXNA5Ni7mvB9quowFEAgoGMKg55Qe14FeUd4/OQ/kUGRCbk7dm9vtwrOPP4jKeA0chnOTuXCophGPv7T3gkxbPNdfDEMMeQ6zKHpH3ZaifBvu2LgMNsv45qLzBhD4SuzuKcP9f/3P59pW2f7pqne7cOrUSXQ01CDUUQOr4oTDqKRlDXf5JbSqZ+Ajd35uWFyRfIUXHv8dZqlPQqse+cNm2GDfsTa8vO30IMYtH0aCg6CBQa3GWpMW11sY00+EFZzRmHDT73AH4B6QnUBXodfv79MdIDgwp2SqmRoZTeQADyy6xB65UyJI0FBz4xzkdfMaFToZmxxmLDProZUk0JNAkPCyx4/VS8tx1Qp6EbKv4bmyQH2vBD29CNeN7kVgHJ2LJF3uXDCZlscwA0EB4/bMMKLXILUTJu+HGU6sCEnXPsMFXPTJMyBRkZ6C3bt3i/O4sHP3TpIhXfLkKrDEM0MEBBsMCdBrQfd+qjF74be//a1w5ZNMyIV7oCAad+bMkKJngGCEqdccP8ObXLDJkSI4IfjlmJk5xQ0AXf4poiWJiamMBHKayIsiwCEYoQ4CK0ryHoY23idBC7O72B//zrLWvCZTvFONXAhel+miA/kToz1relrefuMVhGq3osp27krFv7D1ILa+e3xCCobn6l0d2m80rgi9Fw21YM7hHKHRqPH1+65HefH4Sg2cN4BAbYST0kLcc29/rfYP6qFcKtch2bK5uRGnT52At6MW2kAzjIoLNh1fyOFW4HLfG5DQGnageO6VWHXF+mGx3T17dqF9/zMoN7hGfaFZa+GFN0/ieG0iX3dgI7o1aDVYbtDiZqsBOUnxdaYrPt3twW5PEP4hPINwJAJvoF/2lOCAIEErSyiwadDcHUSQKofJuhYDoQu/u4QQk0rsfqh7kK4U7kTfC/afr1ELkLDGYoBeJQlxJt7LGYsWH90wBxbTGGzOiV48ex6IIw97S3HdRz+L4pKRWdsEjyQVMobPRYqLoAhJ6fViwScPhinI5B1wwWcpZoYbeAyPp2uffAL+jmEJpkcyTMAdNP+f/XAhZ7/0TpAPwD4IBLio890bKJnO8TD8wF0/z6VXY+Aiy8wJxv4ZImBIg+NiZgLTD9kny0+fPn1avAEEJqmFm14Begro5SAoIcBh/5wPeDw9D/R4ECQRIFDobWgj74nZCiR0coy0C++Vxw4cI+3J1HDqJQzVSEj3ahJc7d61A22HXkK1yXVOiIncKHQ5vfjzG4dwsKaxL736fHwqBAB08XPx589QT6Y3HIc3FBMicZwGdbIKOjXL008tWqAn4f6Pr8PcGePjsp03gBCMAPXaZbjzk/efj+d2UV+ztbUF7+7Yht72s7BKLuRq/dCrwtCrFQzILBxkA4YWGlxquHXTsGrdRlRUzRjk7uTBnZ0d2LHlCeQGjsKmGz0lqandg4eePThMWplZB3qdVrjk77QZUD5AGfGRTjfedvnB9MGBTdRcDwZBkMBGT4DZYBCLvN0k4+61hWjoCuLdGhe6PSwbHRfHhpNehYF98QPlGNiHTsNUy6lTi7OpVbg91yJ4CSRadkSieDoYwrQVFZhdNbEc8Yv6RZ3Cm+v0a+AruAI33rxZqLNm24VnAYKDA/v3onbvi6jUd8EgT31ogTLJb+6qwen6DiEcNFKlxHNpHYKCQCSOYERBZEDRN3oRRc0YCdDLKpi1Knip+BpMzKViIyPmJ8CgkWDSUsRtoDzcxEfNay5fUIXP3HHFuDrJAoRxmevCP5jkqn//17/D6hIfbPrEBzgWFo1Egd2tWpQtuBobNmxMSzbi7mPbW1vgP7UFVdbImC7zp147jkMnOgYZjC8p5UztsozbbAZcNiBHkjF77rjTTRlc8F0+X1/4wKjXizRJtulFBty7PoGKPYEY3jnWgz2nPMJtR2BBjkIwHBZ/Dgw/pAZGrwK5CjqmXU5BHIAhhi8V24UCJO/laCiMUxV2LFtSduG/PB/iEZLHWh/MxbTVmzPS8fgQ3+qHcuj8ho8cPoQ9rz+KuTY3LFOsmEivAT0GW3ceP28eg3A0DncoLsBBJtAn4VGA8ICN1HKNapimKBPqLz9x9bh1Ec4bQKBR3vdNw31f+tsP5Qt/oQ66ubkJWx7+AZaXjv6K8recVDuDWtSHirB+02bMmjV72G1xUWVc8+D7u9B08FXMsHpHLc7EzT8LMz3y5yODFmQuxLqk8BGBwcftRqF7wG9jnzeAn7WOXNwkEAqBP2zsx2Qw9GVA3LYqD8unWweNu8cXwe4Tbhxv8sMXioEfrkiljEbFT5xgQciCD7ZRitjIEEQqA2Ii5EaTSsLXS3NRrdcIlcf6QjP0C4uhnaIP/UJ99873uJiB06Wfg8s33IGi4pJzRkw93/f5Ybs+QzfHjhzAgW1PY7bVBZMmk+Uz87sMhMJ48qV92HWgNvOT0hyZ8G5qYDJoUZRrxdzqIlSX5iPPZoLNbBA6Cr5gCIFgFO09bpxt6cbJ+nY0tveiyelHlyc45aqMskpCgVkG/5xsI/+AIGE82QznDSDwZre3OfDFr/9gSuPBkzXih/387u4uPPXLb2F1xSgEwjjgCqvRFc+DqXQxrlx33TCZay6eDFW4e52oq3kfrvp9mO4IQzdGWn9LpwePv3ysL3MhVe9Ay5oLKhXyZRW+mGsWBZjY6oIR/LKtB+0jVHnkOOg9SGkf0HNA9UT2azfK+NKNZTBoh7vhuPb3+iICJJxpC6DLE4HbF4UgBSXrPYgMiHg88TMALIgxq1QChPBHVCSVEoWkMgUMBRoZXylxiOJSPXY9eucWQGXNsC72h/0lPE/j5yNs8qihLr8Sl6+7EdYBokPnaUiX9GX57XI+OnrwPdTtfxXzckPQy1Nvkrf3nAAJiQHGrSfQ+G2z6NH0snwsm1OBFfMrUVGcm5FHMR5X0Nrlxu5jDdh55Cxq6jvQ0N6LIEl2U9DoYWAowqBRCZAgpikJ0EwAMLCo0+aNy1FamHlp+vMKEA61qTHzyruxcPFSGI39UsVTYNdLtguSl37+w6/jmqp+5cKBxmAhrbaAAVLOHMxYdDlmzJwNjWY4gY6L5ptvbsXud17DkjwPSqzKmCzbpjY3Xn+3DnXNCW9AqiATSYlicQVwl92ItUl9cFc0jke73HjPGxClmdM1hgf8Se0DLtoMLzAjgX3dvDIPK2cO9h6k68MfiqGpO4SmriCanWF0uMJw+5n1oAhgQKBA0EA3ZQosDPQu8LopkmPfn4wVjpE+udKsx18U2GA0aNAzJx++IkvCp5ht58wCTHus9xhgn7Uel6+7DjpdFpSdM2OP0jEJjbVnTuHMkZ2ItB3GtJz4OSEkcggPP/uu0DvgYj3exnowqxdW4/JF07FsXgVyrBNfhziPHDrThm37z+DtA7U42diVqC0zBU2jJokxUemWM2meSR5zPh562W9+/gZUlQ0WuhpraOcVIPjCElqCRmiLl2PpZWtRWlqW8Q5trBv7MP6eixNrIjBdKlU4iffBhYjKZmRFsyz2WLvY//zRt3B1cWdaE5ztVaNNqsLqq65DVVW16I+s7KF9ip27qxeHDuxD0/vPYX5+ZEQuQyymoK65B9v3NaKh1ZUo0wxAo5FFxcZU3+WyCn9TYIVelHQG3nb78Uy3Z1A648BB82Pw+Hx9qY0kFRIgsL8Shxaf2VACPSsrZdiIvp3eiCAyEiQQNDR3hwRY4Hj6AEI8jijLTSdBw6DUySTJUZAdk56FgR4G4WlICjQZ1Sp8NMeCDQ4TfOU29M7IQzwbZsjwaU38MFaObfSZYZ62Duuv25TVWZm4Kcd9JomILOR24sheBFoPw45u5BrOXY0FDvDtPSfxwtYD4/YgVBbn4NZ1S7BqYTUKc8feaGRqDBIjj9a1YQvHteMYOs+BSFOOUQ3zOOeSf/nrW1CQa8n0NsRx5xUgcABE/N1BDZzqclQtXIslS5ZeUqifoIAfVE3NMXS11kOOuKBTRSBL/chTkVQIx9QIKVpIegdy8otRUlou0qxstuHuot/+4v/HMmNNWsROUOaMGBFU2xGTNIhDhYiigTW/HAsXLUV19bRBYIFA5fnHH0Sudz9yjMMReiQaB+st7NjfiO7eQB+K5wJq0PcT/8gBuD/PjKXGhBBMcziK/+1045g/NCKhh96DQDAofs9F2EgpZWYeqCTcsSYfCyrN43rZBx4cjVF4KQZfKI5OVxgNnUGc7Qyi0xXpE15KCTARKBAwcPIjiBjaUt4RegcSLGVJZEgwHEIewqfybSjNN6NrcTEi2XTHCT+z8ZzIUvP1HiPUZWuwcdPNGUkxj6f/7LHDLXDmzGkcObgX4c4a5KqcsGjGDklOhR39gTDe3X8GL7xxMCPNAzrx6DW4e+MqzKosFLVTprpxM+L2BbC3pgkP/GkbTiXLM0/VdehNsOlVMGr7a9aM1ffffWETKko+JDoIA2+GC0AwIqHOrYeqYBHWXbsJBQWFY+6UxzLIhfx7ZgUcOnQAe3dtgznahlJTGFZtFBIU4YUe6ojmspSIP6ngi6jRGZDRHdRBtpdjztyFmDd/Aex2h7DZU489jELPDlhHqPTJ3TJ/2F9qyQ/GZJzxWFA4+wqsu/raPklZ2vDk8cN4/8WfY17hYIBAl97R0514cdspQdwZ2LiIG/T9A6iUVfirfKsQRKLaINMZGV6IjOAVFMJIgYDYxbMRGDC1kW1+uQkfWZkHs35q6hwI70FMEfwETyAqOAv8aewiOXIwoTEVkiBYEKGJNIBh4HjVUHBTjgU351vQfVkFQrasy/uD+i4Ztmr26uC2LMZNt9yeFkx/UGO5GK+T0HHoxPHjx3D4wB5You2otAZh0TCvf+zsqam0Ceu+vPjmQWx559io3TJcuGHVHHzqptXCazCWN3ayY6Q3taPbjb/7xUvYdaxhst0NnmMlwKpTwzLGPKhWS7hy+Uxs3rS8r/5NpgM57x6EoQPt9Ek43mPCvJXXYvWaq6DT6/u0xjO9qQv1OHoLAn4/ao4fwb6dr8Maa8WMnNioWQFj3QvdqS1uCY0eDcwFM7Bg8Qq0tTZB1/wmCi3ji8nRm1Pr0sExewOuWHdd367L2d2J5x/6IZblD9Yz73T68T9P74d/CDjgmIUHQadJxOkBbGYVRJNOKDd2RWJ4qMOFw/5EZkK6xqwFehA4CbEvCzMXZBlWgxq3ry7AtGLDmOmbY9lurN/z427rCaO+Myh+GI4IRshTIHeBIYlEKmWEHgYChhSHIR4X5EaL0SgEbRbYzPhkgQ2GVRXw55s/2JlzrJu8yH9PENzqkdCmno5119+Gisrqi2Y+OR+PjuqL+/ftRn3dGXS0noUu4kSZNS44Skm9s/MxLDQ0d+PHv311VB6CLKuxbtlM3H/7WuTaJ+59nMgNEsD8469exos7jgnp46lq1FNguGGkLAeq1t6xaQWuXD4D6gl4Si44gEDD0X4swtItFWDB8nWYNnMe7A6HiJd/GBsXD8bzmxtqcXTfNqjcdahyxKdcKIQVlVs8kgAMs/KAYsv4X0S6Zs94rJh31ccwf+ESqFRq9PQ48fKj/40FlpY+83NxfPLVYzh2ZrhSYuogqndx55+jVuH+XDPKNNxPA4d8QZHWOFQQKXUed+YURhrqPZDVEtbMtuKqeQ7o02QunOt3IxJT0OUOo7UnjLbeMNqcYfjDMYQiTKFUxJ8ECV5/wvNhNZsRDIVgM+jx6UI7Zq6dhmABiYrneqTZ/gdaIKUQ2hB0oHrROsyatwS5uXlZoDCB1+Thh34Lo3OfAARGzYXDuT12ugU/e/jNEe+IC+WahdPwVx+7BgU544vDT8BMaU9x+YL46Z+24ZltRxAITSzjYmDHnEaMWhXsetabGXlSMRl1+PsvbETOBEDRBQkQUkZgpkiDR0bcVIbi6YtRXD5DSKkaDOMrODFVD3i8/TCM0NHRjrbGWjSdPoBQ1ylU2uIwace3sx/vdXk8d7gTyIQRl6Lccpd+Ljbc9mlRAKe3twcvP/YzzDc29Q2lsdWN/3nmwKiIXWgfaDVYbdbhNqsBVrVKgII/dbrxhit9JUjuyFPeA16MpD+LySTihJX5ety4PBfFjg8eKHLx73InBKKo3mgQBCEFvf4out0ROL1R4WE40eJHR48XoUgEdotFAATaYX2eHeuunw1d0dSRoSbyXlzK54SiQJNbjbhtGkpnrUB55XTk5xeMq8jQxWA/fmOcmygfHQoFEQwEBLGWtkhVqxzpPv/vd76KTdP7Jc8vFHtseeconnv9wIjDmVddjK99agOqSsbH4p/q+2vudOGnj23Dq7tPIkSFukk0pjrmmtTQZuAZ+Mq912JmddG4r3ZBAwTeDZfSQAToDsiI6guhz5sGe9E0wcDnCz2Vmvrjtt4IJ7AYSn19HdobT8PfeRpxdxPy9JEpVw+bqvEO7Ydu2SOdWqy6+S8xY9Zc4UF46dH/xEJLW9+hz249gf3H+/+dbiwizKCRcVeuBVeadJAlwB2L4XsN3egaIf2HEsms2pjSPUipJpJvsGGxA0un9ZeEPlf3n67frYecON3KsrQSihxaLJtmQUkOsz/6j3b5o3hyZweONTAPOgwbPQjJ6pMlJiM2XTsbs2fmZ5Rf/UHe26V2LXcIaPfJ0OZUw5Q/HQWl1SgrrxQ1Bs51TPqDsjXJxUw19PsDCAR84u8MbwYDPkRDXsTDPsTCfigRP6IhHyJqK5ZeeRMqK6tGHeKPvvs1bJw2epn3kTrgvMJoZCBKppUKipLwoho0E9/M8FrdPV48+PRO1Dakz9zKd5jxj5/dhIUzz7+aqVBXrW3Dv/3hDew70TSskN143g+9nEp3HN0lSe/JP3zxRpSMQ/8gNY4LHiAMNBhfLm9YQkhlQVBbAJW5FOXVMzFt2nRBQDqfHzfROLMRUoWRDNEuGOK9MMkRGOQLxxWX6QvY5gFU0zZiw8bbQA7CCw/+EEsLEhyEcDiGnz36Hno9oT6OwEj9Fuo0+HSBDfP0CX38o/4QftLsHFFSmcREhhjYqHdA1UTqkS+dZsYNS3LPS2iBY/nXJ86KEAIb3XmlOTpsXpOPHEu/7j9DEH96px0H63qEF8RqMgkOAjkKJr0ei2YX4bZrZ4sSrNl2/i3AkJw3KiMsOxCUc6CxlqKkvAolJaVi85FJ8aEP+i5E2XMu9MGAqOSY+jtTo4MBP0JBP6JBLxDxQ6WEoEYU6ngQqngYaiUMKRZCPBaGWlKgUbFomyT+zgJtM9Z+AvPmLRj1lh748fexoah5XLctBKzcKjijRhjtpbDl5EOj1SMWi8LndqKnown6WA/KbBQFGp93taW9F6++cxQHjzem1Rwg7+Cr91yL69fMO6/rw0CDkY/w2p6T+LeH30Cb0zMuWw48mEWdco2sUjs6QMjPMeOb92+EyTB+z+uHCiCkjEP3eTgmIRRXwxU1oCtshGwtQyXBwvQZKCoq/kDii/QU1NWdwamTJ9DTVguHyo18nQ9aKSyIh+eTtDPhty55It2xJ5X5+MRnv4yGs6ex7YkHsKgosUAyvPDwC4cQDCWki5nSN1Kba9Thk/lWlGoTEmqPdrpFKeR0jYJIqR03wR6zFggS8iwafHp9Eeym/ut0uhOpify/6gK9KCF9LtsL73XheJMP3kAiq4Geg8VVZmxeUzDosvQgvHfKCW8gKMZPsEOvCIGO1aTHlz95GUzcMmXbBWEBPktynsi9iSoyPHE9XGEdfHEDNJYC5OQWIjcvDw6HAxaLVfywtDIJsxNt9I55vR4BrslVofZJNBpDIOAXf3o8LsSi/H8fAsGAAAMRLvwhL5SwD7IUh0YVh16Oi3RonSoGrSoKnRSHWmLJ8xigxBMVBFUAk/j6qwmmH3VdjxoVa+7BkhWXj7qQ/uY3P8dS+RCSn/OYJnAFJexv12H+ymswb+FymMwWUUyLNjh8+CDe37sL/q56SEqU+VuYlRdHhT19GfqhF6MI0UtvHcLR5fL2AAAgAElEQVQbO2tGlDjesGouvvzxaya0OI55c5M4gFoJ//rQ63jqrcMTlmfmjKeTme6oFlUg0zXOozddvRDXrZ0/oXTODyVASGcIKvW2eVVodgOumBn2wipUVk1DRUUlysrKYDZPjphCPXGnsxsNDfVgXfmmhjOArxUl5rhg8Vp0Hz4vwVjv9+7eSnz+y/+A9/e8g6Zd/4sqRwLdv3+sFS9tOw1vIBEKoPTxSO1KqwEfz7PCnIyTfaehC2fTEHRYptnj73ddDpRU/uyGEgEC2LiL33a0F7tOugQxUCNLuHy2DRsWjy+/d6x7T/d7EjMp2Xy03ov9dV4hsPTdu6cNOvTl97ux/Vg3er1+YRcuAARRBAgEUvfethjVZZlLnU5knNlzpsYCBA6eMOAOseqeJDQzAlEVqOgbUySodSaoZB1U6vRggQu1ItT94oiGAlCiwb6BUQ4jUYZcgV7mgigJXotKisGgVkAlcv4/M9h0H4AHss0rQTdtAy67atOoHK8/v/As9E2voCCDJAASzVukanz8U58XKdipRl7W8888AYO3BnNyo32l52njg60MSypYVjK2J4EA4Z33ToL8A49veEZUrs2E7/3lLZhdNf7Y+9S8QaP3UtfSjTu/9TDcacY+nuszg4GZDMxoGNqoe3Dv5itQmDcx7tNFAxAGGoavFtegnqCEngBAFBtTm6A158BktsJsscJgNEFvMEIlDTcq43fChed1C6QfcPcgFuiFUQ7DbgAcegVMZz/Hm9bxvCPn5NhdnQW4/2vfw9ZXn0W89lUUmhMf7Vt7zuKdfY3ocXvEbsNsTE8apWVvdJiwOc8qJsOoouCLZ9oQHfLtU0uAiompeghMEST3QKeRcdU8G9YvSiz+kaiCd471YkcNwUF/idSZJUbceXnBBxp+EBkNrgiKcwbLVO847sJrB7rQ6RrsOkxxKW5ZPwvL542vJvs5ebjZTrMWGGABfwRok2fiyhv/Anl5+SPa5ujRIzj86s8xL3/kDKlQVEKD1wBN6Qqsv/7mvs0Zw20na45i37YXUCa3INeYUFwdNHcrwNFOFartJHNn9ojodTl1th1v7j6BM/WdCIYiIqXv7htW4q4bVsFkNgMqoiw54VKJRQCCt2gYiE8+myCzUaY/6rv/swWPbNk/mS7EuazXYDekl1++66aVF1ea46StNUIHjIVRN4DZEQxRJBaqwfFgRdBn4gLVatWKQO/jUPM9V0M/L/2+212CL3zl23jp2Udh7nwb9qTGD70He4+0oMvlFgx9AoR0pZKNKhVuzzVjgz2hb94QiuDbDYPTIgkO/IGAiNOzsR/uvOlBmFNmxObVBdAlUxrr2gP4894udLgi4jibUQ2HWYP5FSasmGG9IADbobNevPBeB1q63YOemQA8Wi1uumoGVi0qPS/PM3vRrAVGsgCnwmPdBqy88fOYPnPuiGEGch7+8F/fxupi77DvjX3Q29IezUXBnLVYvvJymEwJVwM9sIcP7sXJPS+jVNsFe7IU/VQ+EW4wnnp5H3a+fwblhTn4m3tvw4LFiyDp7YBaCxAQKDFIMkuxK1BCbsDfjbivW/z/+WjHz7Zj8z893Me7Gu8YuEklj4RhhnQeBPZHDYTNm1ZMiPt0UXoQxmvk7PHDLUD36qHQbHz6/q/i+Sf/gJyenUgVI6Ry4nuHW9DtcifqROh0aQldObIaH8uzYJUloYC4zxvEf7X29F2MHzTJfJw8kkXKRMoZJZVLc/WiGBPJgIz3U5zovdMevLq/G3lWDaoKDCLswEwCq1G+YGogUVDpse3tqG/vv0/eMEmKBAg3XzMLK+ZnPQjZb+7Cs0C7V0K89Cqs33THqATN55/6I/QdO1CU9CjyTjhftHjVCJqqMX3x1Zg7b6Go8SJ+F4th185taD78Osq03TCPnys3prE4D+llGa9sP4LjZzqwcsUqbL51E/TqGBR3E5Sga3AfsgEqawlU5gLEAz2IO88kPAsfcOMceMc//gFH6kbPCEs3rJQOAtUUSVQciYW17rJZ+Oj1y6CZADk6CxA+4Bfiw3I5bxhoM63E7R+/D688/xj0rW8iJxlJIEDYc6gZToYYSJQZUIJ54P0VamR8It+KRcnqja/3+vDHzsTOmgQtEhJTaon8P4YWuJDmWnS4drEDCyrMfQxdfki1bUG0OEOoKtCLVEPtBcgCJS/ht6+14Gx7b58MM70dRoMBWlnGX9yyCNMr+uOxH5b3ITvOi98CjNoddNpx8ye/hrz8weTbgXff1FiPd156BI5oo0jdZgjXGbOgeNYqzJy/AmVl5X3p5xSJe2Pra+g4/gamWTwwZxg2GI+1jVotbCaj8Dr+7untyC+bgauv2YACdQ/i3jYgns47IEGlNUJlK4XKVomYuwWxzuOC3PlBt18/9y5+8ui2CV2WoQWHYeQNEqtV3n3zZVixsGpCRO4sQJjQY7n4T2r3SVBXb8T6G27Fzm2voffQ0yizJcgDr+2sxc79jSLEwKZOcgY06sHhmjKdLModz9InZgVWbnzO6U0LDlJyyka9Vqglrp1nh25IbIdxf7oaSEw8n02l0UPrKINstCPi6UDI2ZgslJEQqPrVq0042ewS2QsDgY/ZpMNf3b0SlkyDq+fzJrPXviQt0OyWECm5Brd89K4R758egabGszh1bD+CPrcoHldaNRv5BUUiwyPVCA5e2/IyXKfexDSLH8lM5ym1K72N+VYrDFoNfP4Q/rT1KDbdfg9KND1QPK3DF3xWYdUYodLboNIaIKk1gGyEYshBtOMY4u5+tdhRByqpIZnyRPhCknVQ4lEg6ELc1wnEwuO6x5MNHbjtHx6aUDaDQaNCjiG9kiIr6a5eMg2brl4IW9KLO66BXQjVHMc74OzxH4wFTnVLmH3NZ7Fg8Uo0nD2Dt554AEuKEkic4GDrrrPo7HWJxZ6NXgR+rAO1KCp1GtxbYBMVDdke6XThtV6/UBdkaGEgV5EpgXqtBrNLTbjlsqkrxDSV1lLrzLDPuQY5C2+EbMkT96rEovA07EfHzocQdiXchM/s6sDOGieYtkkow52NXqfDwpkFuDWrgzCVjyTb1xRbgJ/zziYtPvKpb6C8vGLE3vndEwDwT7r3h6Z9Uqnx9ddeQaBuG6bbfKIGy1Q3ehwLbTZYjYkQ5smzbWhHCa5cMR9K2/4+0J66rkpjgMqYA5XWJJQj+zXPJcCYgxjrqTTvG524KKmgLlwIVc40KL4uKN52KNEAoNZAMuRCZS1F3NuKePsRkZKaSXP7grjnO4/gZOPIsvUj9WMkQDAOJifqtDIWzynDwjllmDu9GHqddsIh2KwHIZMneAkec7RDglSwVORFO3Jy8fpzD6NcqoNNr+DY6U5QSbGr191HrhHxML1e1F5IgQQChM8U2FCVBAgPd7jwQkePAAgDG4EFF9ACmwZ3ry0SHIMLq0nQ2ktQfPUXYalcJoaWAkbiXpU4ek9uQ+tbv0Qs6MGeU248s6sdbp8vETZJgp+PbZqHGRU5E/5YLyybZEdzsVqAAlLv+6px3/1/M+4y2fF4TEizb3/rNcRadqPKEhSVHc9FM+t1KHI4kPJc7jtej+lX3gNT116oo97EJSUVJLUWalMeCPBH/Pg0RsQ1FkS5sPvTLNQs5W7MhVy+GoqvA9GWA+k9BQQQ+XOhslcg1n4EcXfzmGEL1mX4/u9fw5NvHR6XmQi6mLlgGlKXpiDXgn/80k2gB2GyLQsQJmvBi/R87iR6gxIaXYBf5UBcpQd8baLkc9Dnxe+fPgCny9snbCS+Rcbak4RFxt0THgQrqpMhht82deL5dmefxXg8tQGYtWAzyth8eQGmFSZ2A5k0ugdlQ7+rUJIo36pAiUcQjwQRC1JSNr0sbCwaF9UYtaKmwshNUqlhKJyFkvVfhj6vEtFoBC5nt/ghNnDkFcKWk4uwqxWtb/8K3rN70dEbxn+/1AiXL6GFwHoUi2cXYsOaapiN5yAIm4mxssdkLTAOC5x1aWCYcT3Wrb9hzFoVon5KICAK0rU11aJm/3ZYwg0otVK4aRwXHeehdpNRAITUJY40+jD/8puh1G4Bv1tJoxehBLWeGjhjDEQlQzHmI9p9BvHe+sEjkVTCM6DKm4VYZw0ULvqjTxoJAmT+PMS7TyLe2zAqSKCy4qOv7cf3H3x9XBYYSf/AbjXii/dcjfLiyXOdsgBhXI/k0jyYcXWnH+jwqURucqEpil8/thdtXZ5B4kYpkEAvAlF9hV6LzxQ5MNuYoC3/vqkDzyTZ/SlwQPe73azFpqU5WFCZgfoKP3VZC0PBDBhL5sJYOBtaWxHUemtfLDAW8iLi6USw/RQ8DQcQ7DiNeGRwgZleJ7XpIyimvusozTp9DUqu+RJkUw7isRjOnqrBS888ibN1dbhs1WUwGA247KoNyMvLQds7v0XP0S0i4+JnLzeh1RkEpV5L8i3YuHY6youo9X9pvkPZu/5wWYBZCSe9DsxcdSsWLiYDfjiwpa4BxeM62lvQ3VKLzobjkPxtKLHEzgkZcaAFOX/kmE0osPV/v8e6tJi/cBGUjmNQ6cwilEAxIrrwF84oG6XcsSJChYqpCDFPayKjoa9Jgmugzp+DeE9d0iMwsogTNy2SxihAiWQtg6KzIdr0HpRA/8Zo6JtAgLXraD0+98Mn08pFj/TmMMWRGQxWqmkNaCaDFps3rsCqJdWTfumyAGHSJry0OqBngYvcC2+dxJ7DLcKNniqsNPQDLtFr8bmyfCy3JnQQnmjrxsPNXcLTQGBA3oJFL+PaRQ6snJmZ0hfV62zkAcy/Afr8wSqGvIazswNtzQ2IRSPIzSuAzQA49z8F9+mdUJJpTPwge7qpWx8dBBACgQjcvQGRDmS16aE1mlB1+/+BsWi2GL/H1YtXnnkcf3zkUbQ73fi3H/0INXt3YPrMmbj2I7ei7Z3foefIK+JYCjptOeBErs2A9aurMWda7oSkTi+ttyt7txeSBahs2Bwrwdw1N2PO3AV9PAOPx436+rPoaD6LgLMe4Z4GGOEVwkdjOOSm9PbsJhOK7P0Ftva3a7By+UrA2wJJJcPp8uF3z76N+tYufP1Tm1BdOlwAisAgHvKI4lUSeQUsZDUQIMh6qAvmA9EgYl0nAJIR0zSGMRKgxCgAAj0YwmthLUMs6EK0cfeo9049hC/++Cm0dmdem4EAgfoHFt1ggGA0aEVa4+XLpk/a3lmAMGkTXpod1Db14sFnDyZKMw/hFKQskquRcW9ZPtblJBb/17td+O/6duF2p5fBrJdFtsLKmZYMUxYl2OZcjaLLPw2NhWVbB2/H60+fQFdbK2qOHUHN0SOYMX0aFq1cjcpcNbre/T3Cva19D4sAwesJoazSIcISbS1u+Dwh2BxGRMJR4QUoKsvBzDu/B3NFgnfAvh976Ld46vmX0NLRjVkzZ2JORQFWLF+GW++4Ha1v/xLe+vfFsS5fFL/d2o71a6oxb3o+NBdgSual+eZm7zpTC3Az4Aqr0BItQsncK2C22NDc2IBIbwN00W7oor0wqKOifP35UJU16/UodtgFz4ftQJuMlZdfDfSeFf8+3diOnz32Olo6ewVAuGxB/4aCWQfxoBvxoAdKLARFUkNdsgSSpEas61Rix6/EIZnyBUCItbyfEFYa0ugxUOmtUGnNUGmotz8kZKnWQcmbjfCx5wTIGKmdbOzElx94BnUDdGLGek4USMo3yWCoYWCbUZmPT9y6GgW5mW26RrtOFiCM9RSyv09rgVgsjl8+tg8tnR6wAmM6L4JRrcI9xXm4pTARCzvk8eNHzU6RFmnRqwU4WD7dMiydcSSTywY7Ctd+Fo4564eRjTy9Pdi34y3MWrAETpcbn/z4xzGjsgy33nQ9Vq9YAKn2JQQ7a/u6JhhoaXRBq5fhdgVgtRlQXGaHtbgaYb8HZ4+egsWmR9HMuSi9/hswFk4Hr/HGi8+g1xvAHx97CmGfBzddsxrzFi4S9+Hc+7iYbNjohKz3GVBSkpP1HGS/oQ+tBfgeB8ISnNGEF9Aqh6CRIkJp9nxjXuqKFNptIFBgO9MWwpyrPwZ0HBH/9viD+M//3SK8fd/94kfhoCdTiYMhyJjfCSUa6uMGSOQqFC0Wu39omaopCTKi+JYjAcSY3TAw74qAwmCH2mAVJEiSIUdseXME+ZHAI10jEHvveAM+98MnEKTMb4aN9TvsBnUfSbG6PA9337wKDDEwrXEqqhtPCiBoDDYUL78D9qoVYsJW4jF4mg6j+b1HEfEPUa7K8KZ5mCGnEtUbvgyZrFNq+Ie86Kp5E90n3kIslFnqSLrLGfOno3TV3WjZ8xh8Hekf1jiGeckfuu9oK55740TCixAenvtLXHtroQP3luYLaeT2UBhfOd0Ki1GPtXNtWLfAMa6YvMgkWPcFWPi+DWmNtafx2rOPo8UVwLGaU9izezdyHVbcumEtqCSW7z+McO/gHOdQMAK3KwSzRQtDijyYJAl0tnlEoR17jh7OTi9m3fI3KL/iDtSePI63X3wWrp5uMQKz2YzFRRL8J9+CxaaDLknIFBOL0QFFnxmv4pJ/mbIGyFpgAhYgUbHAahP8AnevGzmXfQJSTx0QG7pbVwRhOertFAv+0KayV0KyFCeAQDwqeAf8P/7Qe9BRfxwv7a1HZYEV6y+bD7UxD9IQ3ZcRh89+I2FE67enPSQcieEXz+zEz57eOW4L0HvgMKhBPQS24gIbvnD3OuTnTK44YWogkwIIOks+SlbeBU9rDbztp6CWtShevhm+9lNoO/i8WOCjIZ+I/ZJhLhttolY54zOyzpRw50QCiAYHx10sJfNQedX9OL3lAeFENuRWIXfWWrTtfwa+zlrRb9ibSEVRM+YjqRAL+0V1NbXGACWFEiODXxKdrQgVV34WTbseQaB7CFN13I8me0IgGMVDzx1EY5sLvkCgTzlwoGWuyrEKHoJdk6h4d/fBM9AaDChy6HDTilxUF2SetaCxFqD4qvtB4uDQ1lJfi9effxKPPvUC6ppaRXnepYsWYGaxHYsKgyiSWgQRKdPW1eEFMx3yCszwuf0IheMwl85G/ry1CCoaNJ05gZCzCcZQO+B3Qm/UwmROFv8SKdYKFJ0ZimnyTOJMx5w9LmuBS80C3CUX2Kyw6vVQKQrUhQsgW0sATyK9kJtWFmWK+boQDydTH4cYSdKaoCpcKISVBmUwqLWQK68U6Yqvv3sAT20/IySof/nPn8nMzEoM8UgIis4CMEOi9s2055FE+ZkfPIbDteOXWxabFK0KNoolJTc3ZUUOfO5ja6cEJEwJQPC2n4av47RYqPPnXw9PyzF4W4+icMmtcJ7aDm9bDfT2UpSsuBNt+5+DqWA6TAUzBFCIRUJoP/g8Qu72PuOlAELt1v8S/6e3FcFSugCdx14T5VXL1nwKp178gQAeeXOvFe4gb+tx5My+CrI2sWPzd9bCeXr7IPChteSjdNU9aHnvMYSSojaZPensUekswDj9kdOdeOntU+hx+xBgTYWkcFLq+NkmA75QUYAZxoQb8O9ONKAhqggewrr5dqydbxfFRjJpjPflLbsd+SvuFCpoA5vf58X2V1/A7u3bcPhELcorKrB2zUr0nN2P2eYuWNXp0x1Hum5LYy+0Ohm5+QSyEmLRmOAmMLTC+2ZTqSSoZRVktQy1ooESUgNRFSRNHJIxCkWng2IduTJeJvecPSZrgawFRrcAC8blm0ywGQ0iRCCXr4IUDUDxtIk6C7GQZ+Q0Q2ok5M8BVBrEWg8MLtqk1kJTvQ6K8zTe2HMcj2/dD7vFiB9/9eOjDigBSoKC48Brq+xVUOVUI3p66+AwRbKXQ6db8bF/+aOYW8bbSD8gSdGiU/UVzKP+wVWrZuG2DUv6JK/H22/q+CkBCJy4w74eqFQy9I4ydB7bAnfjARQuuQVKPI72/c+icPFHoDHlwFX/PvLmbYCn6QjCPicKFtwAb/sJ4fZPtRRA6G3YLzwIzHVnaz/0Z4Q9nZix6e/Rcfgl+DrPoHDRR+BuOiQAhyGnHF3HtgoCm7VsITqPvibGkWpaUy4KFt2ItoMvIOrvnajNsucNsIAvEMHb79WL6o4efwChSGQQSLDIavxlRSGucFjEs/xdUwde7vaICpCswrhxaS7spoR3IZMmGQuQt+Iu5C9YnyAFDWhtTQ04tGcnWhvrEAmHoPa2oMzQi0KDH6pBuo39JwUDEfi8IfEh2XPojQL8vrAgLeYXmmFJVahKN7g4oERVUMIqgOAgphL9kI8hGaKQ7EDcWjiyOEsmN5w9JmuBrAXGtIBdr0ehzSq+NclUAHXuDCjeDsR6zo6ojCgZcqByVAuuc6z9GEBFxIGNAGHaeqiCTrS1NOHdQ6dRVujAyvnDs6fEaQrDGD7EmQkR9vZlTalLlkKVMwPxrhNCilnxO4EkV4mn/dvDb+D3L7435j2mO4BKigwxqIcQFWdVF+Izd1wJqzlZgndCvQNTAhAYYvC1nRRDMOZPg7V8MZp3PwKdtQgFC28UO3a69lv3PwuVrEX+3GvFok5uAXkMIW83ek7v6LuFFEA48+q/i/+T1DJyZlyBSMAlvAi5s64SHoWe0zthKV2I9oMvoGTlnQnZ29ZjwjPBUIO7+SgC3QlGKxtDEJbieXA3HUScpT+zbdIW4F66y+nH6+/WoqauC4FQWHASUo2gYHNRDu4oygVJizt6PPhJfTssRqMIL7BiY6E9c/Egr9uPmCYXRUtvQNma26Gz5g66B6/bhbbTh1H/zhOIdhxHvk0SnoB0jToInR0ekdYYCkQFIGA80NnpEwRFeg8Y20w1JSYBERUQZ3lJyixzZpGE14BN1sgw2Szw9roRi0WhKowmAIKQdc22rAWyFjhXFsg3GpFjMSc3JxJUpoTsMUs7JxblrkS1RqYfai1QmQtFHYY46ye4Gkh0Gz40lSyUE0mqBtUTYzFR3n4Y+Y/AgETGoFvIKytDajHIszYlxJVUGjCcIfh6DHm4GhHy9eCGr/4GzZ3j5+xxM0MdBKY6Dm0zKgtw7+bL4bAlyKUTbVMDEFqOw9t2QozBXn2ZCCE07ngQ0aAb5Vd8RvAEuGCf2fLvMORWCNDgaT4Cf9dZWMsXwSvOr+m7hz4Owis/Fv/HhZ2gIuTpFF4EhjJmbPxbRMN+eFqOovPIK8iff4MAJm37nxU5sDpbIdyNhxD2JJioYgI32GGrWApXwz5EA8NTViZqxEv9PJEm2O3Dlu1nUNfUK7wIvmCwz5Mwx2TAV6qKQF2ErnAEf328ASqdDpX5Rty6Kg/Fjszrv9LN7/MEEI3TW1UKx/SlsJTNgdZkE3wXd2MNnKf2ItTTBJKbjUY9pBFysOgpaDzbg9JyGzQ66plL6O3xQ6/XwGjWDhZWiUuIuzUJMEBUpAwPi/A6skaDaDgCBfEkQChITErZlrVA1gLnzAIlVgtMOi0iHidrw4usAmYYyLYiqMz5kMgDYKYBlVaZbhjoFWmLMYYggj7x/2qdXoSw+xoVFHNmQJM/C+hhBtRwgSRmQrCPeJJrN/QYyZgjeAyREy8lvBvUSGCBJzPHVYCe7g58/fv/hXd3vYtgcOQ0yKGGIzig94DgYGiaI0OfKxdV4RO3ENxMbnMyKYCgMTpEFoO1bEHfYhDqbUFnzRtw1e8TRreWLUI5vQf7nhR8BO7uuZDnz90AjTkP/o7TaNn7OCIDXP7GvGmoXv9XfRMrEZmvs06Ag6CzSTwoggxb5TI0734U/s4zItWkcNGNIqOCJEVey3nyHUGCTDWGIIqXbUbL+08hyAp82TZlFiD1wOML4aktx3G2JVHJkOmPbFyf/7a6BKvtFoTicfywrhVnInFMLzbjlpV5KBiHB4H9JeSUlQQngDt5kWIkietIkgJKkIsPgx/kKPQGjpnhAH5QqV0B+06XHqREJCg943DX6aJQORTErVmAMGUvWbajrAVGsEBVTg7UsTAinkR2UaJJwnunteRCredOmpOBQPeCkxCPRhDq7YCsN0JryUkUcEpOGEosJsLjDEPI5ZdBFegGBpIc4zFE/T2IB3uT5Od06ooS5Io1CSDSnki97B8XJyktnnm/ByWzl6GwoBCP/ulPePqZp+Fyje1NIDCg9yDd/OawGXHfnVeiunzy/KdJAYTR3laVWgtDXiXMRbNhr1qJU3/+AeLjLIOZrn96I8wl82EumgWVpEbT7kcEUzXbLgwLeAMR/P7p/ejqCYhQQyrcsCbHgr+ZVgxZkvDnzl481+3Fgkpr5hwE7tj5DUrJD3GkhT/1nWbGe8zcaFEJcSd3Fxl0LCmQ7CFIOnUWIGRu4eyRWQtMyAKSoqAqLw/M9Av2tCU8CEMaAUACJPS3aMCHiNcJQ2ElVENTFhk2iEYBlQx1wbxkZkSTKNDEGi8xpkvGE+Xc0zZ6H5gm6ahCrHE3lMhwkrTHH8LGr/0G3e4AZs+aieWL5uLIwf2ob+mEPxRGKI0mAmcfrSwhzygP4x1wHLOrC3HPLauRlzM16dXnDCAwFTF39tUipNBV8xa8rccm9PCHPWhrIUqWbxZ6CB1HtyDk6lfHm5ILZDuZtAV6PUH86cWjaO5wIxgOwayXsGK6Ax+Zkw+NToUebxTbzrpRYNNi6TQL5DGyGJSgGopfTgAEWRFZApDjCW2SFGBQqMNB0QwCCQmSNg7wuKlqDDF4NAky4mhNpYgMBv5ALSdJipNz803VLWT7yVrgYrSASgGq8nJF9cJYKICIL7Wr779beq51jsKkBHLi/5kFF3J3i/9Xy5pBZGJ6D+hFYGN4Ql28BFI8iljHUZGdMPocoIbKUioyF4Qqo4dr1BAPgyThlV01+PtfvAh/MIKiHAv+6S+uwYaVM9DY4care07hhR3HUdvcBRZzSjWmNLKCY7qoKb2mH71+Ka5ZPWfKHvM5AwiTH6EkCI1T35KFOcRqkm3nygJnm3vx57dOCbUy1lqYUzYYCLCSIttQ9u2w8XBhduogKSpodBpGrRAJheMDYj0AACAASURBVBPAgOsuZ4ek1xDxJD+AnXChtoUgaUYurDLSvStUUYMKEuLib6mmRFRQfDIQUQ8PR3I8BC36mPiho0GRmeZYcK5MnO03a4GsBZJTQAogcIJg6jx5BSSip7RPSHTX2vKgUg8uJc8wQ4p/MNBfT4AgJptkExkPebOEXDJLOCv+7rSpk1RkVFmKqfYHxdWYvtyzIC1L+PZvXsaTbxwUadNrl0zDT/6/m2CWFcTCQahkDep7wviPJ7bjtd0nROVZNqYz2vUySgptyLGZEI5EReaUQadBjt2EK1fMRGHe5CWW++774B++MP4ZdMhrqTFYB5M7JvzaSojHo4JASHCgNToQGyJ2NOGukycyHBFjKkqycM9k+8uen94CRL0nazsR9fRgQbkR8WgM0WgceoNGxPwzbWJR7tElSklbjIJ/4PdkoGkgFLYiUJnHEEdSqRGXdJC0VuisOdBY8qGxFqOrtRXR5j3QqwanPin0UISpd5DwVCRQjgKoEx4LSR4AKLQmKOacTG81e1zWAlkLTMAC/OQqkh6EPjAfjyUAQjQq5gyVLENN7ZRJlFNlBoJkr4AkU4pZgRLxAeS4EUjIOki65MIciyDuaUmkM6bxHDCcwaJMX/rREzh8plUs7t/9/Ebcfs1icTy9ICFXtwAJDW7gn371MvafbBbBTYYX8k0azKjMw6duWyO0EwgQWKDJbEzMk1PZpsSDoGLd7SlhakuCmR7sbYGKKSFqeRB5cWpuXBEgZCA6nJp+s70MtUAsRLTdhXgojM52D7o7EzLZ5VUO5OabM/tW6UHoSsT+VUlGbjxTQRFDFCrL8DihlDML+UtvhsFkFsxmRZKZKgNZZ4RaZ4Zab8a2555G/PhjKLKliTOmshhSWIBejDTfpWKwQzFMjeRp9u3KWiBrgfQWID6vHAIQBh2ZKkE7FQaUVCLkIFGQT9YDwiPBtOewSJUk10BhCGKkqo9Mk1Sr8dLOY/jB719Du9ODOeU5ePDvb0deYUozRUHY04uIpwcw2vH49lPiWL1GgkWbkFUmIPjG526YUm9BOvNMCUCYCrun+iD5kOmMUnJ3FhYoLNs+jBaQwn5I3m7hQqNsMTUG9u9qEIh++pwClJT113If7f5EemEwczEl0RczGizhhLt/QGuP5OGKz/9EsJbTgVqO7ezx4/jTAz/EPHsjppdztzCxJjIYBqZNTayb7FlZC2QtMIoFBnIQPlBDsXIjiVAiOSIOUEGRP8lMKJEVMWTnQHDA4DYX/Ee37EMkGsc/f2wlPnbNfOgcBX1hdW6ugt0tYrPybp0LX33gKchQYNapBf/AoNfim5+/BAECsxSMuVVCMZHGnjhASG7pkru8xB8Ut9Eg5HcgFMhByJeDSIiL1NS6ZQa+pEZbI2wFNVDLaYQ4PtC3+YO+mAIp6IPk7+m7MDUHjh5oEZ4DqhbOW1w8ulJh6kzBQ9BCcAwybeo4JEdoUJG1uhYfvvfgUdx53+dw/W23Ia+wSNAYIsEgOpoacbamBkd278LJ99/D0llGXL2qEMY0IiSZDEFRqaHYSzI5NHFMPAYp4IZitI1eGS7zHrNHZi1wSVggkcWQC1Z3PF8tHgkLNWEl0i/AJwT7dAahx5DKkiBAqG/vxbd//TJ2HqpDrkWPV75/O0x2BzRme1+IIBYMIOhshWyw4N0zTvzLz54dxNeqLM3FNz53/aSllMey1wXnQeCAKWbEWgksdJEJQAj5zYiEDEmZWz0iQSvCAQfCAbv4eyRoQyjIQlE2REIfrMs3v3Inyhc8B41ucEGqsR7MxfB7KRyAlCyqxfs5sr8FNocBVrseJ462Cw9CWWVmxYyEDoFHK+SMR1BN7jcZwYE1ksh2SDYWW/rJoydwsqn/OVAYya6VYUimONnMGsydbsWSuQ6UFhigzrBGRLpnpeiticV+xCZyNpPgIArJ64QUCyNuzgWo8knPg2YcugsXwwuTvYesBSZogarcHOjOE0CgxyDs6hTrVbpGxUadvUDoLPDHE4zgmbcO44mtB3Db1QvxuVtWDzqNOj7h3i5Eg35E9Xb84eV9eGYry00DWo0syIifveMKlBZlNndO0KTitAsSILCwEytFBrobMgIIR9+6BfWHV8FoNcJgyVyVLxPDReNBhOIs9qFAozJCozZBGofH4VIGCFzoJF83pGQVRWeXDzZHot5Bc0OPCD1UVOdkTKwhQZApjyKLgBLHfdoIyXRHZi7IccAYS/w5oO0+4sQzb7egxxuGRq1CpcMOk1YLtRKH2x+AIsdw27WlmFU9BQBSUiFuKxpZQVGkYvhFjjV/pIALDMcorCvP3ykxQG+BoqMs6zi8Jpm80Nljsha4CC1QarXAbMi8MmwsHkeM5GR+f2oZKv7IMmJKf9UWwncpHoESdEGN0bV2mFpJXYVErvXwprXlQ63VJ8TbkkChvq0HuTYjzIb+NYtZF1G/V1Q9VulM2H2qAz9/7E3otDIcdiNKCx1YvbgaeVNUznmsV+GCBAicFAsWbETvmV0ZAYT9r9yFhiMrYc3VwmgbnMYy0AC+SAc6g8cQjNHtLcGsKUKhYZFY+Ic2BQpa/fvQ6tsHX7RTsEv1ahtKjCtRYrpMiDRl0i5pgJB0m0uh4WVWve4QotFYH2DIxJbiGLF+JusfpECCSHkkkzgJEIZEjAhEao8p8HkM8Eei0KpUuGx6NSw2OzyRCBqamtEVq8XiRVMjLjJmmWclDqm3VSipQZIhRf2J0rQqNSTmX5P4RNKv3gwl60XI+NXIHnjpWqDAZITDPPb3y0yq2sZunKjrwOwrNqFq3iKoNTrIGi1UWh2icfUgByWrQkaaD0B21kAl2APpG9MiE6mVIZFaSaVXwYMiqVGjhcZo7ddgSIKEhNJrYrLiOUy5ZKiCf+/2RbCnphVPvb4XoUgUt123BPNnlQqthw+yXZgAgfmepQsQ6K4fVK55JMNkAhC6gjU42P0Q6BEgMCAA8EZaYddNw/K8zw8DCXXurTjS8yhydLNQYJgPSVLDGTyN7mAN5jnuQqXlqoye0yUNEGihSBCSvxfSkLRSLtp0zU1WKzyThxAKKcj3V8BhKhXoPa7EodZoIVlskKx2KMEAzrS9AEkzBTwRiiMxTMDFf+TZBKqeloSzIEJWcxwSqdiiiVkFiqyFwiqm50QLJBOrZY/JWuDDY4G+ao5jDLm53YXHXjyAQzWtWHfbHfjid/7PqGdwjuqpP4bQ0T/DIfvGzLxS4lEhsJQqey8AgiwLoDCsSRIOnm4VSoo2kxaxaAQ9ngDONDtxqqEDtfWtCEejWL1kOjatWwCbJXMPyVQ9uQsWIFCqWRg7A0GjsQBCIOrElqavIU8/F/Mcd0KnZmxYgSfSgj0d/4ky0xoszbuvz6b8/7davo1p1g2Ybr0hebyEcMyLk64/o9b9CjZV/Bxa1diVsi55gCDc6QGoWGtjFElssnmPNvmwpGoKXPxDvg5e1ugsRIGtGmrNAA+TWg1JZ0AQUbQF30JcGUU6NaMvThK8A3oQRi8CEYfk7hCgKR4iQKDnY4AciaSGotVD0VuSaVQZXTx7UNYCl6wFdCoVqvLzxrz/1g43/vDsPhw+0Qqj2YLP/uO/YPGaK2DPG163gIt8c+0ZvPzIg0DHUdy8bgYctqlbpIOhCO774RNo6nCJirJiqoxGEQqFoZNi0KpVWLW4GrddvxRW89Rdd0wjDTjgggUI47mJsQDCEef/4oTrBdxS+T/QqAYaWkGLbx/eaftXfKTy1zDJCdW74z1Po97zFq4vfwAq5sgPaNF4GC823I/5OR/HDOvGMYd5yQOElIWiYYR7u6FXDRcu6vFF8PS7Xej2hHH9klwsqR7bVTim4YccEOnSogxVMOYUDFu83fFOONWnKFEy3m4HHU/OgNj1j6UJEo8mAAJTolg+mtyJPg9CskuNHnGjPQsQJvVEsidfShaYkZebKM08SuOif7q+C4+9eBAnz3aK0AJ/9CYTcguLYLba+vRWnJ0daD17FpFwCBo18IW712D5gjJR9XUq2hNvHMS/PrQVgVD/xoRdOwxqmLRqwXS7764rsWx+5VRcbkJ9XPQAgaGEVxu/girLNZhjvy2tkV5u/DJmWm/EDNsm8fvtbT+EXVuBBTn3pD3+cPcj6AnX4arifx7T6FmA0G+i9w63YO+hekwrNMBukhGJKmhxhnC61Y9QNLGD5v9ftzgH8ytMY8swj2n9/gNiMQX6jlzkyXnQWh1Q0ZOQ/M67IvXwapqhSJOQ35Z1iQV9rJAAK8R5uyClqz/P4VK4SWtMCCyRxJhtWQtkLZCRBYpMJtjMY3t12RmVXvcdacKOfXU4dbYLkaTSK8mLAxSWB113wxUzcdemJTAaRua5ZTRQAM2dLvz1T5/Fkdo2wXnQyxIsOjW0aknMe/Qo6HUa/O3nb0COfeo3TJmO86IHCMGYCy81fAnXlf0EFk1x+gXf+QiCURdWFnwJUSUkwgvkGZQYl6c9viNwBLs7/hM3V/56TDtnAUK/iXbsb8SWHayrPnrLs2pwzQLWbzAJadGpakym0Hss0IeN0OmskHV6xFRxONV1iMkZyDePNBBZizg9B2MRCgVpsxdSKN21JFHciWEFAoQxg51TZZRsP1kLXCQWMMgyynMcGWdFpW67u8eHmtoOnGnoRkuHGx5vCMFwFOFwVCzeOqoX6rW4YlkV1q+ZITIKJtN8wTB+/tQOPL71AILhiPBI2PQqEVIQewRJwsZ1C7BqUTXyc6c+5DqesV/0AMEVqsfbbd/DLZW/G9Euzb49qHW/hrXF/4RQzI3tbf+GFflfgk1bnvacSNyPZ89+GndOe2JMW2cBQr+JXnrnNHYfbB7TZjzAYZaxepZNhBuMuqll7pKTwHRJDWRE5SgkbWzC6zGzDBSDdWzFRIYVAh5IIcpNp0pWqwQZUaQyquQEMGBVuWzLWiBrgQlYQEGFwwGDduJF/uhJcPb60d3rh8sTQFxR4LAaUJhrgd1KbZTJpR2z/zf3nsIvnnoHPb0eUcmWfVLfIBAMi79TBOkvProG+R9QKuNohr7oAUJPqA77On+JDWX/d0Q7uMPN2Nf1K1xT8j34o13Y1/lrLM37rMh2GKk9X/9ZwWkYq2UBQsJCzFr43VP70dSeuWCUQavC/HIT1syxidLQF1QjkVBnTGgVDKkQN2ycsQikoEdoHfT5LxlKEOczlEDJ1qnzlFxQdsoOJmuBD9ACVp0WhRbLuL6nQV/eOf4O65q78LMn3saBE419ajoEHjevXwy3LwhZrcb0inyUFTkmDUamwuyXBEA43vMkLi/65oj2otdgb+cvcEXR3yEY68Wh7ocxP+djfaTFdCe+2fJtASjGalmAkLBQS4cXf3j+IALBMaorDjEo3W+luVosm2bBwkozdJrJIfixnlcmv1c0ukSmAkMKYwkZUSwq4IYUDQ4oECZBocYBsxTGIjRmMqDsMVkLZC0gLCBLEgpMJhgHZiuNiL1HAeUDfpX+qBHOHaVLeg/qOp04UtuCxtYedPd4IctqVJbk4PLlM4S3gm2qSJBT8UpcEgCh1r0Fy/O/MKK9ovEAanqfw4KcjyMc84i/z7RtgkHOHfGcYz1PYp7jjjGfQRYgJEz06o4zIryQqms+puGGHEBvQkWeHlfOs6MiTzeuktHjvVa64/ntuvwxRDQm5BbkAGkKsQw7j1LTVEkUSpIDykAbbAIgjAkupmLg2T6yFrjELGCS1cjTG6CmNyATj0CaRb3/vzIDEelN3H8uyY/tPh+CsRhiiiJE4kiUpCqvRlYJoHAhtosDILx6FxqPrBBKigbrYFc0Qwxt/n2YO8pirigxeKKtsGrKBEBo8u1CqWkVdOpkfe9JPLksQACYQfDgswfR0OqahCUTpzJmN6vEiHXz7Shy6ISbLpM5YCIXFkJGUNDYFcTuE240OqNYv6Yai2cXjt4dlRL9LqRTkIwbcwB9ZkzriYw5e07WApe6BTgn2GQZdq02c8LiBCaRvuV/jHMpdtQWCGB8vtML4yleFADhzI4bYY3ZYXdE0NozHZ09xYjGEmQvih4xbJCvn5eRxZnFEIz2wijnDtNAyKiDIQdlAQIQDEXxh+cPoXkc/IOxbM1vsjJfLzgKVQUGmPQqEX5gnYUJfOsJkZKYIsqvhiJxOL0RnGkPoqbJhy53Ik9Zr5Ox/rIqrFpcOnx4qRoKkVAipDCkHrxCEiIzHXQTLx89lk2yv89aIGuBhAW4HydIMKnVUGVYO6d/wU9ZcVTXwiimlsTGgknT/mgUvZEoYmNWmLswn9xFARB0XbNQbpKh04URiWix7/j/Y+89oCy7zjLR7+Rzbr63cuzqHNWKTUuW5ICzBWMwxoaZgfHzGEwcYOYxj/B4LFjDzHq8t4CHYQaTxh4DBmNwwAnJKFi2JEsttdRS51DdXflW1c3h5PPWv8+t1JVu5VtV51+rVqV99tn7P/ue/e0/fP/DuHzzJBzGq+35xZU4gBhwNeKekf2CeeUJoEqH2lkkduv9mAKA4Gv0H795Ca9fTk/72dZTzyGZR2eTgq6UgpaYhLAmQpV4KCJFCHOQBG7ar0cWCA4u40qnPb2guyjqLsq6g8mihXTexEjWRLZss8DK2UK+wYfu6cbbH+ybCSAipk/bAigQ0ayAo4U1e0Ex2mTFjzeQqChLEIy4ns8+6CvQwGIaoGilCMcjwvO+u6EmdX8CFzpp1HExvTYMz0PZcVClGivb+BHtCICA4RPYGwdCms4eRbbQjGfOvBeZgk+fKYeB/Y8CnSc4xDoAyiYzy0DmFtD/HHD7FWZL3hAJAIKv1lvDeXz5qSuYyK6Bb6COJ8RzYGmREU1ASBYgSxwU8vHVSjfHNAH7EzYDKoos4/VhC68P6ChUidZ75gayJCMmy6zGvBOOg080QVQ07NvbjvtO9CCcvQQrMwjHMBBROAhUgfGOReRRACPLVIgsn+lQx9yCJoEGAg2sXAPEnRviOCgeHRQWur6OXb/WZH7LWXEG8EDVXHTPZQBhO7oU7tTOjgAI5GLYl3Bx7PAN8LyLYjmOb599J0Ymehmx3f0/yuHIuzgGDO6U/DBw7kseLj2xMSAhAAi+xmlDvn47i2fO3MLASGHln/J1uoKsCh95NIGwKkFRJGQqHjIlAgzEg+7CggSn5xSkjnux98w3EJsYQvbEw5h86w+zAk+KpkELqcDFb6Dy5H9He0pDOKzM83WyYkuUwkhWgyBTYZ2eXtBNoIHVaYCojRTXg+YBq0qYpsqLC9yazhR0NDA4/4vsh2sjbF/d/Dbqqh0BEM7+84eQ7T+Gkydvo709h8l8C64PHIVly+g9xeGRn+IQTi2uwkoGePnvPFx6fP3NCAFAmNE78aBn8jou9U/glfOjjIxk/TW++HMmi+G9e6N47P4myAukSxJIIIeU3vsoSnd/FH1f+lM0vfo0ir1HcPFnfm9Ox245A+9vfxLdUXtOzAOVbIYS8UmPGC98HaeTjfp0B/0GGgg0MK0B+iTyZDn0PKiOB/kOFyJrWIeFgd4j5KI0HAeGKMCSBDgcOS53nuwMgPCND+H2G6cQb5EQiVNVLA6u5+fLP/hRDsfewy3LZVMYBZ77cw8DL6/vlrUrAQKr2ujNrSVAtQeo5LMSYb79qmHj5lAO56+NM8sCUZtupKQiEt73QAr720LT7obF7memDiN/38eROn8OPY//L/BGFWd++x/g3hFgqH/jv6Ft9BmEw8SHwMGTQrUKjOLGpVZspJKCvgMN7BINTIEFmYCC40KkrzuLMMwCCx7HweY4mFUdhmEhP1lAZjALxwXkmAY5EUKkMwUluXV1Ezbi0e0ogEBpjqH4XKrad/0qhz3fU98pbuyyh+f/wsPEdUKI66Pu3QcQPHAVqjdQBqMhJjO7KIErZ1kQnxtpBuS5pUsdx8VQuoShsQL7SmcqKJQMGJYzL1Cw3qdCfOaKKKJTkXDorY+h5x3vQ+eFv4BYGl62Cyveh/y9PwGl6ODg3/w3SIUMLv7k/43CgXvmXKu//A/gnvk9tLS3I9TUvHyhpmXvHDQINBBoYKs0wNGZxvPAsS8/osh1Xdiuz1ugZ0oo306jMl5EbiTHGhB/gSjOkLcpyTCShzoQ62uFqMng1kjNvFW6mLrvjgcI7/wVDn2n6wMIBCCHznl49fMe0pf9A+9aZVcBBLIcWLpvpSNqYSII4gCXV1hpY86z/Ij+mF9WezGxbQIMRbx2aRTXB3LIFf3g02WFQEEoglCyBfG2bpxqTuLtt15B7sHHMPiuH4cy9Cxib3wGvLV0oKTZfBT5ez8OiHEc++Nfgjo5wq4fese/mTMEdeRFJN74VBBjsOyDCRoEGtgmGvAAx7RgVQyYJR2lkRxKI1kGChzT9nlXeD/YkeN4Rth2Z7ID/U2Lh9F0pAvhnibwYYpDqm8PajQt7XiA8Naf97D/3hy4cg4wqoBl+uZfKoqjaEAoCi6WnFMkZ/ImcPVJD+PXPJYGqRd0uIuV513miTZ1n0HXkX+GKJca7dmv/3gIHBBBkGPBEwQGCig1wDN5ECTnJI+xB7rhpB/VT+WMlyAtINbFK/2ToCqQg6OFReMVOJ5HtLULbQdPoGX/MbQfuw8te48gPnAZhz79WzASLej/4C+i3LkPkctfQvj6VyFUMwvO3xNVlPe/F8VjHwb9fPwT/wGRgcvIHT6Fyx/9bTZ+zjHBGzloI99F5Obj66/HoMdAA4EGNlUDruXAyJdRyZRQSRdQGs2hOlGES2yHnJ8mTRs/pU3T77OFfhd4ypTyGREp80mRKQhahpQMge9MQGiNglPWVgVyUxVSu9mOBwj3PdqPE33fgVhOA3oFsAyf4pYAghoCwlFwyVZw+46D69k/fRok68GVJz30P2fCNc4gknhjVc9HCU1Ciw+D5zfWx76qwa33RbYBTi/5nACz6IU9i4PncuBl1w8C4gV4ggjwEitxzCoZUkAfJyxIYUwES088dwP9Q7k5I6b0RSJIioUl9J5+N/b/wM9CSbROf4CVbBp9X/gEYtfO4vZjP4Hx0++DS+h+8DvQbj8LeeIieIuqK/riylFU9rwFlQOPwY74pcEPfua/IPX6s9CbOnDx4/8PXMmBOvoSpMIApNIQeHPrMjLW+/EF/QUa2G0acE0bhYFJFIYyqE4UUM2UYBv+u5oAAQMFPJGv+ZYCAgpUcZG+RJ7cCwIrsDQFDiQiZmI07LNE5CE0RyB0J8CnwtsqPmnHA4Tezn48svevoYpLvMgJMKRawd39JvDHTk1bE776my4yN6po2/cVtB94ard9dlY8X45qD1TyAHECzA7iIH+ey4ETFggAJd1TgB/77v/sf5/6mYJOPQyPl1i9dnLpqbKAsMIzMiT63dR1mIn9CL/nlyF1Hp0eN28ZaH/2H9Hzz59GsecIrv34b8CMNbGxCZU0xOIwxNIIeD0HV4mBYg/sWA9cNTHdR98X/xhtz30ZVjiOmx/4Dyj09SF2+XOQ8/0r1k9wQaCBQAMNoAFyI5R0mMM5WKNF6PkK9GIFFAtFbyhWfZ0sAiK5EHjmHfC/+y4FAgnMqsB+9v+2nPCigO63nUDJsVDmXHCz4haWu3Yr/7/jAYIgOHjvqU+jVbm0jJ45IJYA/8j3gTt4km1UX/41FxPXqug+GgCEuhYpBXG4NqMahlVlwT6rF5/9ckqoK7+4iY8h/A+p/1/bcZDOmtAf/iWoJ98z55bJC8+j7x8/AamUw833/zTSD33/rP97PiWy6zLLhUcWjTuk52t/gc6nPwdXlJB+8DHc+r6PMYAQGvnurOqMq59lcGWggUADm6QBIi/K6zD6J2CNFeEZFjzbj0anNxUvcBAlAQLb8O+ILViEB6HukXMcYl0paK1xWIoAM67AXq9I+LoHsfKGOx4gkEo624fw7sOfYBS7ywnXewjcW38AXKoVX/kNF+nL8wHCWP8jaNv7bTiWBlOPQYuOLdft7vm/Y4HPp2exCs4FCVSTgMUmrDMDQno8j/xdP47QQ/8GHLFj1UQb6Uffl/47YjfOwYokcO4//SnscLzu57H/s7+L5rP/wtoX996Faz/6nyFUriN6/cvgzV0QV1K3poKGgQYaWwN2pozis9emQcHUaMkaICkCcxvcGV+wnjOi4EatKYqO+w+gWK4gzzngtPmHkvW851r72hUAgZT0wIlncSz1OESOyDCXEEEE970fAH/0fnzlN7kFAcIbT/0fOPTgnzCAMDl0H9r3PwNRnvFlr/WhbPvrCRkTCKCTOVkUqFYBAQJBgkdcAswcoIOjeBDbAseQNPkhCExMfa9PC7bjcyoMjWTg3P0hxN/2E+CplHJNxEoRvV/5JFrOPMH+kjn+MG58+H+HQ/Enywjnujjyp/8ZsRuvs5ZWNIWB93wEuSPHET//aYjl0eW6CP4faCDQQINowMlXUXz+Btwy8R367K6UhhjSpA0FBuxmHNB6og+h5ig8x4WlW0jfHAV/oBl8hHhUGkRJdwxj1wAEomA+ffRx7E+9CJlf5uS3/wSEd3wQX//dEEbOz7cgXHn+44i3XUC0+TpGr78FHQeegqzmYJthKOHJxnzSjTqqKbcEBTUyUFEz+ZO1h1VInGuBIDfD6EQZpaoF2/ZQ1B1kiyYmCgZ63/2/Yf97PwJBCcEo5uHYJsLJZnQ//hnmJvADJ4HBd/4YRh/9wLIgQR0fxJE/+1UoObKI+JI9ehq3H/sYtOGvQpm8uO6WkEZ9TMG4Ag1sdw24FRPlswOwRv14tIJhIWdZ6E5GEFakDd2jyXqQ3N8OUZHASyLCrQkMPHcRlutCPNIOoSnUkMGLuwYg0IJQZB1He8/gQOuLiMlji/uQQxHwP/wz+OYnmzHwynyAMHTpvShO7EfvXV/A8JV3oP3AMzArSVh6FG37v7XdP0eNMf7Z1oRZIIHIk7781FVcvplh5Zlny76H3oGuk6dhlosojA1CjSbx4I/9Atq+82V0P/5piFUfhdBCcgAAIABJREFUGNpaBMNv+zAm7n8HswosJLxtouOpz6Hjmc9DMKvTTRxFw+TJN0NPevC423QOaQx9BaMINBBoYFENEOm5ZtuoXElj8tIYO3dkqgZuFcqIqjJ6khEkQsqGggQaHLkwEnvb0HbPPgw+dxGl0Sy4sAzxYBuE1kjDgYRdBRDoAUmiibbUAPa2nENv0xtQuOKCi6r80L/HV/78MPS8DxBa9jzPcvkF0UBxch+uvvBx7HvgUxi/9RCLRxi/9SAiTf1o2/ts8DHdYA1QyuML54ZAhEqzRdLC4AURVrUE13HQdvgk/tVv/zna3/gOKNhQLsxYd+xwjLkb0g++D5XO/WA1FGoiGFUkX38WXU9+FurEyDwrAQUs2uEQxk+mYIca24e4wY8i6D7QQENrgCz3Yc5DxHWgei7K6RJunRuBXjRRtR1cmsyjvSOBIwdaoFoeShMVljW1UnEdr5Z4tbSvQI6oiHSk0HSok4GD0Vf7mcuBiygQ97dAaIs2FEjYdQDBR3EeFKmKsJpFT/M1NIf6EQ9NQFEM6GYIE8UuXMm/FaNDrRAkHyDIWg6lyb0s3VFUijj79d9B19GvozixD4n2C0jffBg9x7+EWPO1la6toP0KNfDyhRE88Z0bLPZgKWnedwTv+/U/wt6rZ9DzjU9BLOfnNHclGWa8BaXeIyj1HIYdikIuZBC5dQHRWxcglvK1+IiF75I53IJiX3KFow+aBxoINLAZGiBC9zgcqK4DobbpO5aDoUvjSPdnocZUKF1RtLdHoWkSbN3G2JUJlLLVFcVQEw2zbToQJB6StDgZkiCL6Lh/P4jYjafYh+YYrn79ZdhVIu8DuKgK8XAbBOJKaBDZlQBhtu55ykmlLwqOYwTclOvAw3WJ7IKKPPkAoan7Zdw890G4looDp/8Cl77984i3XoJeboKsFlApdGLvPX8bxCBswsK+PpDFPz5xCaWKH2y0mCR79uNd/+l3cdel59H19N9NxyDc2Z5xMBC5CSvTRqmPPgPkcqInNYx9T89yzYL/BxoINLCJGqAtOgkXEddmtRVmi8kLyFccCGUdsZgMQaTMhZkW+YkKRi+NM7CwrBCXQViGkdfhlPzgdy0sLxnwKKoSpJACOaKh6/QhTFweQvrczelb8U1hSEfbwRE9cwPIrgcIyz2DKYBAlgO91IzrZ/4dW1BmNQ5JyzNrBFWPJAtD38m/h6QGzHrL6XSt/09nyvirL7+OfO1DuVh/8fYePPZDH8GD119C7Ppry97WI8Y01wN9d2WqH+GCyJYWAwvEyjj4dnJP3MGctuydggaBBgINrKcGGEErB0Q8D0nPhkAZVDWh45/L8yjyAosxiDg2xFkcBI7joVQycKN/EhcvjCDC8ehritX4EBYYJXEihCSIB1rAt8ZQvTgC4+o4cxUQj4JcB6UyZU/0PnwUsZ5mXPriC7DKM9l1fFcc0qE2cPLWUzMHAGGZVTobIFDTidun0X/2R+E6M7n29Hc5lMGxN/8+iFo5kI3VQLag41NfeG3ZIk5NkSh+7MBe3F3N1LgXFhkXx6HUfQhGUwekYha2FkbmrkcZuRIxMSq58UUnNHK6B2ZibnXKjZ190HuggUADszVAVMchWUaSB6RqBR6lVXseHCrRzAswJBkOOIRNHTLjYPGF/m9ULKT7M3jl/BAmMn6qOpGwHW1PsqDFO4XqKdApn+IFuJC/B1DaZOnMLdiTJQZAFFViLoTFhP5HgYokHQ8cQHksh9vfvgCqB8GESgUdaIW4t2nL4xECgLBCgFDK9uLSt3+BcSDMFjUyhiOPfAJKaOEiQMFHev00QK6FP//8WRBQWEq6ZBE/25FE5zJI3JFVnP/5P0S1rRdiuciyFoyk/wE+9KnfRPLCC4veZvJ4G0rd9RMvrZ8Wgp4CDexuDVCNhJCiIKqpiKoqo0N2DR1GsQjd0GGzgnwqwloIqufAmZxg4MHmeBgchwrHI5cuI392ABMTBYyUdVi2v0knQwqOdczKcCLa5bgGoTMOvj3OKjrOFnMoh/LLt+FZDqNolihtcpF4RSmsovVEL8rpPJSohra792Lou1eQuTYMz625RKiPE50Q2mJb+pADgLBCgGBWEnj9yV+Dbc6Q8VAXsZbLOHDqfwYuhk1Yzpl8FZ/+4rllLQjdNYDQsQxAcEUZVz7yW8gfum/O6MmCcPgvfh3hocUDTwt9SWQPt2zCrINbBBoINFA7YCOsqohpKkKqCiqQRGI5DorVKkzLhiTwUGUZmiz7xZM8D9VCAeViARVwMMBhKsrAGivAyFQwnith8PIIzIrJrAin9rSyYkyUhih0xMG3RcGT1WCBnZ829uq5QejXJxh4IDcDMTMuJFSXQdRkBgaoWFT3w0ehpSIYeuEyisMzB0yyUMj3dLPgxa2SACCsECB4Ho9rL34UmaG5m0nXka+h49ATLA0ykI3VwHC6iM9+7TwKy8Qg1AsQaLSVtj70//AvotRbK/bkecy90P3EX0EwKotOqNIawfi9nRs74aD3QAOBBpgGVElCMhJmlgMCBsQrQKf+fKWMsmEirMgIKSoUSWRVGEkMy0K+UkFZN2BZFmacDDWlMj42D7ZpY+zaGG6dvQW9qONkbwsSlHrYEWebNMUNLCWubqH4ratwikbNiiAuy9BI1MsyWRTu6oNr2xh+6SqrKDklfHuMWRKWu/dGLY8AIKwQIFBzs5rAzdc+hOzISZb1EGu9hD0n/wGh2Pyc+Y16cLu53/7BHD7/+MVlsxhWAhBIn3pzF67/yC8zkEAlovd8+U8QGr21JFuiIwtI398FM7Z1KH83r4Vg7rtDAxRnkIpEEA9p0+WXqUhbtlRGUdcRUmQkw2FIoshO/+zzbJrIlAg4GHBcty5+A9dxUS1UkRvOIdUag5YMAyuovGgN5xmdMwEXZkVY5tq9b78boixi9NxNdD94GBVydbx8DWap5j6VBIiHWiF2b006dQAQVgEQ6BKKQbjw7C8gFB/C3ns+C16oIy1md3yWN3yWF29M4J+euoJylWo8EPkVjz2dcaTiGq7eyiBXNNjLgADCz3Um0b5EbvKdg6227WFUyk1nn0Tzq08vn+7IAZWmMCbv7oC7ghfJhispuEGggR2gAdrso5qG5lgUsiiyEm+0iWfLZeTKZSiSxP5HrgQS+tzrloVMqYRiVa8LFKynmqg6ZPnMLVBMAmU0SLJv5VhQOA7hlhjMqgG7YiLW3cxAArkZyJJg634aN58MQbqrE5w2NzB+Pce9WF8BQFgTQPhFJFovoOfElzbjWQX3qGng9atpfO2Za6joFgMHp0924S2n9kCWBAYavvncDVCbXlHAL3amEF3GNDhbscSJQIRJvGND0OsrwOVKAnIHmlDqicNb7GUQPL1AA4EG6tYAuQfInZCKUp0EhRVWmooxKFSqkESBWQwoFoG2X9t1mSshVyqjZPgHhK0Se6KE0vP98GxnyViE2eOjuAQlHkKkPYmWYz0oj+cxcqZmSRB5iPuaIe5p8nM5N1ECgLBKgGAZUbzx5K+gbf/T6DzkVwoMZHM0MNuC0NsRw4fecxzR8Ay6poJO3/zODcQH8/iRpuimDEpPaMgea4UZbQyCk02ZdHCTQAPrrAEKKCRgQK6EmKYxYEAWAYofqJgGRF5gFgXKXKCTuWnbqJomipUqcyU0gniGjcr5ERj9E8yCIEoUi7D0yIiCufWuPczFQNJyrBeu7WLk7HVUxnJATIV4tB38JgcsBgBhlQChmNmLay/8JHpPfp6xLAayeRqYClLUDQsfeMdRHN3fPO/mZtmE9uwNdBNL4iaIJ/CgjAb6ClwNm6Dw4BY7SgO02RMwYCmLmsYyDyq6jpJuMIBAFoOIOpPOSKCgYhgMOJDlgIBEw4gHWCN5lF8dAAwbMvEiLHPyJxrmUEscVsWAUagwAqWmA52QYxomLw8id3sC6I5DoFiETbQiBABhlQBh6PK7MXn7NA58z18iFB9smLW5GwZiWg6eOXMLiYiK+451QBDmw3MlW0XbmUHGjLhZYoVlEC+CkQyIkzZL58F9tr8GRIFHPBTygQHHMUsAAQPTskDBifFwiLkZyO1AgKCoVxkoMG1nS10JS2meyJPKrw0yoEDEScsFK87pi+PQ/dARVCcKEDUJyX0dqGaLyE7kYTZrQB1Mjeu1KgKAsEqA8PqTvwpJLuHwm/4HOD4IUFyvBVlvP1SoieIP6OWykDSdH0NkcG5xpnr7XnU7Dij0JpE/0BRYEVatxODC3aIBMrvHNY2BAwIGRQYMfLIi+p3iD6KqxpgF6e+FSoWBAspeaHjxPFTeGIF+Nc3eUbJaP20ycSR0PnAAhYEJFAYnEW6No+V4L5RkBKPFAqru5u03AUBYBUAoTu5nxZp6jn0Z7QefbPi1utsGyNkuep6+Ds7ZPOvBlI5dUcDYqSDtcbetuWC+K9OAIoroSiYgURyBXsVouQqdNn6OY8GHlJlAgYa5coVxGFCA4lYGHq5sdn5r/Voa1QujgONCq9Ey19sPVXwkcieaMxV2ivW2MNZFJ6ki71ksm2MzJAAIKwQInivi6osfRTnTh+Nv+11WpCmQxtJAZCCPpgtjWzaoUlcMkyfat+z+wY0X14AUSiC1/2FwgsQaOVYF5bErqGYG4M3i6b+zB0EOYd87fgm8KGHk1S+icPvV6SYtx98NPTOA4siFQPV1aECVRHTG4xAtE/BcuIKEoutnKYRV35VAoCBfrsKdVVSpjq4bqglZD6oXRkCpj6HI6oOXiZq54779KI1lkRuZhHSqD5zks0dutAQAYQUAgVgUJwfux81XfxQdh7+BrsOPb/TzCfpfoQYo5qDtxQEo+aXrNKyw2xU193gOww/tgR3Z/LzlFQ10FzZO9J1C+70/gNytM6wqjhJphqhGMHr2SyiPX2cnWFGNgRdEOGYFjqkzE3dizwPoffTf48Y3/z9UJ2/DMWdSYA+//7eRv/UKRl/94i7U6MqmLPI82mIxaKIIQabgvRkXIbkOxgsF5CvVbWctuFMLVJOh8sYwy2Sg4/5aAAJRN4fbknBMC9VMEfKD+8BvEjFbABDqBAiUzkiuhVvnfhiiVMbB038OUV6cgndlH5ug9XppQM1U0XJ2CLw9U+51vfpeST+ljigm72rf8mpsKxnzbmhLAKH1xLtx418+waYbSvUidfgtmLz0JMpj1xDrvQfhlv3sudl6EYXBczDyo+h44INoOvgo0q9/Dfnbr6KauT2trv3v/I/I3X4Fk5ef3g0qXNMcVVlFIkaZPhpk3kPIKTNTuuV5KBkmI0DaFjEGS2mB4+DoLvSBLIgTARUDCucB5upjB5jLAR6r3yAeboPY17Sm51DvxQFAqAMgdB3+OsLJ2xi6/B44toK+uz+HSJIoeANpKA14HpoupBEeKoDb4rQnT+Aw+j09AQVzQy0QgABCx30fQGXyJhsZWQtcq4qRV74AJdaK1rveh8kr32IWgnDbIfCChPHzjyPWfRc67v8grj/+ezAKY7CrMwGwvY98DLnbL6Nw+2yDzbaBhsPxEJUIZC0GQQ5DcG0oVgluOQOLAwzPg+E4cDcx62jdtUMp1QIPJRSBJKko5cos+8At6+AsG1ypChQr4IhGuVY1cjVjoPoM8t3dq7l0xdcEAGEZlfGChXCyH44VAi+a6D76VVa5keO29oS64ie9Cy6Qiwaaz41CWqaI02apotgTR+aYXzY6kMbQAAGEtpPvw9BLn2MDos0q3ns3yunrCLcegGvpGPzu3zDfOFkSWk68B+MXnoAga+h760/j3Gd+at5EOh74YeT7X5oGHY0x0wYZRc1lI6px8JIKy/agFwsI2wWAM2E5NlyO27Sguw3RCgMGAsDzCMfiCEfJRSXANi3kx3MoZArwXJcFK8K0qHoUuEIFyJZ80LDCwwwXkaE8fGBDpnJnpwFAqEPNvGAi3nYBXUe+zmovBOCgDqVtQZP4jQxi/Zktdy9MTd0OSRi7vwv2CiOYt0B1u+aWBBBajr8LV7/6O2zOvCij9a7HIEgKcytoqV7cePz34boW4j33InXwEYy++iVQcONiAEGOtsCuFuDajcHk1xAPk+MhqTGIoSR4SYHnOCgXs5jMGbBtBylVhyxu80MWmf0Fka0bjvgakk1QQ6E5tRdc10UpW8TEYHpuXAUDDB5gmODGskCmCM7wa8ssK0Qq9a5a1dllG6+tQQAQltEfWRBa9z2DnmP/BPo5kMbUgFi1kDo/Bm2yceJCiFExvz+FQl+qMZW2C0cV33M/Ou7/AIy8n+XCyxokLY7Rs19Eeewqet/8EwwMWOUM+z5x6Snmcoh2HMGet3wcr//1z83TGgUp5m69jLFXg5osHC9AUKKQwk0QRIVlhliVSVSLWWSrIgybR1SxEZWtZemHG3Z5TgGDWoClJMsMHEjK4pkKRtXAaP8QKym9oJB1gUDCaMa3KhCAWCKXUXnbIXBy/dwKq9VlABCW0ZwgVdF99CtoP/DUanUcXLfRGvA8RIYKSF6ZAG81FolKtTmMiZPtoIJOgWy9BgQljGjncbZ5kbiOiWpmEEZhlG1mHC8i2nmMuR6q2QHouWHmbqA0x3D7oTnpjVOziXQchVkah1mc2PoJbsEIOI4HJ1BWQgRiKAGegIFtsiBPq5KB4zjI6RKqlghNshFXLAj8ZmXyr5NCiNWJXAmibzFg4JLnoWghRChlU/TTZpcSy7QwOTSOaqnCKlIuKORuKFXBpXPgcmXAsqgS1bymylsOgFM3PksqAAgBQFhuXTf8/8l6kLw0jlC61HBjtUIyskdbQEAhkEADO0kDZC0gMMCAgRZj3BIUw+EYZdh6nrlcXI9DwRBRMiUogoO4akEWtpFrgcAAWQp4P8ZgSshqoIUj7Gt2quZyz9e2bBQmcihmCqCflxTdBDeRB7JFeCUd/CxQEQCE5TQ96/9nv/Eh3H7jFGJNMkLx5ZHcCrpGYEFYibY2vy3xHoRGi0hdSoO3Gu/FQ5wI+X0p9rV9baqb/1yDOzauBpgbQY6ArDFkWeF4AgYV2HqJZX/4sRgeKCGBgEHBkCDyHhKqAXW7xB0wYFADBbOAgSAIzGqghcOQZGVOvEG9T4ysB+V8CfnxLMj1sKRQmMJkAdnX+xG2bURVmdFQK997eFPIkgILQmBBqHddN2Q7QbfR/PoIiP+gEYUKOOUONqPSGmGEO4FsvQYodZFOvouJ69rsJEybH8Un1COe57L0x50s5H6htFBBibCMBJ4X4FhV2JU8Y6ScHaTJLOWmiKIpMaCQVC2EZLvxPwKLAAPHcaFQmelYHLJKc19blViiUDYqOrJjGVQKM6Rbd64fajd5K43+5y+AHAqtEQ3tqQjC7zq2KUstAAgBQNiUhbZRN4ndzCJxdWJTqzbWMxeyHJS6Yyh1JUAggXgRAmkMDQiiyk6/i0modT9yN19iUfiU5WBVC3UNfKdmMZDrQNTikNQ4cyNQzIFr6zDLGWYx8Bwylc/EFNBPFUtglgPH5RGTTUTVbQIOKCuBUhbvkPRkHrlCBcf396K5q3PdrIFTLodcOrsgeySlR+aH0xh4tR/lbBk0ss72JA7+wL11rcm1NgoAwgYDBDqF+C+Z/IrzXdf6cDfi+kaaj6Bb6PzOTfB24wQ8UeZCuSOKwt4UbKrgVgto2ohnEfS5Fg0sDtjURAcjSLIqOZA5nTbC3ShkMaBsBLKiUBAimcBcx4JZSrO0TgreXEh0W2BBibbLQxMdNIW2UfonzZMCEe+QXCaPZtdGd0gk3mQY3XvnxCSsZX2QlaBMqZDD43DuIFCioUiywxgU9ZIOo2hAi2tQo+pabln3tQFA2GCAoCa74domi3JmhBgcx14+9OGjE8dUgRhC5vR3+gB6jp9OSW0IXHieA9fyP2T0wuJEGRw4xhVf+yNrx5D9AteTydSzqU///oKk+X3S32ofctr4yUxK954aE5kR/dOCCa9WYpSuVZt6UUlfn/5b3attAxqqkxWEh/JQc1UWg0AVHDeNRZEDXJ6HJ/KwQhIqbVGU2yNwN7Fe+waodNd3SZ/DaPddbI3vNoDgZyRIjL9A0hJs/vReoHcAZSTYleyS68NyeGR1CaYjQBYcpDSTxR9sH+F8gDDLiiB6HpotHWHbnJ6GEwrD7NwDr47shbrm7oFlN2RGJlhcAoEGQeAgqy62kkYqAAgbDBDow8Y23G1clexOFREYYeCiUfjPPICsCRSHoGYrkMomeNOBQIDBdtcNMLgUeCVw8GQJrizAUUXoSQ1GQoMZVQA+cCPU9TJs8Ea0KRKrIkXjEwjf+RYEIvqhw4gKUY0ydwIBBXpvUSwGpStSVsLUIWGxx2e7HHK6DLIgiLyLhGpBFRsr7biupUdWP0n2CZAARB0LzWZ17nuEanVEE7BaOuBJ6xcYT+Agl86gWipDlgkcbG3gdQAQNhgg1LUgg0brqgFRtyCWTEgVC5QCKRg240cQTB8wULoQRylDrgtizJ7a1umc41JRFZ6DJ4lwOaBqGdA9ByY8GJwLPq5B626DGw/B1tbvxbCuCgg6W7MG5HAKoZZ9qIzfaFyAwAksgwACRdNTxP389ei5JmDr8JyFg3j9NMVwLSMh7FsMXJcFHToEDIwSPGfm5LyYYh2XQ96QULFECJyHqGIhLNnb18NGGQySBAFkPTAQqVlwZ8/fIzrlZDPsZAvo5/USo1JFbmy0IZg5A4AQAIT1WteN2Q/t97YzY1FwXEbFzFFhmHIJRjYPp0ZE4nEeAwWcKEBpboLLcxgZGkbJNMHJHKs4F21Kom3vHgjyxpOUNKZCd8eoqLBQpOPINInSlsyazP1iCJwYq32nn0PgpDA4kb40cLxMdJDgODKLL8Cs55jwHB2umYdTug2neA2eVQYvqxDlKASFYqTUGjBw4BglBgpck8h8lgcGpBfKUsjrMsqWCI7zEJFsxpbIE9jeziKIkAUebWYVMgvE9MX0OEzoJnQX0DkBsZ4eJJubVpXyeKd6HMtEKUPMk4WGKHkdAIQNBgjkYoDrMD/eTpGGczGsUrGeUUVlbBjlXJEFAYWiGhSV4kBceHIILi9h9NYgJM6FJPDsRagmk0j29IBfIJBplcMILmtADdBJOtS8l31uyYqw3sJJEXBCCJAoU4I2exWcoAJSApwQASfRxq2wOCTfQiBS4QjfYsBTDJMEkNWgTqGYI8/Mwcm8Aq94kaX4c4Ift0TuT5vIjao5lrY4FQNVT9cUVkWWAwIHnsdBE23mWth2TIkLTZb4BngenY4B3vFdJTov4vmhDKqOy0opOK6HeDKOu04cQSik1aOyRdtYhsHAgVEp+cWdGkACgLDBAIHRjlKQIMUh7BCh4EWW0rXCKmSNN30PbrmAwuAQm0uyJcpOARQgRGAgWzBRzRchzgot0JqbEe3sgl+fPZCdrAFe8P3Qq0pfpGBkKQFebQGvNoFTmsArSXByCrxCwX902ud9+l6W6TL7O8+CkNfPPu/B00fgFd8A9BHAnckqoBgLqzQOx6zWDjH1n/qpZbHGkkiMiQQKWkL6NgtKXHwF0ye8jfMQogDt2oadVsO4mM5jfHKm3De9Mw4d2oe9fT2r5kewdB358TFYht5Q79UAIGwwQJiKAt7+m+mMoujltlzA0rbZODwPTi4Nu1SEFp5LnlMo6kin8whP1VHgOITb2hBp79g20wsGukEaoI29tqlznAQ+1AEh0gNe64QQ6gAfavfN/1smHrMMeMYIvPxrgD5UG4lfU8DjZBgTl2EbxVWNkMBB1RKYa8HxCM54aA4ZULYLU+IysybI1kruEspcIADnefA4HgNqGCY4XL05gnJFn+5FUWS86aEHoGkrSz+kw4heIlbFUVbxstEkAAgbDBAa7YEH41lAA44NL5+GgLkfUPrw3rg9Cc52oEkCK+ka6ehAqLklUOOu0gBF+cuA4LsBOCkGIdwFIdzLgAGvtfougEYQzwGcMjwjDa90EdBHa9lGHBs/5GZw4QOAtgeVi/8DTnF17hPKVMjrEiyXZ7EGVGOBghJ3glAyUhM8xKbAAQEE14UliBiWQ7A5DhXdwM3BNIxZJZr37u3F0SMH6lIBuRBsy0Q5m0W1OGONqOviTWwUAIQAIGzicmvcW3FmBVw5Oy8dNZurYGA4i6awzMq5Rru6oMQTjTuRYGTrowEKEKT4ADkBTk5CCJNVoBOC1gFeoboaDeZiohgnKwPPGIVX7gfMNEBggYRiHZQ2cFofuFAPwPunXDt/GZVLn5xpV6fmTIdnREjEdUAn7YhsIaZajU+jXMf8eJ5DUlURLxfAUZaTKILTQnArFegchzFJYwCBDg/ErDiSzsAwfd4aWZbw6COnQdaExYSus02TxRlUCnk4Zn2BoHUMfUOaBABhgwHCjnQxCGKNXnVD1uSWdcoRc54+1+Rq2y5evzSMZEhCOBpBrLcXkhbasjEGN95ADZAVQGmDGGr1XQZaK3itDbzS7FsQGlE8G54xDk8fBPRhwJyYCwzULnBaDzi10wcKs8VzUT7/h3BK/XXPjLgOsroMw/YDJKl8c2I7lm9eYMYUSxAPaWiJxYBcBm6pCE6WITa3wtV1FMpljPMinBo4dF0X2XwZoxM5mDWQcOzoQfT19SyoTwpCNCplGOUSLJ1iPuqP96j7Aa1zwwAgbDBACIIU13nFblR3jgWumgdnzs8XP3dxCGFJRKIpgXhfH/iF0sk2alxBvxuqAZcLwVO6IUb7IEUIFDRBUGLgpHhjB6IyYJCGV7kBGKOAlZuxfpGFQOsFF+oDp7TOBwazNGqmX4B+47N16Zi4DrJVGbrjgwNiSqSMhW1VvnmRmTJLiKailYoxEQeKacIeHYIlK5CbWiCJIvLFIsaqOhxKAakJAwmFMkbTWZiWjUQ8hgcfvB9kifDFAwUgVktFmNUqbJPYcxsjQ6Gehx4AhAAg1LNO5rTZOVkMlMTtgDPK4MwywIKE5qJ623HxxqVhpMIKYq0tiHUvfDoybz2+AAAgAElEQVRYsRKDC7ZUAy6fgBN7FErqMJRIFIKs1dL+Gp0NkzISRuGVLtUyEqozFgOygIT2gYscZm4R8BR0u/R8HD2L0pXPgKtcX/J5UJZCtiqhavuxFsSUGFcsqJKzI1wLqiShPZmANs1v4iE7NoaCB7QkUwgpMsq6geFsFvZUGehZIKFcqmAonQVRqjz04H0IaSoMckuUCiwzwbXtbWExuHMRBABhgwHClr4Fg5svrgHy2Rpl8HoJqNWZWKjx0FgexVwFiYiKSEcnQs3NgVa3uwYSD0Du+TCUEFUmbHRAMKNsj2IMsi8B+kAtFW4WmCWLQeKUDwwou6IOcWwPmQkbxuRFRMp/D95duGrlNNeBKTH4TGRIMcVCVN4ZQYkCz6M9kUBsFo9BplhCOp+HIAhoT8QR1TRUDANDmSxsOkjIip/6SF/0LqHUaNdDoWIgHAlDEamwFVHsN74bYamlEgCEACDU8SrZ7k0o5av2RWCAAhKJW30Jbgqq/z6ZLSOTKSGmiIw5MbFv3+bEHxAHPJHhkCuDEdn4Rbb8lw17RfvfKY2NSLh2WK2PjVxtlnwM7af+LaLJGCzLQ7XswXG8Bn2Pe4BrwbNy8IrnATrlTxOu8YxBkQUfxu8Gp7QvqbappeN6HiwTKJccFPOuv7Q8C6r+LLTqv4Dz5gbN0f9LpoiiKYGsCCQhyUZSNdePpmEjH/gyfdOMmqJRtMRjrCXpZ7JYxGSx5BdM4nk0x6JIRSIwLAsDE5OwGjAdcaNUGACEjQYI0y/2jXqEW9DvNphTyRUwZolIooqUVwFHtLG2AW4WZeqCmuM4GJaLifE8ymUdIVGAwHOQQiGkDh5aR/Kahe7OQQwlIGj0FQcvR8GLEgsInQp2JZY7lnVOeME2GF++w9wjJiP0cY3yzuGoWPelLaAU+TC82DEcPpFAokmAa3vIZx1UK+4UF86633VVHbo6PHMSXqUfoKwEdyo2hqoNRsEpzeCjB8GHiLSLLCFznQlT51bb8kBL3jBcGAYBIheGPh8Q8W4OocrXIRvnwMG3DExxHRQMGRScSEJxB80hc/vTKNceSlRV0dmUAs9xcCieoFRCplRmP5OQhSkVCaM1Hmd/u5keh2nvDMtJPesyAAgbDBB2YjVHKjc9XT66nlW2yW2uGCE8Xkig1cniAX4U+8Qi+HoqTwoyXFFGLlNEdiQNReQZOCBhBEkdnRs2E05UoLYcYsCAQIBdGoNVTMO1yMe8kJmSmPpU8EqUlealYFiXTpu1ct92aZzx6W9n8csOx8ErIcY8SHNjFRarxRXRAU/pwOVjKEX+NfrHTbS39+DQ0RTaOiUIIodizkGp6FBIytaKa8IzxuBVbwGV24BTmh6PoCYgR7sgxvb4aZes7Pss4xhR/9oebPqyAMt0Ua14DBCYhgvLJGvJ4tMT7QGEy18EfSd4MJvrgK6SBJeVb5b47RNkt9TDpLiD7uYmSIJQAwdlZMslUNzRbKHMhvZkkum6Pz3OLAm7RQKAsMEAIchi2NyP0ouVKP5sshOdbhb/Mfw6kvwyecbEKifKgKTCExXQuyE/OAgzn5vjn04dOgQpFN6QydBGH+55AMSXb0zcYNS3Ky8PzoGXNWZ9oDVHBXgIVpjZ23DJwrCNhOoDSPF2aG0HIEVT4GUCCAKzpLhGBVZ5Evr4TZi50RVZS6YAwmhJQ6l6E309p9HarqCrV0Y4wqNSdlHIOmyD3XQhd5FJ5EZX/XRFexZ5jhhjxEaUruhJrXBBJeT9mFpyj9Bhl4AB++74FoMpoLCygHkPsnkB4dLfw7ar01wHpAuR95BQze1ZvnmBhylS3EEywWILyK2QK5eZW4HFF9whYVVFRyIBSRSYi6GkzzAobvo62eQbBgBhgwHCtA+5nhPsJj/81d6O1YpvwOJTr1Uj+L2JbowbAv5n/Bl0CAuXuCVjrCdK06CAVcFjqUscrHIZuf5+uHQEq4moqkgdPrJBAW0cIn2nmT719BVWWnfNJ3+Oh6BEWAEgKdoKzzZhZG7WVbZ3tWtiPa9TWvoQ3/8gBC02L9VQqNVHsMo5lIfOozRwjs2vHvEgoBj9cVjSUfQczuCl50bR2Xoc4aiA7j4JzW0i21iZy6Hs++c3RewyvNIFeJWbPjCofbYcaCg7+6BjDzwxyeiRaf9yazETGzI+z4aiP49y+p9huX46HzElUlDiti7fPOtBkiXAjyuIsnTEfKWCdL6wIDigy8jS0JZIsEyG0VwO2dL2AtxrWcMBQNhogLCWpxNcW7cGRiwZvzvei6dLCfykdgk/G754x7U+KPAkqpinAlRl846COBSUVB4bRXmU6GlnhNgTQy2tdY+l3oYUhKg2H0T04FvZJXYl6/uSRQVmbgiVwVdhlyfnpV7W2z/Nj5npI62QE10wJq7BLmfW0F/9d15tS06U0Hr6RyCoc601BEoVLQVBqtXL8DyYegG5G99F/vKzdd+uHH4/dOVBvOW9cXz7W2cxORpDItbO3Ayt7SL2H1HYzxSTUMjazDy/cUIpi2NwJp+HXhxGtVpGpWLANE3EUvtghd8L24uBgM1y6YrrOkbPhjnxJTilc6zbiERMiTugfHNNSWFVYRu+IoqomiZuj08wK8JiIgoC2hJxxDSNxSeM5XLrqu5G7iwACAFA2Lz1yVLKuPkncV5kZmRRjbPNkZc09kWnaVbilm3m84X53W2DRRV/qt/AH1znoHs8/iD2PN4uj7ALKp6Ia3wbOqMKUsQVv8SLgHKVM1evwDFmqt2Rabvl+HFWh2G9hPzpcqIb4d5TkGLtKN18AZXBs9PmcmLtU1sPItR1D6pjF1Edfn1VPvfZ4yVdKa2HWFqWnr7k52TPswLVsiPWa6Kr6Cfccxfihx6ed6UaaoIoz2ewNPU8xl/7KsqD5+u6m6GcQjn8fTj15hb85af+EsWch3tOvBeqHGXXSzIYSGhpowwSDnrFRalAkf9+YN96nNqnMgr0cgbp83+FSml8vquEkyBG74WYeDMr/7ypAIEgpFOFOfopyO4Qcy2Qi2EnyOzNnmIJKOhwKXBAc2aFm+JxpKIRlHQDAxMTO0EVdc1hRwGEaEpGKLa+RVMESUf3sa+g4+BTdSn0zkZk6qXgqlWVjF3VHTf2IjrJkenXrhYW95MTj71ANetnNlXaFHk5DF6JgJ/+e62ynGvBNUpwbZMF5VF0/kqqRV63wvid9F68XPbrsf+Yeg0fC12G7gk4L/Sgu+cQ7om7cPUCHINqrVMUssdM0y6BkFpkWmViAsVBCtCaEa2ZyJG610epHA9RS0DrOMEAEYECpeUArNwQcwHcKaSr2IG3wK5mUb754op0stiABSUMObmH6dkqjjMOCK/m/iKLBmVBbKXEDz2CcM+JOUOgdRSKtoPW3p1CQKdaGMHo838Np1piAY3MhWTrcK0ZoDd1nS10ohj7KA7c1YprN8+gv/82mlN7IAtNEAQeVb0MyzJhOWUoqoHWtiZ0tLdC02IQ+QhMY1ZaJFX4m5VBO39stQBC1y8fTq4Bul7X/cBBBjrsPJzSq3DKl+HaGcAl//bUZsyDV3sgxh4Cr/aCY1TJm8Xb4IEzbkIrfg4atzM2RMpISIZDaKGMBMdhnAZkQahHkuEwS4UkMHFtZK6FsZ7rt2ubHQUQZE2ApNRHElLvAxMlA3vvfRx7Tv5LvZfMaafE2pl/2WSBZ/4Hn22cVPCD5a/XXga0qfI8O+FN+/en/kYvoqnwasqR5+h6QvlT6TaUN+/Xk2c0nlMnw+nrKV9+KjKXzM6CX76U/a02JvLDsxeeT/oxd5wzfQpyCDSnauZWbUwcKKuBTqjTJnuOZ7/PPvkzkGSU/JS8dYxfoJF+q5TAr4zuQ8UVmHVC5V28W7wNWeBwMmrh3fECNEVj0f6CGgeLOaCZW8RwprN52OUs0q99d471gBcEJPbugxShE9zahFkNUn1QWw7AzA6gOnaJrYPwnlPsdwomXEg4SUXi6HtYe33s0toGMetqstSIoZTPpTDl867m1mypWOsAI3vuRezA6bkAgRMQirX5634BcRwTmSvPojx0gVkfeEGCmR9DZfQKjNzwnGO/BxmF+M8g3NKLE/fJyBfyrEQvfREpDlHnFoslnDnzKp5++js4evQQopEUPFtDR3sXWlpbWbgKU9kUtQbjy6Ff/FuxjyBlFLCAQQ+mSe4Qj/EuLBY06FpZuNXLcCrX4Jkj8GZlL4DXIISPQQgdAa901iwKa9X08tcTJ4JivAit8k3w3tYCx+VHu3wLYkmkwEQKUBwvFJCv1F8PIawo7FpZFHF1eAT2yqI/lx9cg7bYUQBhI3QsSiYOnn4Ghx58fFXdT52k/dOMT3IzFyDU8m0ZaCBSHJ/8prZD107h3gwYYJu+/6KkTddvV+uToYaZ69mJq/Y2mwMw+CkwMANQpjZzdrqeAghsI50CMrVxCjILgFu0mh0DKTZcnU7qG58ORLXov1lpxR8UjrGTcFc0iqgi4eztfnwsNYwfio8jtEBaFulQUGMMMNBmme+/hNzVV+c8YzWZRLSrG7y4NqsUS2FsPcysB3r6Mqzi2PTzje59E6zCKPQJorpd2IwrhpsQP/oeTL782XUFV6ta0Bt8kRhJofn+H2ApfLNF1hKQad0tcoI2S5OoTt5CuOMweEH2gz6zg5i89DT09NySxqXwB2Fqp3HouIqOHgnEFUDeL1GaOZ1nszm89tp5pFJJJKJ7cOV8Ebl8Fk3JbvaRovRX9vEiXE4/1wbrAwQfCPi4y/+53v3Es3Nw9Vtwqjfg6v3wbGI3rAF2MQZe7QOv7oOg7gEnEWvixloUiF1RqzwBxXyZESptVyGeg6k4gmwtY2GK66CeOVEqZGcqiZCi7KpMhgAgLLM6RJkAwlM4dPqb9ayjHdmG4gFmgwJmlq9ZL2hTZrn3LJJ88/2UdMcXqin8A/8mHGnvRESWcGP0Fo4XXsDbo1lE+OUT261qBfn+/jmlVwVZRcv974ASjfipgsRHsAoh3Wkdx1kshT52EQ65ZmbpSWunk2EKldtnmDVjMUnd92HkL34DTrVxa8evQj3zL+E4RPc+gEjv3T6TZE0I7IqSBpkA3SzX1ewOCBTMdkMQKC6NX8P42a/UgjP91oZ8EqXoj0HVeKRaBJbWSD/39EmQZ1kgyX1h6C6uXzIxPkpc+usyw7o6IQuCa4zArV6HU7nIXBHTBwwhBE5qAa/0gNf2g1e7wXELx+nUdbPl3oH2bYTL/wDRHl6P7rakj6imoiOZZC6FsVx+xWRHZJnspLTIUAiThQLGC3Orvm7JpDbhpjsCIOilOEzd9z8vJnopBl6wIWs+eYyla3BsCWq4SFyji15HvONKqAxZmyEs2YTnsqW3ENQoS5EjtwWZdcn64ZilGVOtV6P33dJRztw840j4YrkL570u7BULeK98E71iCdISz3Xq6lFLhjV0E3I+PccUraZSiPcdgpLsgtq8jwX1kZnfKozUfYrnpRDCvQ8wcFEdOQ/Xmk9cRHqO7n8UrllC6eZ3F+07dfcHULj2LdjlneEPXnTp8DzU5r0Idx2DkiJiqpkTMs9LzNWwklOzY1YwfuGbKFz/7vQtXU5DNvl/UbqIbwjzyBLAIZbgmUUhnvBdeOWSi5HbFqtXsDXsuuQGNODZWTjli7CLLwHOrDXEUZyPBogxCNoBCOEj4CRyxayvm5VcDdHiZyBZ6+fi2sxXB1kP+sg1xAEjuRwrurQaaYpG0ByLTWc+rKaP7XbNjgAI9Si9MNGOWPNMcIlZDaFSSCLeMgJuhzCD1aOHlbWZKVm6sus2v7XvEvZNvXWxJgLIOyL+Oh3HqfGX0etmpwfNSxKinV0gF8NUXAVZUELd94LM/bTZGxPXlwwaJEZEcgtQ2+ro+SXD38m9Ezv4vVCSPSgPvMzcDY4+UziH7tl0/79G+tt/suFuGyJt8tk/bbiWvj5h+3UuBwKmzfd9P+i7jwvmms9p49OibeDJRVankFUhP3gO6Zc+P2cuhehHYMnH5/VyZ+2mzbQaLD0lig+y4OSfh114cW6MArvQD/jlhAT48FGI4aPg5Q5gkbiNOtXHmknWNYTLX4DgpFdyWcO0Jc6D5miUESFR7MFqJSTL6CJaZp7HleHhTbUorXbMa71u1wCE8VsH0bLn6rS+CCDkxzvQ1HUTvLC8GXqtig6ubywNkM3o8WIK3xr18OHKi2jzpixEHOREAvHuhWMPKPtAazsKKdoOY/IGzNyA72JhoSA8KKhQbT4AJdWHwtWnVnTiJ1dDqP0YpHgHyPrAXvsU0+F5KFx9kgUzbohwHJRUN9TmPvBKGKJC2SYhFvdiFYm1sB9mbphlmUzHvSwxEArIJPfAbBcBKyrFaKDnl9Se6ip54p3Q2vYvOUUCB6Ks+RsfFdMRibegxo0w58paUSvPQ3HsCsa++7ds/FNiiQdRiH+s7sqHG6L3VXbqORU/86H0OrMukJUBmE9/zAlx8Ooe8NoB8EoXOEHzXRF8jQNkzv1dcCxogp6PA86zwXlVSOZlqPrzENztablSJAl7mpth2DZuT0ysqeSyb4loAfXZP5aGvgsol3cNQLj9xin0nnhp5gWha0jfOoj2/RcgiLun+MYq30k77jLd5fFnmQ48N8Hjl41n0OX5vn2Dl+G29aKvzc+LX0wYV0HbEUiRFkZwRBFprDaCHIaZG4Q+fmVTT99reUC0obMMmOmgV0rHjDLQoKR6IEWa/KC/8X4YmUGW4kpsjzNZNLTP8qAMF0qBleNtkOPtEMMp8ALVULBhVXKw8mMw86MsHsAx5rtbmu77fubSWVSmqlrWGpDLQQ03sayFKaFxUoyM69oQayCrMPAaxsiCMEvI2pSP/xIcsWMtqtvSaz2nXItRuALPmgD97rkVquI1Z1wEMjlegah0QND2QqCUSaoEyYCAyYIPCQxwbhGCmwPn5iA4GQYK7qzuuKUTXuHNpwITI6qKwclJVM21B1l2JBNIhMO7hlFx1wCEqy+9BQdPPTPzInF5DFy4D11HXoMgrn3hrHDtBs23WAMTtoQ/mOjGc3kNv2U8jkPuOBvROB/FUMthvLujPqsSVdITQglWTIhiDCiVczpjZIvnuB63p3RVOdkBJdUFOdHJQJBVnGCWBaokyYJTBYEFsRKQIGAgEBfBnbb62mAoJsDMDEKfuA0zN8KKL02J2rwH4d67IUWb52UxEAAzskMMsEwJBSsSCPDplwmPeXCpoJOls7oWshpjMTQTbzyOQj8dDmopvjUffVW8H+XQ++eZ4Q0ao1lFJJzaIHrt1TwZOuEb4Nwq28x5+tkjy4ENzq3ANccAcwCelYFHlSBrFcLpTjylHfMcBN4DL2jghRB4ZnEwwbll8KzE884owDRbswQMKHMhX65gorg+QYXEpkhuBqJnHs7MuCVX80S3wzW7BiC88dT348Tb/mnOM7l+5lHsufu7oFTGQHaXBtK2hN8f78E3iin8hPkC3m+fhwgX1/gmvNxyP366faKuIMfdojUCQFKslVkHCCxIsRYW8eGyUtQ+78VioGAhHZEFwsiNwJi4BX1yAK7pZ4lQmiMBDTGchMiCZalyqAmrNMkARfMDPzivOxaUVytBPrtGCPu752L8pS/ALIxB1OIIdR6BoPq8FpYtImfei1I5CceZCewjcGDaOsJaYksAAp3oqfwy72bBu/nazwVwrg7Om/oigGCy0sw+UCAA4b/HWMj1LICwW9bo7HkKPM/AATEn0ka+UBGm1eiF+j3Q0Q7LtutiYVzNPRrpml0DEF752odx3/v+bo7uLz33Thx44FsQ5dVFtTbSgwzGsjINUIDiH0124XO5VrS7Bfy09TzudYbwd9I9mEjuwf/ZdhsxIXA93alVAgpkIeDVCMRQAqIaYW4Vf2dymWmfTvbERUD1FIRQnLkeFhQ68VtVmMUJ5r7Q0/1+YCQ76Yu+FaG2ydPfKXiy/c0fWdGDJnAx+drXWOVHslAQkRK5QdhwPQ+2KSCTiWNyIjEHJKzoJmtq7IJ38hCcEYjOKARnjJn3/dO9AY6+M2sBWTk3Mc9yTXPa+oupSmNLLMqCEovV9a2+2NPcxAo4DUxOQl8Ht8XWa2vxEewagPCdz30cD3/ok3M0ce7J9+Pow/8MSVnfBdTIDzwYm68BIlj6y0w7/njSp1EOeSZkOKhwEk6Fy/iNtptoFwPL0pLrhYIyp07v0w1rwYG1oE1iFSJrgNrSB62F/N8LsFIyVk+b0ZGb+XFmKaC4jqmKmsyVoEUhJzoQ6jg8Z0jUhhEV1ci/qA9qP8Pi6cE1qrArOUYaJkVS82p7WKaIocEWFAuLAJl1/NDQRi/YIxDt2xCdAYj2EDi3BG46OJBcWzvP3L+OKly2K6LMbonFQDEIS1VpXLajRRrEwyG0xeOsbyoTvZNl1wCEb/3Vz+PN//YTc57la9/8QRx79OsBQNjJK3yJuX2tmML/m+7FpDMT5EY0rG8K5fDrLf1oD1xP67oyyCKgtR9CpO9e36qwSJzCSm5qTN5G5vUnIIWTLP6AYiRiBx+CHLuj+iaLTzBhFcYZDTNZDwiwiJEkAzkjA1FMTqbgof4UyoXHSQBpKiOAvusQ7QGIVj9E+xazEvgugUDWWwN+MCaPUDSKZDSCbCaL0npu4IzmnkOICje1tsLieVSyWZTGx+FuDVHGeqtwXn+7BiA88ae/hnf+5H+do4CXvvzjuOddn4ekzo+o3nDNBzfYcg1cNUL4r+levFL1MxZkQcA79vWi1x7AD3Fn0BoEr67rM2L01loMSlMvInvugUDpimsQimPIXXqWuSemhCwHkb77EO48wuIXqBCXY1ZhFdKsVgOBg6laILykgGo/UGxF4fZ15KoHYErH4QrxOtIfafMnWnKr5gbwMwF4hzIARmvugvS25Q5Yw2PZ9EupZgpxl9DGrcbjECQf8BfTaZQnJ2fVoVnd0AgUEN26Eo0ilEpBUmbSai1dR2FkBGZlZ+4huwYgPP7JX8e7Pv47AUBY3WdkR15lehw+OdmJv8m1Q1VC6IxG8NihvfBGXsQPcq8sWMNhRypiMyZFRbSa9yC673sgRdZQQ8DzWJYCxS1URq5AH7s2N92StnZJg9q6D6IW890WuRFmObizQigVZpqqjUKFyyj1kfgRTPkEXKEZLh/2OQNYATM/GHD6y62C6hT4QYT0lYXgZpasV8DuF4QRLL3aOMqYrY8JkoCBHA5Bi8fZ1xQwmLpBNZdHfmQYzgJ8BT5L7PJ1LKidHApBSyTY9zuvob6LY2Mw1tNSsRmfxzrvseMAgm3KyI72wtJD4AULoXgGkdQEnvjTX8W7f+q/zAMIx9/yFZRzTShlWuBYMkRFR7LjNmNdDBgW61xFyzSjF+NUNUmPFbLxX5Ts7+tY2ZGG4dr0oq//LXzDUPGHhQMopQ7jge5OmNUi9ow8hfdrt5aeFW1Uzjq/8JkZvL70ynqfDDN4OyvTSb19uzYV+6qvtahqaLvnbYh2H4KoqMy9IIgSeHFuDQHboAp7LjzHhcMovg3YehW2acCqlGAUc6hmx2DmxlhcwVrWD+llITo8cjO4QhIuHwN4haqi+ZYClmJIWQT0nQII65w8C4gknEHrvf5r6tPszmo15SZYdu/mOGjRCOLtbZA1Is7yN3v6/LB1CUAvl1BMj8Ox5wcbk1uJUj8Xou32Y1ooM8YHK5KmQZRlCCJRc/tuBkmRISkSqwBqVasL3mMnPJkdBRBcR8DZb3wI+XQXXEeEGskj3jaIeOsIxq4fxal/9Zk5z+z6y49CDedBtRxyY93Ip2mDCCPaNIb7H/ss1MjqaTl3wuJYrznQS5G9GFk53NrP7KW5ARts7T71jp1e19ecCL7tdMOUYmiyc3izcAut/NJ+YlakyqVyvlSXYp2CygggrGYDIbCy6GZNgIxmuf4bE81/ueG6tg2CJwQGtFQrpFAYAhEb1SqQ0ilwtjiWX/SLAUmHAhet6a9psMAqo66zkO7pWa6/mtZ5oLurO14g+uj5FgXa2mnTFuW5AHPqMMIsBBT6aVlLPlNRXiDmhCNqDwGCOLM2mZuB1ioxWoODIIns/3eu3532dHYUQIDHYfDySbbhkwUgnJhkBZoYlbLHQaHCTLPENhV4rr/4CFBYpgK9FGXtE23D7NpAdr4GaE8ouwIsWiOch1AdFSCntNIoJ0LaUBtRGkU/demGwGtdDYNGm6UB3zCwvCvgzvHUex1ZBBaTelwQm6WHrbrPzgII01qkhx581LdqUQX3DTQQaCDQQKCB7a+BHQoQtv+DCWYQaCDQQKCBQAOBBrZSAwFA2ErtB/cONBBoINBAoIFAAw2qgQAgNOiDCYYVaCDQQKCBQAOBBrZSAwFA2ErtB/cONBBoINBAoIFAAw2qgQAgNOiDCYYVaCDQQKCBQAOBBrZSAwFA2ErtB/cONBBoINBAoIEVa8DxANvxoIjLp0Dmqg4S2ly+jakbmrYH2/OgijwM2wNRH0hLpD7OHqjterAcsDHUc4nl+Gm0srD8mFeskA26IAAIG6TYoNtAA4EGAg0EGlg/Dbw0YOCeThmSwGG44OD8qIl3Hlq+nscfPZvHzz1K9TVm5OlrVdzXreDSmMlIGA80y7g4ZmJfs4T26MJggki0+jMWvnaxgp97JI7JsoNLaROHWmS0RPxrCDRcGDWRDAnoScwlYTozYCAkcTjWLq+fUja4pwAgbLCCg+4DDQQaCDQQaGBGAwXdhe0Cjuuxk7cqcaiY/s8xlWcAIFt1mYWANu+IwjNam8+9WsLbDmpIaDyoj5cHDDyyTwOdzKlNWOZAFoGC4TObahKHkMT//+2dy29UZRjGnzmXOXNpZ6adll6hFAq0CSgGtQZJNGgiWzZuXBl27P0zXBrjAlfGrRoTYzRKDJdQAyYCKi0ttLWlMNN2Ovcz5zJjnncEbSDYZFY270lI6OR83znf70zyPt/zvDmDjy63BQKLd92nWxBB1SJbh0sAAAVVSURBVGuh2zFw40/3KYHQ7UTg+u3dftyKIOkY8jbGtVKAm2sebj3w8MHpzDaB0Jsw5J6zSRM1rwnTiIhTUGk0xZmgZzCb85BOmDjUZ8t6+dZUrj0Z/edNkVxLpdGSe+Xae+KmnFduNME3g/OlkumYKaw4t99sOymch+9K88KWOCCZBN8k2fmhAqFzhjqDElACSkAJ7JDAD3N1KXC2CeQqTdmxsxyXGy0c6rcx3mvj1pqHsgiJFvZ0mSIKuHOf6LMxkraQiEbw4906DvfbMo7znT4UlyK8WgxFLHDe0YyFj6+UcP5UGvc2fGzVmziyx8alBRcnx2OYyz3tICys+1KIWWB57fGsjVwlxFzOx9SAjU9nytsEwoGsjZLbEgFx6kAMv642kIqbSDkG5td9EUIUDOvVEAf7bBEoq8VAxEs2aYDjeVAA0KFYK4WyHq796GAU65UQa+UQlhGRz4bTFsZ7LVxddME3rPNcN2gh5URAaUSBcXJ/DOn4zn706nmPTQXCDr/UepoSUAJKQAl0TuCb32uYHLCl8P40X5difGo8jtm8h2K9iReHHSxs+HIhOgXcVZ/Y6+CrWzWcfSEpzgAL7PXlBt6ZTMj4z65X8P50t8QE+Ur4RBwkogYYMbx9OI6lQoBX9jnoTZj44mYVb0zEMZ9/tkCwDIgbMJo20QiAubyHwW4LIxkLH17ceiIQKGQeC4CX9zqyk+d99SQMESN0KSYH2pHC97NVjGRs6Vl4UAwwnLJEwHA9PLh2xibjWQuDKQt1r4WK18QvKw28+vd9F+ohyO/d4124suhisMvERL+NL29WMT0Ww94eC5fv1SXyOLKn8yhDBULn33edQQkoASWgBHZI4Ns/ajg2HBUnYGbJlYJ5fMSRHf6jcoj+LgOzuQAvjUalaBZqTTn/69vbBQKt/jNTCbnqhWslnHstJREC5+Cumw7FkYGoOAjHR6ISP/A6A93PFwjsE9ishfLP9YGhlIkbKw0p9ow/fl52xa04mLVx+b4rn/EH0d6ciG8TCJu1JvqShvQ3MC64tFBHT9KUcXQT2MPAqIFOBg/+PZf3xUXpS7Z7Grh+XoPRCu+LEcLnN8p470Q3ri25GKWbkLWfCB5GHTOLLpIxQ9yHTg8VCJ0S1PFKQAkoASWwYwL/JRBYkC/OuzgzGcfKVoCi28L0mCORwv5eS4oiLfVnCQQW8p64Ifk8xcKxIQcXZko4N53CeiXAYiEQN+K7O/VnOgiDKVN2/izsHH9vI8Bbh+Py/8fHJ1dLOP96SnoLbj/0JPZgoafrQafisYPgmAbu5D2JTOp+UxoiKVi6ooZEAfyBNcYZZ6aSWNz0RQCsFAOZi07A0maAsR5LxAR7JsZ6LYksKB6ODUVVIOz4G6cnKgEloASUwP+CwOpWIF3+7CNg8aPBTjufcQKLLiOAXCWQPL4/aYldn44Z0jj42yMPIykT2aSFQi0Uy58Hd97sR6h6TdzN+5LVc+fO3gXGDlMDUWmM3KyGiFoRFN127wOFBJv7mNdTGHQ5EfgBJO7g59yFS5Pkv47bax6ODkVFpJTqIdJxU1wQXofuAOemq8Br0xW4u+4jEzOksDMOiVoG7m/44gawp8GxDDwqt3sSUrEIlgshHpQC7Mu0Iw1GLMuFAA/LoQgkRhOUK2REscH7Y3zC9fA+6J7wOmTc6aEOQqcEdbwSUAJKQAkogV1IQAXCLnyouiQloASUgBJQAp0SUIHQKUEdrwSUgBJQAkpgFxJQgbALH6ouSQkoASWgBJRApwRUIHRKUMcrASWgBJSAEtiFBFQg7MKHqktSAkpACSgBJdApgb8A6LQVbITrihgAAAAASUVORK5CYII=;" parent="7" vertex="1">
                    <mxGeometry x="306.16999999999996" y="140" width="458.83" height="240" as="geometry"/>
                </mxCell>
                <mxCell id="18" value="" style="rounded=1;whiteSpace=wrap;html=1;" vertex="1" parent="7">
                    <mxGeometry x="40" y="200" width="170" height="30" as="geometry"/>
                </mxCell>
                <mxCell id="19" value="The product is 15" style="text;html=1;strokeColor=none;fillColor=none;align=center;verticalAlign=middle;whiteSpace=wrap;rounded=0;" vertex="1" parent="7">
                    <mxGeometry x="60" y="360" width="120" height="30" as="geometry"/>
                </mxCell>
            </root>
        </mxGraphModel>
    </diagram>
</mxfile>